<?xml version="1.0" encoding="utf-8"?>
<!-- Generator: Adobe Illustrator 15.1.0, SVG Export Plug-In . SVG Version: 6.00 Build 0)  -->
<!DOCTYPE svg PUBLIC "-//W3C//DTD SVG 1.1//EN" "http://www.w3.org/Graphics/SVG/1.1/DTD/svg11.dtd">
<svg version="1.1" xmlns="http://www.w3.org/2000/svg" xmlns:xlink="http://www.w3.org/1999/xlink" x="0px" y="0px"
	 width="2393.433px" height="600.313px" viewBox="0 0 2393.433 600.313" enable-background="new 0 0 2393.433 600.313"
	 xml:space="preserve">
<g id="Bikonvex">
	<g>
		<g>
			<path fill="#009FFF" stroke="#000000" stroke-width="2" stroke-miterlimit="10" d="M127.363,328.286
				c0,48.614,16.16,93.448,43.39,129.445c27.612-36.136,44.025-81.285,44.025-130.274c0-48.614-16.16-93.449-43.39-129.445
				C143.777,234.147,127.363,279.296,127.363,328.286z"/>
		</g>
	</g>
	<g>
		<path d="M54.479,527.5v-41.518h15.576c3.172,0,5.716,0.42,7.632,1.261c1.916,0.84,3.417,2.133,4.503,3.879
			c1.085,1.747,1.628,3.573,1.628,5.48c0,1.774-0.481,3.445-1.444,5.013s-2.417,2.832-4.361,3.795
			c2.511,0.736,4.441,1.992,5.792,3.767c1.35,1.774,2.025,3.87,2.025,6.287c0,1.944-0.411,3.752-1.232,5.424
			c-0.821,1.67-1.836,2.959-3.044,3.865c-1.208,0.906-2.724,1.591-4.545,2.053c-1.822,0.463-4.055,0.694-6.698,0.694H54.479z
			 M59.973,503.428h8.978c2.436,0,4.182-0.16,5.239-0.481c1.397-0.415,2.45-1.104,3.158-2.067s1.062-2.171,1.062-3.625
			c0-1.378-0.331-2.591-0.991-3.64c-0.661-1.047-1.605-1.765-2.832-2.152c-1.228-0.387-3.333-0.58-6.315-0.58h-8.298V503.428z
			 M59.973,522.601H70.31c1.774,0,3.021-0.066,3.738-0.198c1.265-0.227,2.322-0.604,3.172-1.133s1.548-1.298,2.096-2.308
			c0.547-1.011,0.821-2.177,0.821-3.498c0-1.548-0.396-2.894-1.189-4.035c-0.793-1.143-1.893-1.945-3.299-2.408
			c-1.407-0.462-3.432-0.693-6.075-0.693h-9.601V522.601z"/>
		<path d="M92.768,491.845v-5.862h5.098v5.862H92.768z M92.768,527.5v-30.076h5.098V527.5H92.768z"/>
		<path d="M105.654,527.5v-41.518h5.098v23.676l12.064-12.234h6.599l-11.498,11.158l12.659,18.918h-6.287l-9.94-15.378l-3.597,3.455
			V527.5H105.654z"/>
		<path d="M132.728,512.462c0-5.569,1.548-9.695,4.645-12.376c2.586-2.228,5.739-3.342,9.459-3.342
			c4.135,0,7.514,1.354,10.139,4.063c2.624,2.71,3.937,6.453,3.937,11.229c0,3.87-0.581,6.915-1.742,9.134
			c-1.161,2.218-2.851,3.94-5.069,5.168c-2.219,1.228-4.64,1.841-7.264,1.841c-4.21,0-7.614-1.35-10.209-4.05
			C134.026,521.43,132.728,517.541,132.728,512.462z M137.967,512.462c0,3.852,0.84,6.735,2.521,8.652
			c1.68,1.916,3.795,2.874,6.344,2.874c2.53,0,4.635-0.963,6.315-2.889c1.68-1.926,2.521-4.861,2.521-8.808
			c0-3.72-0.845-6.537-2.535-8.453c-1.69-1.917-3.791-2.875-6.301-2.875c-2.549,0-4.664,0.953-6.344,2.86
			C138.807,505.731,137.967,508.61,137.967,512.462z"/>
		<path d="M166.882,527.5v-30.076h4.588v4.276c2.209-3.304,5.399-4.956,9.572-4.956c1.813,0,3.479,0.325,4.999,0.978
			c1.52,0.65,2.657,1.505,3.413,2.563c0.755,1.058,1.284,2.313,1.586,3.767c0.188,0.944,0.283,2.596,0.283,4.956V527.5h-5.098
			v-18.295c0-2.077-0.198-3.63-0.595-4.659c-0.396-1.028-1.1-1.85-2.11-2.463c-1.01-0.614-2.195-0.921-3.554-0.921
			c-2.171,0-4.045,0.689-5.622,2.067c-1.577,1.378-2.365,3.993-2.365,7.845V527.5H166.882z"/>
		<path d="M207.494,527.5l-11.441-30.076h5.381l6.457,18.012c0.698,1.944,1.34,3.965,1.926,6.061
			c0.453-1.586,1.085-3.493,1.897-5.721l6.684-18.352h5.239L212.251,527.5H207.494z"/>
		<path d="M248.728,517.814l5.268,0.651c-0.831,3.077-2.37,5.466-4.616,7.165c-2.247,1.699-5.117,2.549-8.609,2.549
			c-4.399,0-7.887-1.354-10.464-4.063c-2.577-2.71-3.866-6.51-3.866-11.399c0-5.06,1.303-8.987,3.908-11.781
			s5.985-4.191,10.139-4.191c4.021,0,7.307,1.369,9.855,4.106s3.823,6.589,3.823,11.555c0,0.302-0.01,0.755-0.028,1.359h-22.43
			c0.188,3.304,1.123,5.834,2.804,7.59c1.68,1.756,3.776,2.634,6.287,2.634c1.869,0,3.464-0.491,4.786-1.473
			C246.906,521.534,247.954,519.967,248.728,517.814z M231.991,509.573h16.794c-0.227-2.53-0.869-4.428-1.926-5.692
			c-1.624-1.964-3.729-2.945-6.315-2.945c-2.341,0-4.31,0.783-5.905,2.351C233.043,504.854,232.161,506.949,231.991,509.573z"/>
		<path d="M256.998,527.5l10.988-15.633l-10.167-14.443h6.372l4.616,7.052c0.868,1.341,1.567,2.464,2.096,3.37
			c0.831-1.246,1.595-2.351,2.294-3.313l5.069-7.108h6.089l-10.394,14.16l11.187,15.916h-6.259l-6.174-9.346l-1.643-2.521
			l-7.901,11.866H256.998z"/>
	</g>
</g>
<g id="Plankonvex_1">
	<g>
		<g>
			<path fill="#009FFF" stroke="#000000" stroke-width="2" stroke-miterlimit="10" d="M475.433,198.95
				c-33.339,32.513-54.049,77.915-54.049,128.161s20.71,95.648,54.049,128.161V198.95z"/>
		</g>
	</g>
	<g>
		<path d="M378.979,527.5v-41.518h15.661c2.756,0,4.861,0.132,6.315,0.396c2.039,0.34,3.748,0.986,5.126,1.939
			c1.378,0.954,2.487,2.29,3.328,4.008c0.84,1.718,1.26,3.606,1.26,5.664c0,3.53-1.124,6.519-3.37,8.963
			c-2.247,2.445-6.306,3.668-12.178,3.668h-10.648V527.5H378.979z M384.474,505.722h10.733c3.549,0,6.07-0.661,7.562-1.982
			c1.491-1.321,2.237-3.182,2.237-5.579c0-1.737-0.439-3.224-1.317-4.461c-0.878-1.236-2.035-2.053-3.469-2.449
			c-0.925-0.245-2.634-0.368-5.126-0.368h-10.62V505.722z"/>
		<path d="M416.9,527.5v-41.518h5.098V527.5H416.9z"/>
		<path d="M449.525,523.79c-1.888,1.604-3.706,2.737-5.452,3.398c-1.747,0.661-3.621,0.991-5.622,0.991
			c-3.304,0-5.844-0.807-7.618-2.422c-1.775-1.613-2.662-3.677-2.662-6.188c0-1.473,0.335-2.818,1.005-4.035
			c0.67-1.219,1.548-2.195,2.634-2.932c1.085-0.736,2.308-1.293,3.667-1.671c1-0.265,2.511-0.52,4.531-0.765
			c4.116-0.491,7.146-1.076,9.091-1.756c0.019-0.698,0.028-1.143,0.028-1.331c0-2.077-0.481-3.54-1.444-4.39
			c-1.303-1.151-3.238-1.728-5.806-1.728c-2.398,0-4.168,0.42-5.31,1.261c-1.143,0.84-1.987,2.326-2.535,4.46l-4.984-0.68
			c0.453-2.134,1.199-3.856,2.237-5.169c1.038-1.312,2.539-2.322,4.503-3.029c1.963-0.709,4.238-1.063,6.825-1.063
			c2.567,0,4.654,0.302,6.259,0.906c1.604,0.604,2.785,1.364,3.54,2.279c0.755,0.916,1.284,2.072,1.586,3.47
			c0.17,0.868,0.255,2.436,0.255,4.701v6.797c0,4.739,0.108,7.736,0.326,8.991c0.217,1.256,0.646,2.46,1.289,3.611h-5.324
			C450.016,526.442,449.676,525.206,449.525,523.79z M449.101,512.405c-1.851,0.755-4.626,1.397-8.326,1.926
			c-2.096,0.302-3.578,0.642-4.446,1.02c-0.869,0.378-1.539,0.93-2.011,1.657c-0.472,0.727-0.708,1.533-0.708,2.421
			c0,1.359,0.514,2.492,1.543,3.398c1.029,0.906,2.535,1.359,4.517,1.359c1.963,0,3.71-0.43,5.239-1.288
			c1.529-0.859,2.652-2.035,3.37-3.526c0.547-1.151,0.821-2.851,0.821-5.098V512.405z"/>
		<path d="M462.156,527.5v-30.076h4.588v4.276c2.209-3.304,5.399-4.956,9.572-4.956c1.813,0,3.479,0.326,4.999,0.977
			c1.52,0.652,2.657,1.506,3.413,2.563c0.755,1.058,1.284,2.313,1.586,3.767c0.188,0.944,0.283,2.596,0.283,4.956V527.5h-5.098
			v-18.295c0-2.077-0.198-3.63-0.595-4.658c-0.396-1.029-1.1-1.851-2.11-2.465c-1.01-0.613-2.195-0.92-3.554-0.92
			c-2.171,0-4.045,0.689-5.622,2.067c-1.577,1.378-2.365,3.993-2.365,7.845V527.5H462.156z"/>
		<path d="M494.441,527.5v-41.518h5.098v23.676l12.064-12.234h6.599l-11.498,11.158l12.659,18.918h-6.287l-9.94-15.378l-3.597,3.455
			V527.5H494.441z"/>
		<path d="M521.516,512.462c0-5.569,1.548-9.695,4.645-12.376c2.586-2.228,5.739-3.342,9.459-3.342
			c4.135,0,7.514,1.354,10.139,4.064c2.624,2.709,3.937,6.452,3.937,11.229c0,3.87-0.581,6.915-1.742,9.133
			c-1.161,2.219-2.851,3.941-5.069,5.169c-2.219,1.228-4.64,1.841-7.264,1.841c-4.21,0-7.614-1.35-10.209-4.05
			C522.813,521.43,521.516,517.541,521.516,512.462z M526.755,512.462c0,3.852,0.84,6.735,2.521,8.651
			c1.68,1.917,3.795,2.875,6.344,2.875c2.53,0,4.635-0.963,6.315-2.889c1.68-1.926,2.521-4.861,2.521-8.808
			c0-3.72-0.845-6.537-2.535-8.454c-1.69-1.916-3.791-2.874-6.301-2.874c-2.549,0-4.664,0.953-6.344,2.86
			C527.595,505.731,526.755,508.61,526.755,512.462z"/>
		<path d="M555.67,527.5v-30.076h4.588v4.276c2.209-3.304,5.399-4.956,9.572-4.956c1.813,0,3.479,0.326,4.999,0.977
			c1.52,0.652,2.657,1.506,3.413,2.563c0.755,1.058,1.284,2.313,1.586,3.767c0.188,0.944,0.283,2.596,0.283,4.956V527.5h-5.098
			v-18.295c0-2.077-0.198-3.63-0.595-4.658c-0.396-1.029-1.1-1.851-2.11-2.465c-1.01-0.613-2.195-0.92-3.554-0.92
			c-2.171,0-4.045,0.689-5.622,2.067c-1.577,1.378-2.365,3.993-2.365,7.845V527.5H555.67z"/>
		<path d="M596.281,527.5l-11.441-30.076h5.381l6.457,18.012c0.698,1.944,1.34,3.965,1.926,6.061
			c0.453-1.586,1.085-3.493,1.897-5.721l6.684-18.352h5.239L601.039,527.5H596.281z"/>
		<path d="M637.516,517.814l5.268,0.651c-0.831,3.077-2.37,5.466-4.616,7.165c-2.247,1.699-5.117,2.549-8.609,2.549
			c-4.399,0-7.887-1.354-10.464-4.064c-2.577-2.709-3.866-6.509-3.866-11.398c0-5.06,1.303-8.987,3.908-11.781
			s5.985-4.191,10.139-4.191c4.021,0,7.307,1.369,9.855,4.106s3.823,6.589,3.823,11.555c0,0.302-0.01,0.755-0.028,1.359h-22.43
			c0.188,3.304,1.123,5.834,2.804,7.59c1.68,1.756,3.776,2.634,6.287,2.634c1.869,0,3.464-0.491,4.786-1.473
			C635.693,521.534,636.741,519.967,637.516,517.814z M620.778,509.573h16.794c-0.227-2.53-0.869-4.428-1.926-5.692
			c-1.624-1.964-3.729-2.945-6.315-2.945c-2.341,0-4.31,0.783-5.905,2.351C621.831,504.854,620.948,506.949,620.778,509.573z"/>
		<path d="M645.785,527.5l10.988-15.633l-10.167-14.443h6.372l4.616,7.052c0.868,1.341,1.567,2.464,2.096,3.37
			c0.831-1.246,1.595-2.351,2.294-3.313l5.069-7.108h6.089l-10.394,14.16l11.187,15.916h-6.259l-6.174-9.346l-1.643-2.521
			l-7.901,11.866H645.785z"/>
	</g>
</g>
<g id="Plankonvex_2">
	<g>
		<g>
			<path fill="#009FFF" stroke="#000000" stroke-width="2" stroke-miterlimit="10" d="M583.433,197.534v259.154
				c34.193-32.603,55.5-78.601,55.5-129.577S617.626,230.137,583.433,197.534z"/>
		</g>
	</g>
</g>
<g id="Konkavkonvex_1">
	<g>
		<g>
			<path fill="#009FFF" stroke="#000000" stroke-width="2" stroke-miterlimit="10" d="M895.433,327
				c0-46.848,8.057-91.813,22.855-133.589c-36.732,32.783-59.867,80.481-59.867,133.589c0,53.108,23.135,100.806,59.867,133.589
				C903.489,418.813,895.433,373.848,895.433,327z"/>
		</g>
	</g>
	<g>
		<rect x="309.877" y="535.777" fill="none" width="0.817" height="16.271"/>
	</g>
	<g>
		<path d="M761.438,527.5v-41.518h5.494v20.589l20.617-20.589h7.448l-17.417,16.822l18.182,24.695h-7.25l-14.783-21.014
			l-6.797,6.627V527.5H761.438z"/>
		<path d="M797.802,512.462c0-5.569,1.548-9.695,4.645-12.376c2.586-2.228,5.739-3.342,9.459-3.342
			c4.135,0,7.514,1.354,10.139,4.064c2.624,2.709,3.937,6.452,3.937,11.229c0,3.87-0.581,6.915-1.741,9.133
			c-1.162,2.219-2.852,3.941-5.07,5.169s-4.64,1.841-7.264,1.841c-4.211,0-7.613-1.35-10.209-4.05
			C799.1,521.43,797.802,517.541,797.802,512.462z M803.041,512.462c0,3.852,0.84,6.735,2.521,8.651
			c1.68,1.917,3.795,2.875,6.344,2.875c2.529,0,4.635-0.963,6.315-2.889s2.521-4.861,2.521-8.808c0-3.72-0.846-6.537-2.535-8.454
			c-1.689-1.916-3.79-2.874-6.301-2.874c-2.549,0-4.664,0.953-6.344,2.86C803.881,505.731,803.041,508.61,803.041,512.462z"/>
		<path d="M831.956,527.5v-30.076h4.588v4.276c2.209-3.304,5.399-4.956,9.572-4.956c1.813,0,3.479,0.326,4.998,0.977
			c1.52,0.652,2.658,1.506,3.413,2.563s1.284,2.313,1.586,3.767c0.188,0.944,0.283,2.596,0.283,4.956V527.5h-5.098v-18.295
			c0-2.077-0.198-3.63-0.595-4.658c-0.396-1.029-1.1-1.851-2.109-2.465c-1.011-0.613-2.195-0.92-3.555-0.92
			c-2.172,0-4.045,0.689-5.621,2.067c-1.577,1.378-2.365,3.993-2.365,7.845V527.5H831.956z"/>
		<path d="M864.241,527.5v-41.518h5.098v23.676l12.064-12.234h6.599l-11.498,11.158l12.659,18.918h-6.287l-9.94-15.378l-3.597,3.455
			V527.5H864.241z"/>
		<path d="M912.839,523.79c-1.888,1.604-3.705,2.737-5.452,3.398c-1.746,0.661-3.62,0.991-5.621,0.991
			c-3.304,0-5.844-0.807-7.618-2.422c-1.775-1.613-2.662-3.677-2.662-6.188c0-1.473,0.335-2.818,1.006-4.035
			c0.67-1.219,1.548-2.195,2.634-2.932c1.085-0.736,2.308-1.293,3.667-1.671c1.001-0.265,2.511-0.52,4.531-0.765
			c4.116-0.491,7.146-1.076,9.091-1.756c0.019-0.698,0.028-1.143,0.028-1.331c0-2.077-0.481-3.54-1.444-4.39
			c-1.303-1.151-3.238-1.728-5.806-1.728c-2.397,0-4.168,0.42-5.31,1.261c-1.143,0.84-1.987,2.326-2.535,4.46l-4.984-0.68
			c0.453-2.134,1.199-3.856,2.237-5.169c1.038-1.312,2.539-2.322,4.503-3.029c1.964-0.709,4.238-1.063,6.825-1.063
			c2.567,0,4.654,0.302,6.259,0.906s2.785,1.364,3.54,2.279c0.755,0.916,1.284,2.072,1.586,3.47c0.17,0.868,0.255,2.436,0.255,4.701
			v6.797c0,4.739,0.108,7.736,0.326,8.991c0.217,1.256,0.646,2.46,1.288,3.611h-5.324C913.33,526.442,912.99,525.206,912.839,523.79
			z M912.414,512.405c-1.851,0.755-4.626,1.397-8.326,1.926c-2.096,0.302-3.578,0.642-4.446,1.02s-1.539,0.93-2.011,1.657
			c-0.472,0.727-0.708,1.533-0.708,2.421c0,1.359,0.515,2.492,1.544,3.398c1.028,0.906,2.534,1.359,4.517,1.359
			c1.964,0,3.71-0.43,5.239-1.288c1.529-0.859,2.652-2.035,3.37-3.526c0.548-1.151,0.821-2.851,0.821-5.098V512.405z"/>
		<path d="M933.824,527.5l-11.441-30.076h5.381l6.457,18.012c0.698,1.944,1.341,3.965,1.926,6.061
			c0.453-1.586,1.086-3.493,1.897-5.721l6.684-18.352h5.239L938.582,527.5H933.824z"/>
		<path d="M954.498,527.5v-41.518h5.098v23.676l12.064-12.234h6.599l-11.498,11.158L979.42,527.5h-6.287l-9.94-15.378l-3.597,3.455
			V527.5H954.498z"/>
		<path d="M981.572,512.462c0-5.569,1.548-9.695,4.645-12.376c2.587-2.228,5.739-3.342,9.459-3.342
			c4.135,0,7.515,1.354,10.139,4.064c2.624,2.709,3.937,6.452,3.937,11.229c0,3.87-0.581,6.915-1.741,9.133
			c-1.162,2.219-2.852,3.941-5.07,5.169c-2.218,1.228-4.64,1.841-7.264,1.841c-4.21,0-7.613-1.35-10.209-4.05
			C982.87,521.43,981.572,517.541,981.572,512.462z M986.812,512.462c0,3.852,0.84,6.735,2.521,8.651
			c1.681,1.917,3.795,2.875,6.344,2.875c2.53,0,4.635-0.963,6.315-2.889s2.521-4.861,2.521-8.808c0-3.72-0.845-6.537-2.535-8.454
			c-1.689-1.916-3.79-2.874-6.301-2.874c-2.549,0-4.663,0.953-6.344,2.86S986.812,508.61,986.812,512.462z"/>
		<path d="M1015.727,527.5v-30.076h4.588v4.276c2.209-3.304,5.399-4.956,9.572-4.956c1.813,0,3.479,0.326,4.998,0.977
			c1.521,0.652,2.658,1.506,3.413,2.563s1.284,2.313,1.586,3.767c0.188,0.944,0.283,2.596,0.283,4.956V527.5h-5.098v-18.295
			c0-2.077-0.198-3.63-0.595-4.658c-0.396-1.029-1.1-1.851-2.109-2.465c-1.011-0.613-2.195-0.92-3.555-0.92
			c-2.171,0-4.045,0.689-5.621,2.067c-1.577,1.378-2.365,3.993-2.365,7.845V527.5H1015.727z"/>
		<path d="M1056.338,527.5l-11.441-30.076h5.381l6.457,18.012c0.698,1.944,1.341,3.965,1.926,6.061
			c0.453-1.586,1.086-3.493,1.897-5.721l6.684-18.352h5.239l-11.385,30.076H1056.338z"/>
		<path d="M1097.572,517.814l5.268,0.651c-0.831,3.077-2.369,5.466-4.616,7.165s-5.116,2.549-8.609,2.549
			c-4.399,0-7.888-1.354-10.464-4.064c-2.578-2.709-3.866-6.509-3.866-11.398c0-5.06,1.303-8.987,3.908-11.781
			s5.985-4.191,10.139-4.191c4.021,0,7.307,1.369,9.855,4.106s3.823,6.589,3.823,11.555c0,0.302-0.01,0.755-0.028,1.359h-22.43
			c0.188,3.304,1.123,5.834,2.804,7.59s3.776,2.634,6.287,2.634c1.869,0,3.465-0.491,4.786-1.473S1096.798,519.967,1097.572,517.814
			z M1080.835,509.573h16.794c-0.227-2.53-0.868-4.428-1.926-5.692c-1.624-1.964-3.729-2.945-6.315-2.945
			c-2.341,0-4.31,0.783-5.905,2.351C1081.888,504.854,1081.005,506.949,1080.835,509.573z"/>
		<path d="M1105.842,527.5l10.988-15.633l-10.167-14.443h6.372l4.616,7.052c0.868,1.341,1.567,2.464,2.096,3.37
			c0.831-1.246,1.596-2.351,2.294-3.313l5.069-7.108h6.089l-10.394,14.16l11.187,15.916h-6.259l-6.174-9.346l-1.643-2.521
			l-7.901,11.866H1105.842z"/>
	</g>
</g>
<g id="Konkavkonvex_2">
	<g>
		<g>
			<path fill="#009FFF" stroke="#000000" stroke-width="2" stroke-miterlimit="10" d="M985.565,193.411
				c14.799,41.776,22.855,86.742,22.855,133.589s-8.057,91.813-22.855,133.589c36.732-32.783,59.867-80.481,59.867-133.589
				C1045.433,273.892,1022.298,226.194,985.565,193.411z"/>
		</g>
	</g>
	<g>
		<path d="M428.91,64.341l5.183-0.453c0.245,2.077,0.816,3.781,1.713,5.112c0.897,1.331,2.29,2.407,4.178,3.229
			s4.012,1.232,6.372,1.232c2.096,0,3.946-0.312,5.551-0.935s2.799-1.477,3.583-2.563c0.783-1.085,1.175-2.27,1.175-3.554
			c0-1.303-0.378-2.44-1.133-3.413c-0.755-0.972-2.001-1.789-3.738-2.45c-1.114-0.434-3.578-1.109-7.392-2.025
			c-3.813-0.916-6.485-1.779-8.015-2.591c-1.982-1.038-3.46-2.327-4.433-3.866c-0.972-1.539-1.458-3.261-1.458-5.168
			c0-2.096,0.595-4.054,1.784-5.876c1.189-1.822,2.927-3.205,5.211-4.149c2.284-0.944,4.824-1.416,7.618-1.416
			c3.077,0,5.792,0.496,8.142,1.487c2.352,0.991,4.159,2.45,5.424,4.375s1.944,4.106,2.039,6.542l-5.268,0.396
			c-0.283-2.624-1.241-4.606-2.875-5.947c-1.633-1.34-4.045-2.011-7.235-2.011c-3.323,0-5.744,0.609-7.265,1.827
			c-1.52,1.218-2.279,2.686-2.279,4.404c0,1.492,0.538,2.719,1.614,3.682c1.058,0.963,3.818,1.95,8.284,2.959
			c4.465,1.01,7.528,1.893,9.189,2.648c2.417,1.114,4.201,2.525,5.353,4.234c1.151,1.709,1.728,3.677,1.728,5.905
			c0,2.209-0.633,4.291-1.897,6.245s-3.082,3.474-5.452,4.56c-2.369,1.085-5.036,1.628-8,1.628c-3.757,0-6.905-0.548-9.445-1.643
			c-2.539-1.095-4.531-2.742-5.975-4.942C429.745,69.604,428.985,67.116,428.91,64.341z"/>
		<path d="M488.439,73.97c-1.888,1.605-3.705,2.738-5.452,3.398c-1.746,0.661-3.62,0.991-5.621,0.991
			c-3.304,0-5.844-0.807-7.618-2.421s-2.662-3.677-2.662-6.188c0-1.473,0.335-2.818,1.005-4.036
			c0.671-1.218,1.549-2.195,2.635-2.931c1.085-0.736,2.308-1.293,3.667-1.671c1.001-0.264,2.511-0.519,4.531-0.765
			c4.116-0.491,7.146-1.076,9.091-1.756c0.019-0.698,0.028-1.142,0.028-1.331c0-2.077-0.481-3.54-1.444-4.39
			c-1.303-1.151-3.238-1.728-5.806-1.728c-2.397,0-4.168,0.42-5.31,1.26c-1.143,0.84-1.987,2.327-2.535,4.46l-4.984-0.68
			c0.453-2.133,1.199-3.856,2.237-5.168c1.038-1.312,2.539-2.322,4.503-3.03s4.238-1.062,6.825-1.062
			c2.567,0,4.654,0.302,6.259,0.906c1.604,0.604,2.785,1.364,3.54,2.28c0.755,0.916,1.284,2.072,1.586,3.469
			c0.17,0.869,0.255,2.436,0.255,4.701v6.797c0,4.739,0.108,7.736,0.326,8.992c0.217,1.256,0.646,2.459,1.288,3.611h-5.324
			C488.931,76.623,488.591,75.386,488.439,73.97z M488.015,62.585c-1.851,0.755-4.626,1.397-8.326,1.926
			c-2.096,0.302-3.578,0.642-4.446,1.02c-0.868,0.378-1.539,0.93-2.011,1.657c-0.472,0.727-0.708,1.534-0.708,2.421
			c0,1.359,0.515,2.492,1.544,3.398c1.028,0.906,2.534,1.359,4.517,1.359c1.964,0,3.71-0.429,5.239-1.289
			c1.529-0.859,2.652-2.034,3.37-3.526c0.548-1.151,0.821-2.851,0.821-5.098V62.585z"/>
		<path d="M501.07,77.68V47.604h4.56v4.22c0.944-1.473,2.199-2.657,3.767-3.554c1.567-0.896,3.352-1.345,5.353-1.345
			c2.228,0,4.055,0.463,5.48,1.388c1.425,0.925,2.431,2.219,3.016,3.88c2.379-3.512,5.476-5.268,9.289-5.268
			c2.983,0,5.277,0.826,6.882,2.478c1.604,1.652,2.407,4.196,2.407,7.632V77.68h-5.069V58.733c0-2.039-0.165-3.507-0.495-4.404
			c-0.331-0.896-0.931-1.619-1.799-2.167c-0.868-0.547-1.888-0.821-3.059-0.821c-2.114,0-3.87,0.704-5.268,2.11
			c-1.397,1.407-2.096,3.658-2.096,6.754V77.68h-5.098V58.139c0-2.266-0.415-3.965-1.246-5.098s-2.19-1.699-4.078-1.699
			c-1.435,0-2.762,0.378-3.979,1.133c-1.219,0.755-2.101,1.86-2.648,3.313c-0.548,1.454-0.821,3.55-0.821,6.287V77.68H501.07z"/>
		<path d="M549.385,77.68V47.604h4.56v4.22c0.944-1.473,2.199-2.657,3.767-3.554c1.567-0.896,3.352-1.345,5.353-1.345
			c2.228,0,4.055,0.463,5.48,1.388c1.425,0.925,2.431,2.219,3.016,3.88c2.379-3.512,5.476-5.268,9.289-5.268
			c2.983,0,5.277,0.826,6.882,2.478c1.604,1.652,2.407,4.196,2.407,7.632V77.68h-5.069V58.733c0-2.039-0.165-3.507-0.495-4.404
			c-0.331-0.896-0.931-1.619-1.799-2.167c-0.868-0.547-1.888-0.821-3.059-0.821c-2.114,0-3.87,0.704-5.268,2.11
			c-1.397,1.407-2.096,3.658-2.096,6.754V77.68h-5.098V58.139c0-2.266-0.415-3.965-1.246-5.098s-2.19-1.699-4.078-1.699
			c-1.435,0-2.762,0.378-3.979,1.133c-1.219,0.755-2.101,1.86-2.648,3.313c-0.548,1.454-0.821,3.55-0.821,6.287V77.68H549.385z"/>
		<path d="M618.288,67.994l5.268,0.651c-0.831,3.078-2.369,5.466-4.616,7.165s-5.116,2.549-8.609,2.549
			c-4.399,0-7.888-1.354-10.464-4.064C597.288,71.586,596,67.787,596,62.896c0-5.06,1.303-8.987,3.908-11.781
			c2.605-2.794,5.985-4.191,10.139-4.191c4.021,0,7.307,1.369,9.855,4.106c2.549,2.738,3.823,6.589,3.823,11.555
			c0,0.302-0.01,0.755-0.028,1.359h-22.43c0.188,3.304,1.123,5.834,2.804,7.59s3.776,2.634,6.287,2.634
			c1.869,0,3.465-0.491,4.786-1.473C616.466,71.714,617.514,70.146,618.288,67.994z M601.551,59.753h16.794
			c-0.227-2.53-0.868-4.427-1.926-5.692c-1.624-1.963-3.729-2.945-6.315-2.945c-2.341,0-4.31,0.784-5.905,2.351
			C602.604,55.033,601.721,57.129,601.551,59.753z"/>
		<path d="M629.843,77.68V36.162h5.098V77.68H629.843z"/>
		<path d="M642.729,77.68V36.162h5.098V77.68H642.729z"/>
		<path d="M655.756,42.024v-5.862h5.098v5.862H655.756z M655.756,77.68V47.604h5.098V77.68H655.756z"/>
		<path d="M668.613,77.68V47.604h4.588v4.276c2.209-3.304,5.399-4.956,9.572-4.956c1.813,0,3.479,0.326,4.999,0.977
			c1.52,0.651,2.657,1.506,3.412,2.563c0.755,1.058,1.284,2.313,1.586,3.767c0.188,0.944,0.283,2.596,0.283,4.956V77.68h-5.098
			V59.385c0-2.077-0.198-3.629-0.595-4.659c-0.396-1.029-1.1-1.85-2.11-2.464c-1.01-0.613-2.194-0.92-3.554-0.92
			c-2.171,0-4.045,0.689-5.622,2.067c-1.576,1.378-2.364,3.993-2.364,7.845V77.68H668.613z"/>
		<path d="M698.831,68.702l5.041-0.793c0.283,2.021,1.071,3.568,2.365,4.645c1.293,1.076,3.101,1.614,5.423,1.614
			c2.341,0,4.078-0.477,5.211-1.43c1.133-0.953,1.699-2.072,1.699-3.356c0-1.151-0.5-2.058-1.501-2.719
			c-0.698-0.453-2.436-1.029-5.211-1.728c-3.738-0.944-6.33-1.76-7.773-2.45c-1.445-0.689-2.54-1.643-3.285-2.86
			c-0.746-1.218-1.119-2.563-1.119-4.036c0-1.34,0.307-2.582,0.92-3.724c0.614-1.142,1.449-2.091,2.507-2.846
			c0.793-0.585,1.874-1.081,3.243-1.487c1.368-0.406,2.836-0.609,4.403-0.609c2.36,0,4.433,0.34,6.216,1.02
			c1.785,0.68,3.102,1.6,3.951,2.761s1.435,2.714,1.756,4.659l-4.984,0.68c-0.227-1.548-0.883-2.756-1.969-3.625
			c-1.085-0.868-2.619-1.303-4.602-1.303c-2.341,0-4.012,0.387-5.013,1.161c-1.001,0.774-1.501,1.681-1.501,2.719
			c0,0.661,0.208,1.256,0.623,1.784c0.415,0.548,1.066,1.001,1.954,1.359c0.51,0.189,2.011,0.623,4.503,1.303
			c3.606,0.963,6.122,1.751,7.547,2.365c1.426,0.614,2.545,1.506,3.356,2.676c0.812,1.171,1.218,2.625,1.218,4.361
			c0,1.699-0.496,3.299-1.486,4.8c-0.992,1.501-2.422,2.662-4.291,3.483s-3.983,1.232-6.344,1.232c-3.908,0-6.887-0.812-8.936-2.436
			C700.705,74.3,699.397,71.893,698.831,68.702z"/>
		<path d="M750.459,67.994l5.268,0.651c-0.831,3.078-2.369,5.466-4.616,7.165s-5.116,2.549-8.609,2.549
			c-4.399,0-7.887-1.354-10.465-4.064c-2.576-2.709-3.865-6.509-3.865-11.399c0-5.06,1.303-8.987,3.908-11.781
			c2.605-2.794,5.985-4.191,10.139-4.191c4.021,0,7.307,1.369,9.855,4.106c2.549,2.738,3.823,6.589,3.823,11.555
			c0,0.302-0.01,0.755-0.028,1.359h-22.43c0.188,3.304,1.123,5.834,2.804,7.59s3.776,2.634,6.287,2.634
			c1.869,0,3.465-0.491,4.786-1.473C748.637,71.714,749.685,70.146,750.459,67.994z M733.722,59.753h16.794
			c-0.227-2.53-0.868-4.427-1.926-5.692c-1.624-1.963-3.729-2.945-6.315-2.945c-2.341,0-4.31,0.784-5.904,2.351
			C734.774,55.033,733.892,57.129,733.722,59.753z"/>
		<path d="M762.127,77.68V47.604h4.588v4.276c2.209-3.304,5.399-4.956,9.572-4.956c1.813,0,3.479,0.326,4.999,0.977
			c1.52,0.651,2.657,1.506,3.412,2.563c0.755,1.058,1.284,2.313,1.586,3.767c0.188,0.944,0.283,2.596,0.283,4.956V77.68h-5.098
			V59.385c0-2.077-0.198-3.629-0.595-4.659c-0.396-1.029-1.1-1.85-2.11-2.464c-1.01-0.613-2.194-0.92-3.554-0.92
			c-2.171,0-4.045,0.689-5.622,2.067c-1.576,1.378-2.364,3.993-2.364,7.845V77.68H762.127z"/>
	</g>
	<g>
		<g>
			
				<line fill="none" stroke="#000000" stroke-width="5" stroke-linecap="square" stroke-linejoin="round" x1="91.433" y1="116.5" x2="1141.433" y2="116.5"/>
			<g>
				<rect x="88.433" y="100" width="5" height="32"/>
			</g>
			<g>
				<rect x="1138.433" y="100" width="5" height="32"/>
			</g>
		</g>
	</g>
</g>
<g id="Bikonkav">
	<g>
		<g>
			<path fill="#009FFF" stroke="#000000" stroke-miterlimit="10" d="M1414.933,194.5h-90v5.67
				c25.315,35.718,40.197,79.352,40.197,126.462c0,47.111-14.882,90.745-40.197,126.463v5.404h90v-5.536
				c-25.259-35.694-40.105-79.277-40.105-126.331c0-47.053,14.847-90.637,40.105-126.331V194.5z"/>
		</g>
	</g>
</g>
<g id="Plankonkav_1">
	<g>
		<g>
			<path fill="#009FFF" stroke="#000000" stroke-width="2" stroke-miterlimit="10" d="M1647.223,326.938
				c0-58.54,19.41-112.542,52.134-155.938h-71.924v312h72.019C1666.671,439.582,1647.223,385.534,1647.223,326.938z"/>
		</g>
	</g>
	<g>
		<path d="M1254.51,529.493v-41.518h15.576c3.172,0,5.716,0.42,7.632,1.261c1.916,0.84,3.418,2.133,4.504,3.879
			c1.085,1.747,1.628,3.573,1.628,5.48c0,1.774-0.481,3.445-1.444,5.013s-2.417,2.832-4.361,3.795
			c2.511,0.736,4.441,1.992,5.791,3.767s2.025,3.87,2.025,6.287c0,1.944-0.41,3.752-1.232,5.424c-0.82,1.67-1.836,2.959-3.044,3.865
			s-2.724,1.591-4.546,2.053c-1.822,0.463-4.055,0.694-6.697,0.694H1254.51z M1260.004,505.421h8.978
			c2.436,0,4.182-0.16,5.239-0.481c1.397-0.415,2.45-1.104,3.157-2.067c0.709-0.963,1.063-2.171,1.063-3.625
			c0-1.378-0.33-2.591-0.991-3.64c-0.661-1.047-1.604-1.765-2.832-2.152c-1.228-0.387-3.333-0.58-6.315-0.58h-8.298V505.421z
			 M1260.004,524.594h10.337c1.774,0,3.021-0.066,3.738-0.198c1.265-0.227,2.322-0.604,3.172-1.133s1.548-1.298,2.096-2.308
			c0.547-1.011,0.821-2.177,0.821-3.498c0-1.548-0.396-2.894-1.189-4.035c-0.793-1.143-1.894-1.945-3.3-2.408
			c-1.406-0.462-3.432-0.693-6.074-0.693h-9.601V524.594z"/>
		<path d="M1292.799,493.838v-5.862h5.098v5.862H1292.799z M1292.799,529.493v-30.076h5.098v30.076H1292.799z"/>
		<path d="M1305.685,529.493v-41.518h5.098v23.676l12.064-12.234h6.599l-11.498,11.158l12.659,18.918h-6.287l-9.94-15.378
			l-3.597,3.455v11.923H1305.685z"/>
		<path d="M1332.759,514.455c0-5.569,1.548-9.695,4.645-12.376c2.586-2.228,5.739-3.342,9.459-3.342
			c4.135,0,7.514,1.354,10.139,4.063c2.624,2.71,3.937,6.453,3.937,11.229c0,3.87-0.581,6.915-1.741,9.134
			c-1.162,2.218-2.852,3.94-5.07,5.168s-4.64,1.841-7.264,1.841c-4.211,0-7.613-1.35-10.209-4.05
			C1334.057,523.423,1332.759,519.534,1332.759,514.455z M1337.998,514.455c0,3.852,0.84,6.735,2.521,8.652
			c1.68,1.916,3.795,2.874,6.344,2.874c2.529,0,4.635-0.963,6.315-2.889s2.521-4.861,2.521-8.808c0-3.72-0.846-6.537-2.535-8.453
			c-1.689-1.917-3.79-2.875-6.301-2.875c-2.549,0-4.664,0.953-6.344,2.86C1338.838,507.725,1337.998,510.604,1337.998,514.455z"/>
		<path d="M1366.913,529.493v-30.076h4.588v4.276c2.209-3.304,5.399-4.956,9.572-4.956c1.813,0,3.479,0.325,4.998,0.978
			c1.52,0.65,2.658,1.505,3.413,2.563s1.284,2.313,1.586,3.767c0.188,0.944,0.283,2.596,0.283,4.956v18.493h-5.098v-18.295
			c0-2.077-0.198-3.63-0.595-4.659c-0.396-1.028-1.1-1.85-2.109-2.463c-1.011-0.614-2.195-0.921-3.555-0.921
			c-2.172,0-4.045,0.689-5.621,2.067c-1.577,1.378-2.365,3.993-2.365,7.845v16.426H1366.913z"/>
		<path d="M1399.198,529.493v-41.518h5.098v23.676l12.064-12.234h6.599l-11.498,11.158l12.659,18.918h-6.287l-9.94-15.378
			l-3.597,3.455v11.923H1399.198z"/>
		<path d="M1447.796,525.783c-1.889,1.604-3.705,2.737-5.451,3.398c-1.747,0.661-3.621,0.991-5.622,0.991
			c-3.304,0-5.844-0.808-7.618-2.421c-1.775-1.615-2.662-3.678-2.662-6.188c0-1.473,0.335-2.817,1.006-4.036
			c0.67-1.217,1.547-2.194,2.633-2.931s2.309-1.293,3.668-1.671c1-0.265,2.511-0.52,4.531-0.765
			c4.115-0.491,7.146-1.076,9.091-1.756c0.019-0.698,0.028-1.143,0.028-1.331c0-2.077-0.481-3.54-1.444-4.39
			c-1.303-1.151-3.238-1.728-5.806-1.728c-2.398,0-4.168,0.42-5.311,1.26c-1.143,0.841-1.986,2.327-2.534,4.461l-4.984-0.68
			c0.453-2.134,1.198-3.856,2.237-5.168c1.038-1.313,2.539-2.322,4.503-3.031c1.964-0.707,4.238-1.062,6.825-1.062
			c2.567,0,4.654,0.302,6.259,0.906s2.784,1.364,3.54,2.28c0.755,0.915,1.283,2.071,1.586,3.469c0.17,0.868,0.255,2.436,0.255,4.701
			v6.797c0,4.739,0.108,7.736,0.325,8.992c0.217,1.255,0.646,2.459,1.289,3.61h-5.324
			C1448.286,528.436,1447.946,527.199,1447.796,525.783z M1447.371,514.398c-1.851,0.755-4.626,1.397-8.326,1.926
			c-2.096,0.302-3.578,0.642-4.446,1.02c-0.869,0.378-1.539,0.93-2.011,1.656c-0.472,0.728-0.708,1.534-0.708,2.422
			c0,1.359,0.514,2.492,1.543,3.398s2.535,1.359,4.518,1.359c1.963,0,3.71-0.43,5.239-1.289c1.529-0.858,2.652-2.034,3.37-3.525
			c0.547-1.151,0.821-2.851,0.821-5.098V514.398z"/>
		<path d="M1468.781,529.493l-11.441-30.076h5.381l6.457,18.012c0.698,1.944,1.341,3.965,1.926,6.061
			c0.453-1.586,1.085-3.493,1.897-5.721l6.684-18.352h5.239l-11.385,30.076H1468.781z"/>
	</g>
</g>
<g id="Plankonkav_2">
	<g>
		<g>
			<path fill="#009FFF" stroke="#000000" stroke-width="2" stroke-miterlimit="10" d="M1783.817,171
				c32.724,43.397,52.134,97.399,52.134,155.938c0,58.595-19.448,112.644-52.229,156.062h71.71V171H1783.817z"/>
		</g>
	</g>
	<g>
		<path d="M1603.979,540.604v-41.518h15.661c2.757,0,4.861,0.132,6.315,0.396c2.039,0.34,3.748,0.986,5.126,1.939
			c1.378,0.954,2.487,2.29,3.327,4.008s1.261,3.606,1.261,5.664c0,3.53-1.124,6.519-3.37,8.963
			c-2.247,2.445-6.307,3.668-12.178,3.668h-10.648v16.879H1603.979z M1609.474,518.825h10.733c3.55,0,6.069-0.661,7.562-1.982
			c1.491-1.321,2.237-3.182,2.237-5.579c0-1.737-0.438-3.224-1.317-4.461c-0.877-1.236-2.034-2.053-3.469-2.449
			c-0.926-0.245-2.634-0.368-5.126-0.368h-10.62V518.825z"/>
		<path d="M1641.9,540.604v-41.518h5.098v41.518H1641.9z"/>
		<path d="M1674.525,536.894c-1.888,1.604-3.706,2.737-5.452,3.398s-3.62,0.991-5.621,0.991c-3.305,0-5.844-0.807-7.618-2.422
			c-1.774-1.613-2.662-3.677-2.662-6.188c0-1.473,0.335-2.818,1.005-4.035c0.67-1.219,1.549-2.195,2.635-2.932
			c1.085-0.736,2.308-1.293,3.667-1.671c1.001-0.265,2.511-0.52,4.531-0.765c4.116-0.491,7.146-1.076,9.091-1.756
			c0.019-0.698,0.028-1.143,0.028-1.331c0-2.077-0.481-3.54-1.444-4.39c-1.303-1.151-3.238-1.728-5.806-1.728
			c-2.397,0-4.168,0.42-5.31,1.261c-1.143,0.84-1.988,2.326-2.535,4.46l-4.984-0.68c0.453-2.134,1.199-3.856,2.237-5.169
			c1.038-1.312,2.539-2.322,4.503-3.029c1.963-0.709,4.238-1.063,6.825-1.063c2.567,0,4.653,0.302,6.259,0.906
			c1.604,0.604,2.785,1.364,3.54,2.279c0.755,0.916,1.284,2.072,1.586,3.47c0.17,0.868,0.255,2.436,0.255,4.701v6.797
			c0,4.739,0.108,7.736,0.326,8.991c0.217,1.256,0.646,2.46,1.288,3.611h-5.324C1675.017,539.546,1674.677,538.31,1674.525,536.894z
			 M1674.101,525.509c-1.851,0.755-4.626,1.397-8.326,1.926c-2.096,0.302-3.578,0.642-4.446,1.02s-1.539,0.93-2.011,1.657
			c-0.473,0.727-0.708,1.533-0.708,2.421c0,1.359,0.515,2.492,1.544,3.398c1.028,0.906,2.534,1.359,4.517,1.359
			c1.964,0,3.71-0.43,5.239-1.288c1.529-0.859,2.652-2.035,3.37-3.526c0.548-1.151,0.821-2.851,0.821-5.098V525.509z"/>
		<path d="M1687.156,540.604v-30.076h4.588v4.276c2.209-3.304,5.399-4.956,9.572-4.956c1.813,0,3.479,0.326,4.999,0.977
			c1.52,0.652,2.656,1.506,3.412,2.563c0.755,1.058,1.283,2.313,1.586,3.767c0.188,0.944,0.283,2.596,0.283,4.956v18.493h-5.098
			v-18.295c0-2.077-0.198-3.63-0.595-4.658c-0.396-1.029-1.101-1.851-2.11-2.465c-1.01-0.613-2.194-0.92-3.554-0.92
			c-2.171,0-4.046,0.689-5.622,2.067s-2.364,3.993-2.364,7.845v16.426H1687.156z"/>
		<path d="M1719.441,540.604v-41.518h5.098v23.676l12.064-12.234h6.599l-11.498,11.158l12.659,18.918h-6.287l-9.94-15.378
			l-3.597,3.455v11.923H1719.441z"/>
		<path d="M1746.516,525.565c0-5.569,1.548-9.695,4.645-12.376c2.587-2.228,5.739-3.342,9.459-3.342
			c4.135,0,7.515,1.354,10.139,4.064c2.624,2.709,3.937,6.452,3.937,11.229c0,3.87-0.58,6.915-1.742,9.133
			c-1.16,2.219-2.851,3.941-5.068,5.169c-2.219,1.228-4.641,1.841-7.265,1.841c-4.21,0-7.614-1.35-10.21-4.05
			S1746.516,530.645,1746.516,525.565z M1751.755,525.565c0,3.852,0.84,6.735,2.521,8.651c1.681,1.917,3.795,2.875,6.344,2.875
			c2.53,0,4.635-0.963,6.315-2.889c1.68-1.926,2.521-4.861,2.521-8.808c0-3.72-0.845-6.537-2.534-8.454
			c-1.69-1.916-3.791-2.874-6.302-2.874c-2.549,0-4.663,0.953-6.344,2.86S1751.755,521.714,1751.755,525.565z"/>
		<path d="M1780.67,540.604v-30.076h4.588v4.276c2.209-3.304,5.399-4.956,9.572-4.956c1.813,0,3.479,0.326,4.999,0.977
			c1.52,0.652,2.656,1.506,3.412,2.563c0.755,1.058,1.283,2.313,1.586,3.767c0.188,0.944,0.283,2.596,0.283,4.956v18.493h-5.098
			v-18.295c0-2.077-0.198-3.63-0.595-4.658c-0.396-1.029-1.101-1.851-2.11-2.465c-1.01-0.613-2.194-0.92-3.554-0.92
			c-2.171,0-4.046,0.689-5.622,2.067s-2.364,3.993-2.364,7.845v16.426H1780.67z"/>
		<path d="M1812.955,540.604v-41.518h5.098v23.676l12.064-12.234h6.599l-11.498,11.158l12.659,18.918h-6.287l-9.94-15.378
			l-3.597,3.455v11.923H1812.955z"/>
		<path d="M1861.553,536.894c-1.888,1.604-3.706,2.737-5.452,3.398s-3.62,0.991-5.621,0.991c-3.305,0-5.844-0.807-7.618-2.422
			c-1.774-1.613-2.662-3.677-2.662-6.188c0-1.473,0.335-2.818,1.005-4.035c0.67-1.219,1.549-2.195,2.635-2.932
			c1.085-0.736,2.308-1.293,3.667-1.671c1.001-0.265,2.511-0.52,4.531-0.765c4.116-0.491,7.146-1.076,9.091-1.756
			c0.019-0.698,0.028-1.143,0.028-1.331c0-2.077-0.481-3.54-1.444-4.39c-1.303-1.151-3.238-1.728-5.806-1.728
			c-2.397,0-4.168,0.42-5.31,1.261c-1.143,0.84-1.988,2.326-2.535,4.46l-4.984-0.68c0.453-2.134,1.199-3.856,2.237-5.169
			c1.038-1.312,2.539-2.322,4.503-3.029c1.963-0.709,4.238-1.063,6.825-1.063c2.567,0,4.653,0.302,6.259,0.906
			c1.604,0.604,2.785,1.364,3.54,2.279c0.755,0.916,1.284,2.072,1.586,3.47c0.17,0.868,0.255,2.436,0.255,4.701v6.797
			c0,4.739,0.108,7.736,0.326,8.991c0.217,1.256,0.646,2.46,1.288,3.611h-5.324C1862.044,539.546,1861.704,538.31,1861.553,536.894z
			 M1861.128,525.509c-1.851,0.755-4.626,1.397-8.326,1.926c-2.096,0.302-3.578,0.642-4.446,1.02s-1.539,0.93-2.011,1.657
			c-0.473,0.727-0.708,1.533-0.708,2.421c0,1.359,0.515,2.492,1.544,3.398c1.028,0.906,2.534,1.359,4.517,1.359
			c1.964,0,3.71-0.43,5.239-1.288c1.529-0.859,2.652-2.035,3.37-3.526c0.548-1.151,0.821-2.851,0.821-5.098V525.509z"/>
		<path d="M1882.538,540.604l-11.441-30.076h5.381l6.457,18.012c0.698,1.944,1.34,3.965,1.926,6.061
			c0.453-1.586,1.086-3.493,1.897-5.721l6.684-18.352h5.239l-11.385,30.076H1882.538z"/>
	</g>
</g>
<g id="Konvexkonkav_1">
	<g>
		<g>
			<path fill="#009FFF" stroke="#000000" stroke-width="2" stroke-miterlimit="10" d="M2078.956,475h51.495
				c-32.78-43.418-52.229-97.466-52.229-156.062c0-58.54,19.41-112.542,52.134-155.938h-47.106
				c-16.017,51.588-24.645,106.428-24.645,163.283C2058.605,377.819,2065.702,427.697,2078.956,475z"/>
		</g>
	</g>
	<g>
		<path d="M1973.673,540.604v-41.518h5.494v20.589l20.617-20.589h7.448l-17.417,16.822l18.182,24.695h-7.25l-14.783-21.014
			l-6.797,6.627v14.387H1973.673z"/>
		<path d="M2010.036,525.565c0-5.569,1.548-9.695,4.645-12.376c2.586-2.228,5.739-3.342,9.459-3.342
			c4.135,0,7.514,1.354,10.139,4.064c2.624,2.709,3.937,6.452,3.937,11.229c0,3.87-0.581,6.915-1.741,9.133
			c-1.162,2.219-2.852,3.941-5.07,5.169s-4.64,1.841-7.264,1.841c-4.211,0-7.613-1.35-10.209-4.05
			C2011.334,534.533,2010.036,530.645,2010.036,525.565z M2015.275,525.565c0,3.852,0.84,6.735,2.521,8.651
			c1.68,1.917,3.795,2.875,6.344,2.875c2.529,0,4.635-0.963,6.315-2.889s2.521-4.861,2.521-8.808c0-3.72-0.846-6.537-2.535-8.454
			c-1.689-1.916-3.79-2.874-6.301-2.874c-2.549,0-4.664,0.953-6.344,2.86C2016.115,518.835,2015.275,521.714,2015.275,525.565z"/>
		<path d="M2044.19,540.604v-30.076h4.588v4.276c2.209-3.304,5.399-4.956,9.572-4.956c1.813,0,3.479,0.326,4.998,0.977
			c1.52,0.652,2.658,1.506,3.413,2.563s1.284,2.313,1.586,3.767c0.188,0.944,0.283,2.596,0.283,4.956v18.493h-5.098v-18.295
			c0-2.077-0.198-3.63-0.595-4.658c-0.396-1.029-1.1-1.851-2.109-2.465c-1.011-0.613-2.195-0.92-3.555-0.92
			c-2.172,0-4.045,0.689-5.621,2.067c-1.577,1.378-2.365,3.993-2.365,7.845v16.426H2044.19z"/>
		<path d="M2084.802,540.604l-11.441-30.076h5.381l6.457,18.012c0.698,1.944,1.34,3.965,1.926,6.061
			c0.453-1.586,1.086-3.493,1.897-5.721l6.684-18.352h5.239l-11.385,30.076H2084.802z"/>
		<path d="M2126.036,530.918l5.268,0.651c-0.831,3.077-2.369,5.466-4.616,7.165s-5.116,2.549-8.609,2.549
			c-4.399,0-7.888-1.354-10.464-4.064c-2.578-2.709-3.866-6.509-3.866-11.398c0-5.06,1.303-8.987,3.908-11.781
			s5.985-4.191,10.139-4.191c4.021,0,7.307,1.369,9.855,4.106s3.823,6.589,3.823,11.555c0,0.302-0.01,0.755-0.028,1.359h-22.43
			c0.188,3.304,1.123,5.834,2.804,7.59c1.68,1.756,3.775,2.634,6.287,2.634c1.869,0,3.465-0.491,4.786-1.473
			S2125.262,533.07,2126.036,530.918z M2109.299,522.677h16.794c-0.227-2.53-0.869-4.428-1.926-5.692
			c-1.624-1.964-3.729-2.945-6.315-2.945c-2.341,0-4.31,0.783-5.905,2.351S2109.469,520.053,2109.299,522.677z"/>
		<path d="M2134.306,540.604l10.988-15.633l-10.167-14.443h6.372l4.616,7.052c0.868,1.341,1.567,2.464,2.096,3.37
			c0.831-1.246,1.596-2.351,2.294-3.313l5.069-7.108h6.089l-10.394,14.16l11.187,15.916h-6.259l-6.174-9.346l-1.643-2.521
			l-7.901,11.866H2134.306z"/>
		<path d="M2166.732,540.604v-41.518h5.098v23.676l12.064-12.234h6.599l-11.498,11.158l12.659,18.918h-6.287l-9.94-15.378
			l-3.597,3.455v11.923H2166.732z"/>
		<path d="M2193.807,525.565c0-5.569,1.548-9.695,4.645-12.376c2.587-2.228,5.739-3.342,9.459-3.342
			c4.135,0,7.515,1.354,10.139,4.064c2.624,2.709,3.937,6.452,3.937,11.229c0,3.87-0.581,6.915-1.741,9.133
			c-1.162,2.219-2.852,3.941-5.07,5.169c-2.218,1.228-4.64,1.841-7.264,1.841c-4.21,0-7.613-1.35-10.209-4.05
			C2195.104,534.533,2193.807,530.645,2193.807,525.565z M2199.046,525.565c0,3.852,0.84,6.735,2.521,8.651
			c1.681,1.917,3.795,2.875,6.344,2.875c2.53,0,4.635-0.963,6.315-2.889s2.521-4.861,2.521-8.808c0-3.72-0.845-6.537-2.535-8.454
			c-1.689-1.916-3.79-2.874-6.301-2.874c-2.549,0-4.663,0.953-6.344,2.86S2199.046,521.714,2199.046,525.565z"/>
		<path d="M2227.961,540.604v-30.076h4.588v4.276c2.209-3.304,5.399-4.956,9.572-4.956c1.813,0,3.479,0.326,4.998,0.977
			c1.521,0.652,2.658,1.506,3.413,2.563s1.284,2.313,1.586,3.767c0.188,0.944,0.283,2.596,0.283,4.956v18.493h-5.098v-18.295
			c0-2.077-0.198-3.63-0.595-4.658c-0.396-1.029-1.1-1.851-2.109-2.465c-1.011-0.613-2.195-0.92-3.555-0.92
			c-2.171,0-4.045,0.689-5.621,2.067c-1.577,1.378-2.365,3.993-2.365,7.845v16.426H2227.961z"/>
		<path d="M2260.246,540.604v-41.518h5.098v23.676l12.064-12.234h6.599l-11.498,11.158l12.659,18.918h-6.287l-9.94-15.378
			l-3.597,3.455v11.923H2260.246z"/>
		<path d="M2308.844,536.894c-1.888,1.604-3.705,2.737-5.451,3.398c-1.747,0.661-3.621,0.991-5.622,0.991
			c-3.304,0-5.844-0.807-7.618-2.422c-1.774-1.613-2.662-3.677-2.662-6.188c0-1.473,0.335-2.818,1.006-4.035
			c0.67-1.219,1.548-2.195,2.633-2.932c1.086-0.736,2.309-1.293,3.668-1.671c1.001-0.265,2.511-0.52,4.531-0.765
			c4.116-0.491,7.146-1.076,9.091-1.756c0.019-0.698,0.028-1.143,0.028-1.331c0-2.077-0.481-3.54-1.444-4.39
			c-1.303-1.151-3.238-1.728-5.806-1.728c-2.397,0-4.168,0.42-5.311,1.261c-1.142,0.84-1.986,2.326-2.534,4.46l-4.984-0.68
			c0.453-2.134,1.199-3.856,2.237-5.169c1.038-1.312,2.539-2.322,4.503-3.029c1.964-0.709,4.238-1.063,6.825-1.063
			c2.567,0,4.654,0.302,6.259,0.906s2.785,1.364,3.54,2.279c0.755,0.916,1.284,2.072,1.586,3.47c0.17,0.868,0.255,2.436,0.255,4.701
			v6.797c0,4.739,0.108,7.736,0.325,8.991c0.218,1.256,0.647,2.46,1.289,3.611h-5.324
			C2309.335,539.546,2308.995,538.31,2308.844,536.894z M2308.419,525.509c-1.851,0.755-4.626,1.397-8.326,1.926
			c-2.096,0.302-3.578,0.642-4.446,1.02s-1.539,0.93-2.011,1.657c-0.472,0.727-0.708,1.533-0.708,2.421
			c0,1.359,0.515,2.492,1.543,3.398c1.029,0.906,2.535,1.359,4.518,1.359c1.964,0,3.71-0.43,5.239-1.288
			c1.529-0.859,2.652-2.035,3.37-3.526c0.548-1.151,0.821-2.851,0.821-5.098V525.509z"/>
		<path d="M2329.829,540.604l-11.441-30.076h5.381l6.457,18.012c0.698,1.944,1.341,3.965,1.926,6.061
			c0.453-1.586,1.086-3.493,1.897-5.721l6.684-18.352h5.239l-11.385,30.076H2329.829z"/>
	</g>
	<g>
		<path d="M1514.295,77.68v-5.098l21.492-26.593c1.526-1.888,2.977-3.53,4.35-4.928h-23.409v-4.899h30.049v4.899l-23.553,28.802
			l-2.547,2.917h26.787v4.899H1514.295z"/>
		<path d="M1573.592,67.994l5.323,0.651c-0.84,3.078-2.395,5.466-4.665,7.165s-5.17,2.549-8.699,2.549
			c-4.446,0-7.971-1.354-10.575-4.064c-2.604-2.709-3.906-6.509-3.906-11.399c0-5.06,1.316-8.987,3.949-11.781
			c2.633-2.794,6.048-4.191,10.245-4.191c4.064,0,7.384,1.369,9.96,4.106c2.575,2.738,3.863,6.589,3.863,11.555
			c0,0.302-0.01,0.755-0.028,1.359h-22.666c0.19,3.304,1.135,5.834,2.833,7.59s3.815,2.634,6.354,2.634
			c1.889,0,3.501-0.491,4.836-1.473C1571.751,71.714,1572.81,70.146,1573.592,67.994z M1556.679,59.753h16.971
			c-0.229-2.53-0.878-4.427-1.946-5.692c-1.641-1.963-3.768-2.945-6.382-2.945c-2.366,0-4.354,0.784-5.967,2.351
			C1557.742,55.033,1556.851,57.129,1556.679,59.753z"/>
		<path d="M1585.326,77.68V47.604h4.636v4.56c1.183-2.133,2.275-3.54,3.277-4.22c1.001-0.68,2.104-1.02,3.305-1.02
			c1.736,0,3.501,0.548,5.295,1.643l-1.774,4.729c-1.259-0.736-2.519-1.104-3.777-1.104c-1.126,0-2.138,0.335-3.034,1.005
			c-0.896,0.67-1.536,1.6-1.917,2.79c-0.572,1.813-0.858,3.795-0.858,5.947V77.68H1585.326z"/>
		<path d="M1602.841,68.702l5.095-0.793c0.286,2.021,1.082,3.568,2.39,4.645c1.307,1.076,3.134,1.614,5.48,1.614
			c2.365,0,4.121-0.477,5.266-1.43c1.145-0.953,1.717-2.072,1.717-3.356c0-1.151-0.506-2.058-1.517-2.719
			c-0.706-0.453-2.461-1.029-5.266-1.728c-3.778-0.944-6.396-1.76-7.856-2.45c-1.459-0.689-2.565-1.643-3.319-2.86
			s-1.131-2.563-1.131-4.036c0-1.34,0.311-2.582,0.931-3.724c0.619-1.142,1.464-2.091,2.532-2.846
			c0.802-0.585,1.894-1.081,3.277-1.487c1.383-0.406,2.866-0.609,4.45-0.609c2.385,0,4.479,0.34,6.281,1.02
			c1.804,0.68,3.134,1.6,3.993,2.761c0.858,1.161,1.449,2.714,1.774,4.659l-5.037,0.68c-0.229-1.548-0.893-2.756-1.989-3.625
			c-1.098-0.868-2.647-1.303-4.65-1.303c-2.366,0-4.055,0.387-5.065,1.161c-1.012,0.774-1.517,1.681-1.517,2.719
			c0,0.661,0.209,1.256,0.629,1.784c0.42,0.548,1.078,1.001,1.975,1.359c0.516,0.189,2.032,0.623,4.551,1.303
			c3.644,0.963,6.187,1.751,7.627,2.365c1.44,0.614,2.57,1.506,3.392,2.676c0.819,1.171,1.23,2.625,1.23,4.361
			c0,1.699-0.501,3.299-1.503,4.8c-1.001,1.501-2.446,2.662-4.336,3.483c-1.889,0.821-4.025,1.232-6.41,1.232
			c-3.949,0-6.959-0.812-9.029-2.436C1604.734,74.3,1603.413,71.893,1602.841,68.702z"/>
		<path d="M1645.454,73.12l0.744,4.503c-1.45,0.302-2.747,0.453-3.892,0.453c-1.87,0-3.32-0.293-4.351-0.878
			s-1.755-1.354-2.175-2.308c-0.42-0.953-0.63-2.959-0.63-6.018V51.568h-3.777v-3.965h3.777v-7.448l5.123-3.059v10.507h5.18v3.965
			h-5.18v17.587c0,1.454,0.091,2.389,0.271,2.804c0.182,0.416,0.478,0.746,0.888,0.991c0.41,0.246,0.997,0.368,1.76,0.368
			C1643.766,73.318,1644.52,73.252,1645.454,73.12z"/>
		<path d="M1650.434,77.68V47.604h4.636v4.56c1.183-2.133,2.275-3.54,3.277-4.22c1.001-0.68,2.104-1.02,3.305-1.02
			c1.736,0,3.501,0.548,5.295,1.643l-1.774,4.729c-1.259-0.736-2.519-1.104-3.777-1.104c-1.126,0-2.138,0.335-3.034,1.005
			c-0.896,0.67-1.536,1.6-1.917,2.79c-0.572,1.813-0.858,3.795-0.858,5.947V77.68H1650.434z"/>
		<path d="M1690.814,67.994l5.323,0.651c-0.84,3.078-2.395,5.466-4.665,7.165s-5.17,2.549-8.699,2.549
			c-4.446,0-7.971-1.354-10.575-4.064c-2.604-2.709-3.906-6.509-3.906-11.399c0-5.06,1.316-8.987,3.949-11.781
			c2.633-2.794,6.048-4.191,10.245-4.191c4.064,0,7.384,1.369,9.96,4.106c2.575,2.738,3.863,6.589,3.863,11.555
			c0,0.302-0.01,0.755-0.028,1.359h-22.666c0.19,3.304,1.135,5.834,2.833,7.59s3.815,2.634,6.354,2.634
			c1.889,0,3.501-0.491,4.836-1.473C1688.974,71.714,1690.032,70.146,1690.814,67.994z M1673.901,59.753h16.971
			c-0.229-2.53-0.878-4.427-1.946-5.692c-1.641-1.963-3.768-2.945-6.382-2.945c-2.366,0-4.354,0.784-5.967,2.351
			C1674.965,55.033,1674.073,57.129,1673.901,59.753z"/>
		<path d="M1722.524,77.68v-4.418c-2.366,3.398-5.581,5.098-9.645,5.098c-1.794,0-3.468-0.34-5.022-1.02
			c-1.556-0.68-2.71-1.534-3.463-2.563c-0.754-1.029-1.283-2.289-1.589-3.781c-0.21-1-0.314-2.586-0.314-4.758V47.604h5.151v16.681
			c0,2.662,0.104,4.456,0.314,5.381c0.324,1.341,1.012,2.393,2.061,3.158c1.05,0.765,2.347,1.147,3.893,1.147
			c1.545,0,2.995-0.392,4.35-1.175c1.354-0.783,2.313-1.85,2.877-3.2c0.563-1.35,0.844-3.309,0.844-5.876V47.604h5.151V77.68
			H1722.524z"/>
		<path d="M1755.121,77.68v-4.418c-2.366,3.398-5.581,5.098-9.645,5.098c-1.794,0-3.468-0.34-5.022-1.02
			c-1.556-0.68-2.71-1.534-3.463-2.563c-0.754-1.029-1.283-2.289-1.589-3.781c-0.21-1-0.314-2.586-0.314-4.758V47.604h5.151v16.681
			c0,2.662,0.104,4.456,0.314,5.381c0.324,1.341,1.012,2.393,2.061,3.158c1.05,0.765,2.347,1.147,3.893,1.147
			c1.545,0,2.995-0.392,4.35-1.175c1.354-0.783,2.313-1.85,2.877-3.2c0.563-1.35,0.844-3.309,0.844-5.876V47.604h5.151V77.68
			H1755.121z"/>
		<path d="M1767.799,77.68V47.604h4.637v4.276c2.232-3.304,5.456-4.956,9.673-4.956c1.832,0,3.516,0.326,5.051,0.977
			c1.536,0.651,2.686,1.506,3.449,2.563c0.763,1.058,1.297,2.313,1.603,3.767c0.19,0.944,0.286,2.596,0.286,4.956V77.68h-5.151
			V59.385c0-2.077-0.2-3.629-0.601-4.659c-0.401-1.029-1.112-1.85-2.133-2.464c-1.021-0.613-2.218-0.92-3.592-0.92
			c-2.193,0-4.088,0.689-5.681,2.067c-1.593,1.378-2.39,3.993-2.39,7.845V77.68H1767.799z"/>
		<path d="M1799.451,80.172l5.009,0.736c0.209,1.529,0.791,2.643,1.745,3.342c1.278,0.944,3.024,1.416,5.237,1.416
			c2.385,0,4.226-0.472,5.523-1.416c1.298-0.944,2.175-2.266,2.633-3.965c0.268-1.039,0.391-3.219,0.372-6.542
			c-2.251,2.625-5.056,3.937-8.414,3.937c-4.178,0-7.412-1.491-9.701-4.475c-2.29-2.983-3.435-6.561-3.435-10.733
			c0-2.87,0.524-5.518,1.574-7.944c1.049-2.426,2.57-4.3,4.564-5.622c1.994-1.321,4.336-1.982,7.026-1.982
			c3.587,0,6.544,1.435,8.871,4.305v-3.625h4.751v25.998c0,4.682-0.481,8-1.445,9.955s-2.489,3.498-4.579,4.63
			c-2.089,1.133-4.66,1.699-7.712,1.699c-3.626,0-6.554-0.807-8.786-2.421S1799.375,83.419,1799.451,80.172z M1803.716,62.104
			c0,3.946,0.791,6.825,2.375,8.638c1.583,1.813,3.567,2.719,5.953,2.719c2.365,0,4.35-0.901,5.952-2.705
			c1.603-1.803,2.404-4.63,2.404-8.482c0-3.682-0.825-6.457-2.476-8.326s-3.64-2.804-5.967-2.804c-2.29,0-4.236,0.92-5.839,2.761
			S1803.716,58.479,1803.716,62.104z"/>
		<path d="M1830.932,68.702l5.095-0.793c0.286,2.021,1.082,3.568,2.39,4.645c1.307,1.076,3.134,1.614,5.48,1.614
			c2.365,0,4.121-0.477,5.266-1.43c1.145-0.953,1.717-2.072,1.717-3.356c0-1.151-0.506-2.058-1.517-2.719
			c-0.706-0.453-2.461-1.029-5.266-1.728c-3.778-0.944-6.396-1.76-7.856-2.45c-1.459-0.689-2.565-1.643-3.319-2.86
			s-1.131-2.563-1.131-4.036c0-1.34,0.311-2.582,0.931-3.724c0.619-1.142,1.464-2.091,2.532-2.846
			c0.802-0.585,1.894-1.081,3.277-1.487c1.383-0.406,2.866-0.609,4.45-0.609c2.385,0,4.479,0.34,6.281,1.02
			c1.804,0.68,3.134,1.6,3.993,2.761c0.858,1.161,1.449,2.714,1.774,4.659l-5.037,0.68c-0.229-1.548-0.893-2.756-1.989-3.625
			c-1.098-0.868-2.647-1.303-4.65-1.303c-2.366,0-4.055,0.387-5.065,1.161c-1.012,0.774-1.517,1.681-1.517,2.719
			c0,0.661,0.209,1.256,0.629,1.784c0.42,0.548,1.078,1.001,1.975,1.359c0.516,0.189,2.032,0.623,4.551,1.303
			c3.644,0.963,6.187,1.751,7.627,2.365c1.44,0.614,2.57,1.506,3.392,2.676c0.819,1.171,1.23,2.625,1.23,4.361
			c0,1.699-0.501,3.299-1.503,4.8c-1.001,1.501-2.446,2.662-4.336,3.483c-1.889,0.821-4.025,1.232-6.41,1.232
			c-3.949,0-6.959-0.812-9.029-2.436C1832.825,74.3,1831.504,71.893,1830.932,68.702z"/>
		<path d="M1862.184,77.68V36.162h5.151V77.68H1862.184z"/>
		<path d="M1875.349,42.024v-5.862h5.151v5.862H1875.349z M1875.349,77.68V47.604h5.151V77.68H1875.349z"/>
		<path d="M1888.341,77.68V47.604h4.637v4.276c2.232-3.304,5.456-4.956,9.673-4.956c1.832,0,3.516,0.326,5.051,0.977
			c1.536,0.651,2.686,1.506,3.449,2.563c0.763,1.058,1.297,2.313,1.603,3.767c0.19,0.944,0.286,2.596,0.286,4.956V77.68h-5.151
			V59.385c0-2.077-0.2-3.629-0.601-4.659c-0.401-1.029-1.112-1.85-2.133-2.464c-1.021-0.613-2.218-0.92-3.592-0.92
			c-2.193,0-4.088,0.689-5.681,2.067c-1.593,1.378-2.39,3.993-2.39,7.845V77.68H1888.341z"/>
		<path d="M1918.877,68.702l5.095-0.793c0.286,2.021,1.082,3.568,2.39,4.645c1.307,1.076,3.134,1.614,5.48,1.614
			c2.365,0,4.121-0.477,5.266-1.43c1.145-0.953,1.717-2.072,1.717-3.356c0-1.151-0.506-2.058-1.517-2.719
			c-0.706-0.453-2.461-1.029-5.266-1.728c-3.778-0.944-6.396-1.76-7.856-2.45c-1.459-0.689-2.565-1.643-3.319-2.86
			s-1.131-2.563-1.131-4.036c0-1.34,0.311-2.582,0.931-3.724c0.619-1.142,1.464-2.091,2.532-2.846
			c0.802-0.585,1.894-1.081,3.277-1.487c1.383-0.406,2.866-0.609,4.45-0.609c2.385,0,4.479,0.34,6.281,1.02
			c1.804,0.68,3.134,1.6,3.993,2.761c0.858,1.161,1.449,2.714,1.774,4.659l-5.037,0.68c-0.229-1.548-0.893-2.756-1.989-3.625
			c-1.098-0.868-2.647-1.303-4.65-1.303c-2.366,0-4.055,0.387-5.065,1.161c-1.012,0.774-1.517,1.681-1.517,2.719
			c0,0.661,0.209,1.256,0.629,1.784c0.42,0.548,1.078,1.001,1.975,1.359c0.516,0.189,2.032,0.623,4.551,1.303
			c3.644,0.963,6.187,1.751,7.627,2.365c1.44,0.614,2.57,1.506,3.392,2.676c0.819,1.171,1.23,2.625,1.23,4.361
			c0,1.699-0.501,3.299-1.503,4.8c-1.001,1.501-2.446,2.662-4.336,3.483c-1.889,0.821-4.025,1.232-6.41,1.232
			c-3.949,0-6.959-0.812-9.029-2.436C1920.771,74.3,1919.449,71.893,1918.877,68.702z"/>
		<path d="M1971.049,67.994l5.323,0.651c-0.84,3.078-2.395,5.466-4.665,7.165s-5.17,2.549-8.699,2.549
			c-4.446,0-7.971-1.354-10.575-4.064c-2.604-2.709-3.906-6.509-3.906-11.399c0-5.06,1.316-8.987,3.949-11.781
			c2.633-2.794,6.048-4.191,10.245-4.191c4.064,0,7.384,1.369,9.96,4.106c2.575,2.738,3.863,6.589,3.863,11.555
			c0,0.302-0.01,0.755-0.028,1.359h-22.666c0.19,3.304,1.135,5.834,2.833,7.59s3.815,2.634,6.354,2.634
			c1.889,0,3.501-0.491,4.836-1.473C1969.208,71.714,1970.267,70.146,1971.049,67.994z M1954.136,59.753h16.971
			c-0.229-2.53-0.878-4.427-1.946-5.692c-1.641-1.963-3.768-2.945-6.382-2.945c-2.366,0-4.354,0.784-5.967,2.351
			C1955.199,55.033,1954.308,57.129,1954.136,59.753z"/>
		<path d="M1982.84,77.68V47.604h4.637v4.276c2.232-3.304,5.456-4.956,9.673-4.956c1.832,0,3.516,0.326,5.051,0.977
			c1.536,0.651,2.686,1.506,3.449,2.563c0.763,1.058,1.297,2.313,1.603,3.767c0.19,0.944,0.286,2.596,0.286,4.956V77.68h-5.151
			V59.385c0-2.077-0.2-3.629-0.601-4.659c-0.401-1.029-1.112-1.85-2.133-2.464c-1.021-0.613-2.218-0.92-3.592-0.92
			c-2.193,0-4.088,0.689-5.681,2.067c-1.593,1.378-2.39,3.993-2.39,7.845V77.68H1982.84z"/>
	</g>
	<g>
		<g>
			
				<line fill="none" stroke="#000000" stroke-width="5" stroke-linecap="square" stroke-linejoin="round" x1="1245.433" y1="116.5" x2="2295.433" y2="116.5"/>
			<g>
				<rect x="1242.433" y="100" width="5" height="32"/>
			</g>
			<g>
				<rect x="2292.433" y="100" width="5" height="32"/>
			</g>
		</g>
	</g>
</g>
<g id="Konvexkonkav_2">
	<g>
		<g>
			<path fill="#009FFF" stroke="#000000" stroke-width="2" stroke-miterlimit="10" d="M2230.814,319.938
				c0,58.595-19.448,112.644-52.229,156.062h51.495c13.254-47.304,20.351-97.181,20.351-148.717
				c0-56.855-8.628-111.695-24.645-163.283h-47.106C2211.404,207.397,2230.814,261.399,2230.814,319.938z"/>
		</g>
	</g>
</g>
</svg>
