<svg width="500" height="500" viewBox="0 0 1 1" xmlns="http://www.w3.org/2000/svg" xmlns:xlink="http://www.w3.org/1999/xlink" id="svg16614" overflow="hidden"><defs id="defs16723"></defs><path d="M182.85 519.35 210.04 519.35 210.04 546.5 182.85 546.5 182.85 519.35Z" id="polygon16624" stroke="#000000" stroke-width="0.460369" stroke-miterlimit="10.433" fill="#FF7D00" fill-rule="evenodd" font-weight="400" transform="matrix(0.0361655 0 0 -0.0362188 -6.60453 19.8019)"/><g id="g22908" transform="matrix(0.985389 0 0 0.985412 -0.0400717 0.0643383)"><path d="M0.637081 0.71226 0.643321 0.724757 0.950147 0.761879C0.950147 0.777316 0.950514 0.798267 0.950514 0.813336L0.801138 0.782094C0.797101 0.782462 0.793431 0.779889 0.790862 0.780992 0.790862 0.783565 0.791963 0.785035 0.794532 0.784667 0.797101 0.784667 0.802239 0.784667 0.802239 0.78871 0.802239 0.796061 0.804808 0.80231 0.808846 0.807455 0.808846 0.812601 0.805175 0.815174 0.801138 0.818849 0.793798 0.819217 0.784622 0.815541 0.77875 0.820687 0.765904 0.833551 0.753059 0.815541 0.739112 0.813336 0.727735 0.804515 0.70865 0.815174 0.697272 0.80231 0.687363 0.804882 0.681857 0.793856 0.673049 0.793856 0.66681 0.786137 0.656533 0.778786 0.660203 0.768495 0.665342 0.765922 0.669012 0.759674 0.67415 0.758204L0.67415 0.755631C0.643321 0.747177 0.614326 0.742767 0.583864 0.734313L0.575055 0.734313 0.495046 0.716303C0.482567 0.71373 0.473025 0.714098 0.461647 0.710422 0.456509 0.707849 0.448434 0.706747 0.444397 0.703806 0.491376 0.709687 0.542024 0.712995 0.589002 0.718876 0.593773 0.7152 0.590103 0.708952 0.591204 0.703806 0.593773 0.698661 0.601114 0.694618 0.604784 0.690942 0.618731 0.690942 0.630475 0.701969 0.637081 0.71226Z" id="path16690" stroke-width="0" stroke-miterlimit="10.433" fill-rule="evenodd" font-weight="400"/><path d="M0.684794 0.67624C0.690229 0.679457 0.697943 0.67032 0.703512 0.6733 0.713192 0.678537 0.726634 0.684694 0.739112 0.684326 0.74425 0.686899 0.74425 0.693515 0.745718 0.698293 0.74682 0.701969 0.751958 0.706012 0.748288 0.711157 0.748288 0.71373 0.744617 0.716303 0.742048 0.718508 0.73691 0.718876 0.732139 0.717406 0.727001 0.716303 0.711586 0.716671 0.699107 0.725492 0.683692 0.721816 0.674884 0.717038 0.66681 0.715568 0.655432 0.713363 0.646257 0.71079 0.650294 0.701969 0.648826 0.69572 0.641853 0.686531 0.633411 0.682121 0.633411 0.669257 0.637081 0.663743 0.643321 0.666316 0.649927 0.667786 0.661304 0.672565 0.673967 0.675183 0.684794 0.67624Z" id="path16692" stroke-width="0" stroke-miterlimit="10.433" fill-rule="evenodd" font-weight="400"/><path d="M0.949413 0.622578 0.94978 0.678445 0.543492 0.649777 0.542024 0.650879C0.546061 0.656025 0.54863 0.664478 0.544593 0.670727 0.542024 0.675873 0.535418 0.681018 0.530279 0.682121 0.526609 0.681018 0.522205 0.679181 0.521104 0.676608 0.518535 0.671462 0.521838 0.666316 0.5167 0.663743 0.507891 0.665214 0.504588 0.67183 0.498349 0.674402 0.488072 0.674402 0.477062 0.667419 0.473025 0.657128 0.473025 0.653452 0.479998 0.648674 0.474493 0.644998 0.469721 0.645366 0.464216 0.644263 0.460179 0.643161L0.461647 0.64169C0.623869 0.635442 0.787192 0.624416 0.949413 0.622578Z" id="path16694" stroke-width="0" stroke-miterlimit="10.433" fill-rule="evenodd" font-weight="400"/><path d="M0.359616 0.592071C0.365583 0.591836 0.371103 0.593654 0.370994 0.599422L0.370994 0.599422C0.372462 0.601995 0.368792 0.606038 0.367324 0.608611 0.367691 0.620005 0.354845 0.622578 0.347505 0.629194 0.338696 0.632869 0.33209 0.626621 0.325851 0.621475 0.318143 0.61927 0.304197 0.628091 0.300527 0.616697 0.301628 0.606773 0.310436 0.60273 0.312638 0.593909 0.319244 0.586191 0.330255 0.587293 0.340531 0.58472 0.348239 0.58472 0.353377 0.590969 0.359616 0.592071Z" id="path16696" stroke-width="0" stroke-miterlimit="10.433" fill-rule="evenodd" font-weight="400"/><path d="M208.7 531.41 208.7 530.14 198.2 529.8 208.7 531.41Z" id="polygon16698" stroke-width="0" stroke-miterlimit="10.433" fill-rule="evenodd" font-weight="400" transform="matrix(0.0367017 0 0 -0.0367549 -6.70987 20.0876)"/><path d="M0.241804 0.56524 0.249144 0.572959C0.246942 0.576634 0.243272 0.580677 0.241804 0.58325 0.239235 0.589498 0.232995 0.593542 0.226756 0.593542 0.223086 0.593542 0.21648 0.593542 0.213911 0.587293 0.213911 0.578472 0.219049 0.568181 0.226389 0.564138 0.231527 0.561565 0.239235 0.563035 0.241804 0.56524Z" id="path16700" stroke-width="0" stroke-miterlimit="10.433" fill-rule="evenodd" font-weight="400"/><path d="M0.26933 0.551273C0.26962 0.550819 0.274016 0.558732 0.270798 0.56377 0.270706 0.563862 0.274881 0.560692 0.270798 0.56377 0.266715 0.566848 0.259421 0.567813 0.252814 0.567813 0.249144 0.56524 0.249144 0.560462 0.249144 0.556419 0.252814 0.550171 0.263504 0.549298 0.26933 0.551273Z" id="path16702" stroke-width="0" stroke-miterlimit="10.433" fill-rule="evenodd" font-weight="400"/><path d="M0.460179 0.516356 0.459078 0.518194 0.45761 0.520032 0.456142 0.522237 0.454674 0.524075 0.453206 0.52628 0.451738 0.528485 0.449903 0.530691 0.448434 0.532528 0.446599 0.534734 0.444764 0.536939 0.442929 0.538777 0.440727 0.540982 0.438892 0.54282 0.43669 0.544657 0.434855 0.546495 0.432653 0.548333C0.431185 0.543187 0.435222 0.539512 0.437424 0.535469 0.443663 0.52922 0.451371 0.520032 0.458711 0.516356L0.460179 0.516356Z" id="path16704" stroke-width="0" stroke-miterlimit="10.433" fill-rule="evenodd" font-weight="400"/><path d="M0.754527 0.445787C0.756535 0.448233 0.759161 0.453057 0.760766 0.458651 0.757555 0.461499 0.750857 0.461224 0.749756 0.46637 0.752325 0.478866 0.739479 0.484379 0.73324 0.49173 0.724432 0.496876 0.714522 0.494671 0.706815 0.497244 0.693969 0.494671 0.68406 0.509005 0.671581 0.500184 0.670113 0.491363 0.656166 0.48879 0.658735 0.478499 0.664608 0.466002 0.678554 0.458283 0.6914 0.455343 0.696171 0.450197 0.69874 0.443949 0.706448 0.442846 0.718926 0.442479 0.726267 0.429615 0.739112 0.43476 0.745351 0.435863 0.751224 0.441836 0.754527 0.445787Z" id="path16706" stroke-width="0" stroke-miterlimit="10.433" fill-rule="evenodd" font-weight="400"/><path d="M0.425312 0.320085C0.426164 0.327325 0.425588 0.334561 0.42678 0.34177 0.42935 0.35831 0.414302 0.368234 0.413201 0.384773 0.413201 0.391022 0.409531 0.396168 0.40843 0.403886 0.406962 0.407929 0.40843 0.412707 0.407329 0.41675 0.403291 0.417853 0.39852 0.424469 0.393382 0.421896 0.386776 0.415648 0.389345 0.406459 0.388244 0.399108 0.386409 0.390287 0.380169 0.382568 0.382739 0.373747 0.380169 0.364926 0.376132 0.353532 0.382371 0.345813 0.386041 0.330744 0.402557 0.334419 0.411366 0.32523 0.415036 0.320085 0.420174 0.314939 0.425312 0.320085Z" id="path16708" stroke-width="0" stroke-miterlimit="10.433" fill-rule="evenodd" font-weight="400"/><path d="M0.521471 0.317879C0.52399 0.321313 0.522348 0.33241 0.521838 0.339197 0.517525 0.348294 0.504221 0.375217 0.504221 0.375217 0.50312 0.37632 0.500551 0.37632 0.497982 0.37632 0.489174 0.364926 0.482567 0.349856 0.488806 0.335889 0.488439 0.321922 0.504955 0.31935 0.512663 0.310161 0.517434 0.310161 0.520324 0.315031 0.521471 0.317879Z" id="path16710" stroke-width="0" stroke-miterlimit="10.433" fill-rule="evenodd" font-weight="400"/><path d="M0.618364 0.035234 0.584965 0.111684C0.591927 0.115931 0.60612 0.115365 0.613959 0.112787 0.620566 0.108744 0.627906 0.105068 0.634145 0.0999227 0.641853 0.101025 0.646991 0.103231 0.650661 0.109847 0.654698 0.116095 0.652129 0.127489 0.661304 0.131164L0.722229 0.0341314C0.741314 0.035234 0.7615 0.0337638 0.781686 0.0348664L0.475227 0.440641 0.620199 0.198794C0.623869 0.193648 0.627539 0.1874 0.629007 0.182254 0.6213 0.177108 0.617629 0.188502 0.61139 0.189972 0.606252 0.192913 0.598544 0.191443 0.594874 0.194015 0.590837 0.191443 0.592305 0.186297 0.587167 0.185194 0.580928 0.182989 0.57322 0.182989 0.570651 0.176373 0.569183 0.169022 0.571752 0.158731 0.567715 0.152482L0.566614 0.152482 0.416871 0.486217C0.427148 0.492466 0.439626 0.482174 0.449536 0.490995 0.456142 0.48585 0.462381 0.483277 0.470088 0.486952L0.47119 0.489525C0.470088 0.49173 0.459812 0.50974 0.465317 0.50974 0.485136 0.499449 0.516333 0.450932 0.53395 0.432922 0.643321 0.300237 0.750123 0.164244 0.863898 0.035234L0.94978 0.0356015 0.94978 0.0844857C0.801505 0.241062 0.637081 0.390287 0.480732 0.538777 0.478163 0.542452 0.474493 0.54282 0.475594 0.547598 0.481466 0.547598 0.491009 0.552376 0.496147 0.547598 0.646991 0.433658 0.79967 0.31935 0.94978 0.204307L0.94978 0.28774C0.814718 0.37779 0.671214 0.457916 0.532481 0.542085 0.528444 0.547598 0.52771 0.566343 0.535418 0.570018L0.94978 0.414913 0.94978 0.490628C0.796734 0.528118 0.643321 0.574061 0.487338 0.599422 0.479998 0.594644 0.4822 0.58178 0.483668 0.572959 0.485136 0.567813 0.462014 0.569651 0.456876 0.563035 0.43669 0.57884 0.41944 0.599055 0.401823 0.617065 0.406962 0.619637 0.413201 0.618167 0.416871 0.621843 0.427148 0.630664 0.427148 0.644631 0.426046 0.656025 0.426046 0.662273 0.421275 0.667419 0.418706 0.673667 0.412467 0.679181 0.403658 0.675137 0.397419 0.67771 0.392281 0.681753 0.387143 0.688369 0.380903 0.686899 0.370627 0.685796 0.359249 0.679548 0.350441 0.686164 0.346771 0.689839 0.343101 0.696088 0.344202 0.702704 0.357414 0.710055 0.364388 0.711525 0.373563 0.723654 0.38127 0.723654 0.392648 0.72733 0.397786 0.719611 0.400355 0.719611 0.402924 0.722184 0.406595 0.723654 0.447333 0.735783 0.487338 0.749015 0.529545 0.764085 0.531747 0.756366 0.539455 0.757469 0.544593 0.75269 0.560742 0.747177 0.55854 0.767393 0.566247 0.775111L0.773979 0.848988 0.773979 0.850091 0.648459 0.850091 0.402924 0.731005C0.388978 0.731373 0.38127 0.74534 0.385307 0.756734 0.386776 0.758939 0.390446 0.757836 0.391914 0.756366 0.397786 0.751955 0.426413 0.756734 0.43302 0.758204 0.437057 0.763349 0.442562 0.76629 0.4477 0.768863 0.450637 0.775479 0.444397 0.780624 0.4477 0.786505 0.448067 0.787608 0.446232 0.797899 0.442929 0.794224 0.439259 0.797899 0.434121 0.803045 0.428983 0.799369 0.419807 0.791651 0.40843 0.7843 0.395584 0.7843 0.384573 0.783197 0.388244 0.7707 0.380536 0.767025 0.362919 0.774743 0.346404 0.785035 0.326218 0.785035 0.201065 0.798267 0.169134 0.642426 0.264559 0.586926 0.268229 0.586926 0.277404 0.575164 0.281075 0.576634 0.286213 0.583985 0.29759 0.612654 0.292819 0.62074 0.289149 0.625886 0.281442 0.628459 0.28291 0.636177 0.290617 0.646101 0.301995 0.633237 0.311904 0.640955 0.314106 0.643896 0.343835 0.651982 0.348973 0.651982 0.367691 0.628826 0.38751 0.604568 0.406595 0.58031 0.397786 0.569651 0.380903 0.534366 0.385307 0.519297L0.542391 0.035234 0.618364 0.035234Z" id="path16712" stroke-width="0" stroke-miterlimit="10.433" fill-rule="evenodd" font-weight="400"/><path d="M0.414302 0.035234 0.345303 0.553111C0.341632 0.555684 0.337595 0.558257 0.336494 0.561932 0.336494 0.565608 0.340531 0.570753 0.336861 0.571856 0.330255 0.574429 0.325484 0.581045 0.318877 0.57884 0.310069 0.573694 0.29759 0.575164 0.290984 0.565975 0.287681 0.5623 0.256484 0.521869 0.256484 0.52334 0.251346 0.528485 0.253915 0.54135 0.244006 0.543922 0.239969 0.543922 0.237767 0.547598 0.235197 0.543922 0.226022 0.537674 0.226022 0.528853 0.217214 0.523707 0.213176 0.517459 0.213176 0.508638 0.214278 0.502389 0.219416 0.497244 0.227123 0.499817 0.229325 0.492098L0.145645 0.367499 0.145645 0.258337 0.299793 0.558624 0.300894 0.558624 0.176842 0.16939 0.230793 0.164612C0.23483 0.180049 0.236666 0.196588 0.240703 0.211658 0.245474 0.210555 0.245474 0.205409 0.246575 0.201366L0.249878 0.19034 0.263458 0.177108C0.269697 0.169757 0.267862 0.160568 0.271532 0.153217 0.284745 0.139618 0.306766 0.13337 0.323282 0.126019 0.336861 0.133737 0.333558 0.157261 0.340164 0.170125 0.341265 0.173065 0.344569 0.17233 0.344569 0.170125L0.348973 0.035234 0.414302 0.035234Z" id="path16714" stroke-width="0" stroke-miterlimit="10.433" fill-rule="evenodd" font-weight="400"/><path d="M0.864265 0.205777C0.868105 0.207376 0.875743 0.243964 0.873073 0.24878 0.870229 0.253834 0.864632 0.257601 0.859494 0.262747 0.851786 0.26238 0.850685 0.275244 0.84151 0.270098 0.835271 0.26238 0.823893 0.263482 0.818755 0.254661 0.816186 0.245472 0.815085 0.232976 0.821324 0.226727 0.830132 0.222684 0.834904 0.214231 0.844079 0.215701 0.850318 0.211658 0.857796 0.206007 0.864265 0.205777Z" id="path16716" stroke-width="0" stroke-miterlimit="10.433" fill-rule="evenodd" font-weight="400"/><path d="M0.449169 0.196956 0.452472 0.253926C0.452472 0.266423 0.442562 0.273038 0.439993 0.284432L0.434488 0.299502C0.414669 0.297664 0.422743 0.262012 0.409164 0.254293 0.408063 0.246575 0.417972 0.241429 0.420541 0.235181 0.425312 0.220111 0.428616 0.196956 0.449169 0.196956Z" id="path16718" stroke-width="0" stroke-miterlimit="10.433" fill-rule="evenodd" font-weight="400"/><path d="M0.51046 0.0822803 0.505689 0.111684C0.502386 0.121976 0.498716 0.13337 0.495046 0.143661 0.487705 0.150277 0.484035 0.159466 0.480365 0.167184 0.471924 0.17233 0.463115 0.180416 0.454307 0.189605 0.442929 0.183724 0.436323 0.17233 0.429717 0.163876 0.428249 0.155055 0.428249 0.147337 0.42935 0.138515 0.434121 0.124181 0.441094 0.110214 0.448434 0.0958797 0.453573 0.0870584 0.462381 0.0841182 0.472658 0.0837506L0.492476 0.0741943C0.498716 0.0778698 0.510093 0.0734592 0.51046 0.0822803Z" id="path16720" stroke-width="0" stroke-miterlimit="10.433" fill-rule="evenodd" font-weight="400"/></g></svg>