<svg width="500" height="500" viewBox="0 0 1 1" xmlns="http://www.w3.org/2000/svg" xmlns:xlink="http://www.w3.org/1999/xlink" id="svg3808" overflow="hidden"><defs id="defs3889"></defs><path d="M182.85 519.35 210.04 519.35 210.04 546.5 182.85 546.5 182.85 519.35Z" id="polygon3818" stroke="#000000" stroke-width="0.460369" stroke-miterlimit="10.43" fill="#FF7D00" fill-rule="evenodd" font-weight="400" transform="matrix(0.0361655 0 0 -0.0362188 -6.60453 19.8019)"/><path d="M0.502712 0.15773C0.454974 0.187792 0.436529 0.231618 0.455697 0.353313 0.432551 0.341723 0.429115 0.331944 0.389694 0.329771 0.408139 0.366714 0.409586 0.382832 0.409586 0.442955 0.391503 0.442955 0.387705 0.429554 0.363474 0.392248 0.335627 0.4339 0.340871 0.474104 0.349912 0.522637 0.338339 0.494748 0.306513 0.481709 0.290239 0.486418 0.313384 0.513582 0.321341 0.575879 0.319171 0.620428 0.321341 0.742485 0.377218 0.841545 0.502712 0.842269 0.680285 0.842631 0.684626 0.658819 0.676308 0.560667 0.676308 0.535314 0.698188 0.507787 0.709761 0.500905 0.691317 0.494024 0.647375 0.544911 0.651896 0.523542 0.656417 0.502173 0.657683 0.417058 0.673596 0.376855 0.655151 0.381564 0.63092 0.391705 0.619347 0.414885 0.608136 0.375407 0.591318 0.314559 0.566002 0.300795 0.572874 0.34462 0.564556 0.346975 0.562386 0.363273 0.514279 0.313536 0.506355 0.246356 0.498192 0.180367L0.499096 0.172218 0.501808 0.161352 0.502712 0.15773ZM0.546111 0.377761C0.558566 0.395424 0.555293 0.41282 0.539782 0.427562 0.539437 0.425808 0.535018 0.380972 0.546111 0.377761ZM0.505425 0.403114C0.5058 0.405362 0.505294 0.4074 0.504521 0.409452 0.492054 0.436783 0.523575 0.471296 0.522604 0.493661L0.522604 0.496378C0.513562 0.494205 0.500181 0.491488 0.486438 0.493661 0.474865 0.44042 0.505425 0.403114 0.505425 0.403114ZM0.43671 0.45201C0.456601 0.475914 0.457505 0.50163 0.446656 0.502716L0.431285 0.507244C0.414649 0.491307 0.442858 0.479898 0.43671 0.45201ZM0.573236 0.459253C0.567449 0.485693 0.575202 0.49545 0.571427 0.507244 0.560634 0.504049 0.565409 0.505609 0.557865 0.502716 0.554 0.489202 0.557323 0.466135 0.573236 0.459253ZM0.614826 0.480079C0.610923 0.505311 0.628274 0.543216 0.625616 0.544736 0.593447 0.526709 0.603632 0.51231 0.614826 0.480079ZM0.372516 0.504527C0.381213 0.517296 0.386705 0.524166 0.38427 0.530786 0.38217 0.539545 0.371703 0.546962 0.36257 0.55795 0.36229 0.541701 0.365021 0.525828 0.369444 0.510267L0.372516 0.504527ZM0.501808 0.522637C0.596849 0.522928 0.639376 0.575981 0.641243 0.66702 0.640769 0.77141 0.585893 0.820538 0.502712 0.820538 0.416639 0.822711 0.354975 0.759327 0.35172 0.670229 0.351359 0.580768 0.411033 0.522274 0.501808 0.522637Z" id="path3886" stroke-width="0" stroke-miterlimit="10.433" fill-rule="evenodd" font-weight="400"/></svg>