<svg width="500" height="500" viewBox="0 0 1 1" xmlns="http://www.w3.org/2000/svg" xmlns:xlink="http://www.w3.org/1999/xlink" overflow="hidden"><path d="M182.85 519.35 210.04 519.35 210.04 546.5 182.85 546.5 182.85 519.35Z" stroke="#000000" stroke-width="0.460505" stroke-miterlimit="10.433" fill="#FF7D00" transform="matrix(0.0361654 0 0 -0.0362189 -6.60452 19.802)"/><path d="M0.502075 0.144667C0.397556 0.141407 0.296654 0.197367 0.266998 0.308559 0.250724 0.361076 0.263743 0.400374 0.286889 0.439853 0.290144 0.449632 0.296292 0.459049 0.299547 0.468828 0.296292 0.481867 0.292856 0.498709 0.289601 0.515008 0.286346 0.534566 0.293399 0.550865 0.303163 0.563904 0.306418 0.567163 0.309312 0.573683 0.315821 0.583824 0.328841 0.593603 0.341861 0.60954 0.348371 0.645397 0.325586 0.638877 0.299727 0.629279 0.276943 0.62276 0.253798 0.61624 0.227758 0.60628 0.208229 0.596501 0.198464 0.593241 0.191231 0.590343 0.184721 0.583824 0.178211 0.580564 0.172243 0.580564 0.165734 0.583824 0.152715 0.593603 0.159043 0.606099 0.155789 0.619138 0.152534 0.625657 0.14313 0.632901 0.14313 0.64268 0.14313 0.64594 0.142588 0.648837 0.145843 0.655357 0.152353 0.661876 0.165372 0.662239 0.178392 0.658979 0.191411 0.652459 0.20208 0.65246 0.211845 0.658979 0.263923 0.672017 0.316364 0.687954 0.365549 0.704253 0.365549 0.714032 0.368262 0.717291 0.368262 0.724173L0.365549 0.734133C0.326129 0.747534 0.286527 0.76003 0.247107 0.773069 0.240597 0.779588 0.231193 0.783573 0.218174 0.780313 0.20841 0.777053 0.198825 0.779769 0.191954 0.783029 0.185444 0.792808 0.188699 0.799147 0.191954 0.809288 0.198825 0.815807 0.2019 0.823051 0.2019 0.832831 0.205155 0.845869 0.214738 0.848586 0.224503 0.851845 0.231013 0.851845 0.237884 0.845688 0.244394 0.839169 0.254159 0.83265 0.270253 0.819248 0.279656 0.819248L0.390865 0.776691C0.416904 0.816169 0.463378 0.835547 0.509308 0.835547 0.551621 0.835547 0.591223 0.815988 0.620517 0.783029L0.698273 0.81291C0.714547 0.822689 0.731727 0.826311 0.748001 0.832831 0.761021 0.83935 0.770243 0.848948 0.783263 0.855467 0.799537 0.855467 0.809844 0.849129 0.813099 0.832831 0.809844 0.826311 0.812557 0.819429 0.819428 0.81291 0.822683 0.80639 0.826661 0.80313 0.826661 0.792989 0.823406 0.78321 0.816535 0.783029 0.80677 0.783029 0.790496 0.789549 0.770243 0.789549 0.750714 0.783029 0.721058 0.77325 0.692306 0.760211 0.663012 0.750432L0.649449 0.744094C0.649449 0.740834 0.64945 0.737756 0.649449 0.734133 0.655959 0.717835 0.659395 0.704615 0.663012 0.691576 0.692306 0.678537 0.718345 0.665679 0.748001 0.65264 0.764276 0.645759 0.787241 0.645578 0.826661 0.658979 0.836426 0.662238 0.845829 0.662419 0.855594 0.65264 0.855594 0.649381 0.855594 0.64594 0.855594 0.64268 0.858849 0.636161 0.855775 0.629641 0.849265 0.626381 0.84601 0.619862 0.83968 0.613162 0.842936 0.600123 0.839681 0.590344 0.842394 0.584005 0.829374 0.577486 0.822864 0.570966 0.81328 0.570966 0.80677 0.577486 0.797367 0.584005 0.78724 0.587265 0.774221 0.593784 0.744927 0.603563 0.714909 0.616059 0.685615 0.629098 0.679105 0.632358 0.672234 0.632177 0.665724 0.635436 0.665724 0.628917 0.669341 0.626019 0.669341 0.62276 0.672596 0.61298 0.682541 0.590343 0.695561 0.583824 0.711835 0.563904 0.721781 0.541267 0.705506 0.508669 0.705506 0.50541 0.705145 0.501969 0.70189 0.498709 0.7348 0.436413 0.751075 0.373571 0.738055 0.311275 0.724674 0.222901 0.629739 0.147927 0.502075 0.144667ZM0.502075 0.157344C0.623229 0.160604 0.711835 0.226523 0.72811 0.314897 0.738236 0.386973 0.718345 0.442751 0.695561 0.485127 0.689051 0.465569 0.68887 0.446191 0.685615 0.429893 0.685615 0.403453 0.698635 0.374115 0.70189 0.344778 0.70189 0.324857 0.698635 0.314897 0.685615 0.298598 0.68236 0.292079 0.679286 0.292079 0.679286 0.298598 0.689051 0.321416 0.695741 0.340975 0.689232 0.363793 0.666448 0.426089 0.67585 0.45253 0.685615 0.485127 0.69538 0.514826 0.711835 0.547062 0.679286 0.56662 0.639866 0.5898 0.626485 0.60628 0.623229 0.645397 0.619974 0.642137 0.613284 0.639058 0.613284 0.639058 0.606774 0.635798 0.600807 0.63942 0.594297 0.64268 0.591042 0.64594 0.587245 0.652278 0.584351 0.649018 0.577842 0.649018 0.574044 0.649381 0.570789 0.65264 0.567534 0.6559 0.567354 0.658979 0.560844 0.658979 0.557589 0.655719 0.551079 0.65246 0.544569 0.658979 0.541314 0.658979 0.542037 0.665317 0.535528 0.665317 0.529018 0.665317 0.525582 0.66242 0.525582 0.668939 0.519072 0.668939 0.515275 0.672199 0.51202 0.668939 0.508765 0.668939 0.502617 0.66568 0.499362 0.668939 0.496107 0.668939 0.489417 0.668939 0.489417 0.668939 0.4858 0.66242 0.482726 0.662057 0.479471 0.665317 0.476216 0.665317 0.470068 0.668577 0.466813 0.665317 0.463558 0.662058 0.460122 0.662601 0.456867 0.662601 0.453613 0.662601 0.450177 0.662239 0.446922 0.658979 0.443667 0.655719 0.440231 0.65264 0.436976 0.65264 0.430467 0.65264 0.430286 0.652278 0.427031 0.649018 0.420159 0.645397 0.414418 0.650372 0.410756 0.65264 0.407095 0.654909 0.400811 0.655357 0.400811 0.655357 0.397556 0.615878 0.384898 0.593241 0.355604 0.580202 0.316183 0.570423 0.296292 0.544526 0.299547 0.508669 0.306057 0.485489 0.312928 0.468466 0.319438 0.448908 0.325948 0.42935 0.325947 0.406531 0.319438 0.380092 0.316183 0.360533 0.312386 0.341337 0.32215 0.314897 0.32215 0.308378 0.313109 0.308378 0.313109 0.314897 0.306599 0.331195 0.302983 0.350935 0.309492 0.373753 0.312747 0.40309 0.312386 0.429349 0.305876 0.448908 0.276582 0.40291 0.263382 0.360533 0.279656 0.311275 0.309311 0.196823 0.420341 0.160603 0.502075 0.157344ZM0.605147 0.419933C0.58972 0.420561 0.572733 0.425886 0.560844 0.432609 0.540186 0.445542 0.553199 0.48279 0.554515 0.485127 0.561612 0.497758 0.567716 0.507945 0.584351 0.517724 0.600626 0.540542 0.626303 0.531125 0.645833 0.505047 0.655598 0.485127 0.66265 0.465749 0.655778 0.446191 0.655778 0.429893 0.646556 0.419933 0.620517 0.419933 0.615635 0.419933 0.610289 0.419723 0.605147 0.419933ZM0.435168 0.425365C0.425765 0.424958 0.414721 0.426662 0.405758 0.430046 0.37802 0.435862 0.365759 0.457909 0.365549 0.465206 0.36512 0.480034 0.368623 0.498165 0.388153 0.517724 0.407682 0.534022 0.424318 0.537463 0.440593 0.527684 0.460122 0.508126 0.4726 0.485489 0.475854 0.47245 0.479109 0.456152 0.482364 0.445648 0.45958 0.432609 0.45307 0.42772 0.444571 0.425773 0.435168 0.425365ZM0.483088 0.527684C0.473526 0.544209 0.456325 0.577486 0.45958 0.593784 0.462835 0.610083 0.47929 0.619138 0.502075 0.602839 0.515456 0.615878 0.544569 0.619319 0.544569 0.596501 0.544569 0.573321 0.536319 0.545545 0.525582 0.524968 0.512343 0.507236 0.493212 0.510839 0.483088 0.527684ZM0.672957 0.58654C0.666448 0.606099 0.656321 0.612618 0.653066 0.655357 0.653066 0.687954 0.649811 0.714575 0.636791 0.737755 0.591223 0.839168 0.460303 0.858365 0.398098 0.766731 0.385079 0.743913 0.372059 0.710772 0.365549 0.671655 0.359039 0.632177 0.351806 0.61298 0.342042 0.590162 0.371697 0.596682 0.384717 0.616059 0.394482 0.665317 0.394482 0.678356 0.397375 0.701717 0.40714 0.711496 0.410395 0.711496 0.417085 0.717835 0.417085 0.717835 0.42034 0.721094 0.420159 0.724173 0.427031 0.724173 0.433179 0.724173 0.436976 0.724897 0.436976 0.727795 0.440231 0.731417 0.443667 0.734134 0.446922 0.734133 0.453432 0.734133 0.456099 0.737212 0.456867 0.740472 0.460152 0.743578 0.463097 0.742314 0.466813 0.740472 0.470835 0.73798 0.477782 0.741141 0.479471 0.744094 0.485213 0.748889 0.49362 0.748121 0.499362 0.744094 0.502617 0.740834 0.505691 0.744094 0.509308 0.744094 0.512563 0.747353 0.519072 0.750613 0.525582 0.744094 0.528837 0.737574 0.532273 0.740834 0.535528 0.744094 0.538782 0.744094 0.541676 0.741015 0.548186 0.737755 0.551441 0.737755 0.554876 0.737212 0.558131 0.740472 0.564641 0.740472 0.571151 0.741015 0.574406 0.734133 0.578022 0.731236 0.581096 0.724173 0.584351 0.724173 0.590861 0.724173 0.594116 0.72707 0.600626 0.720551 0.600626 0.717291 0.6037 0.711496 0.606955 0.711496 0.61021 0.711496 0.613645 0.711134 0.6169 0.707874 0.6169 0.701355 0.619975 0.701174 0.623229 0.697914 0.629739 0.697914 0.62992 0.694473 0.633175 0.687954L0.633175 0.662601C0.63643 0.636161 0.633537 0.609358 0.672957 0.58654ZM0.819428 0.587446C0.825684 0.586223 0.830549 0.590344 0.83299 0.600123 0.829735 0.616421 0.836426 0.622941 0.842936 0.63272 0.84619 0.639239 0.845829 0.642137 0.839319 0.645397 0.836064 0.649018 0.82648 0.645578 0.813099 0.639058 0.78706 0.632538 0.770605 0.628917 0.75433 0.635436L0.663012 0.678899C0.663012 0.67238 0.663012 0.66912 0.663012 0.662601 0.663012 0.659341 0.665724 0.6559 0.665724 0.65264L0.793208 0.596501C0.799718 0.596501 0.80659 0.593422 0.813099 0.590162 0.815631 0.588533 0.817343 0.587853 0.819428 0.587446ZM0.172063 0.59469C0.174504 0.593875 0.176765 0.594871 0.178392 0.596501 0.191411 0.60628 0.204793 0.609902 0.214558 0.616421 0.260126 0.62946 0.306419 0.645578 0.351987 0.658979 0.351987 0.668758 0.355061 0.678175 0.358316 0.687954L0.250723 0.658979C0.234448 0.65246 0.217993 0.649018 0.208229 0.645397 0.198464 0.642137 0.191411 0.638877 0.178392 0.645397 0.175137 0.645397 0.168627 0.645397 0.162117 0.645397 0.152353 0.649018 0.15615 0.645578 0.159405 0.639058 0.159405 0.632538 0.162479 0.632358 0.165734 0.629098 0.168989 0.622579 0.168989 0.619681 0.165734 0.616421 0.165734 0.613162 0.165734 0.606099 0.165734 0.602839 0.167361 0.59795 0.169622 0.595505 0.172063 0.59469ZM0.600215 0.6504C0.602702 0.648816 0.604033 0.646316 0.606955 0.649018 0.609877 0.651721 0.607317 0.652459 0.610571 0.658979 0.607317 0.665498 0.607497 0.668939 0.604242 0.668939 0.600987 0.672199 0.597009 0.672199 0.597009 0.668939 0.59701 0.66242 0.595388 0.660337 0.597009 0.655357 0.598631 0.650376 0.597729 0.651985 0.600215 0.6504ZM0.420702 0.655357C0.424318 0.655357 0.423776 0.662601 0.427031 0.662601 0.427031 0.66912 0.427528 0.672516 0.424318 0.675277 0.421109 0.678039 0.415616 0.675323 0.414373 0.671655 0.41313 0.667988 0.414373 0.662239 0.414373 0.658979 0.414373 0.655719 0.417447 0.655357 0.420702 0.655357ZM0.581639 0.66079C0.582458 0.660892 0.583538 0.661786 0.584351 0.662601 0.587245 0.66586 0.587064 0.668396 0.59068 0.671655 0.59068 0.674915 0.589641 0.682702 0.584351 0.685238 0.579062 0.687773 0.574406 0.685059 0.574406 0.678899 0.574406 0.672739 0.574406 0.668577 0.574406 0.665317 0.577118 0.662872 0.579181 0.660484 0.581639 0.66079ZM0.436976 0.665317C0.439847 0.663619 0.443305 0.668396 0.443305 0.671655 0.44656 0.674915 0.443305 0.685238 0.443305 0.685238 0.443306 0.688498 0.440231 0.687954 0.436976 0.687954 0.436976 0.687954 0.435168 0.689697 0.43336 0.685238 0.431552 0.680778 0.434106 0.667015 0.436976 0.665317ZM0.56446 0.671655C0.564912 0.677066 0.568077 0.684694 0.568077 0.687954 0.561567 0.691214 0.558131 0.695198 0.558131 0.695198 0.551621 0.695198 0.551802 0.694835 0.551802 0.691576 0.549086 0.683376 0.551802 0.668364 0.551802 0.666222 0.554756 0.665332 0.562983 0.662316 0.56446 0.671655ZM0.6169 0.668939C0.620155 0.668939 0.62323 0.668939 0.623229 0.668939 0.623229 0.675458 0.626846 0.675096 0.626846 0.681616 0.623591 0.681616 0.6169 0.687954 0.6169 0.687954L0.6169 0.668939ZM0.45958 0.671655C0.462835 0.671655 0.463196 0.678899 0.463196 0.678899 0.466451 0.685419 0.466451 0.691938 0.463196 0.695198 0.459942 0.695198 0.456506 0.695198 0.453251 0.695198 0.453481 0.687802 0.451078 0.674876 0.45958 0.671655ZM0.534146 0.673805C0.538512 0.677065 0.53824 0.678899 0.53824 0.678899 0.541496 0.688678 0.541495 0.694655 0.53824 0.697914 0.538241 0.697914 0.538782 0.701536 0.535528 0.701536 0.532273 0.701536 0.528837 0.701717 0.525582 0.695198 0.525582 0.691938 0.524339 0.685102 0.525582 0.678899 0.526825 0.672697 0.529779 0.670546 0.534146 0.673805ZM0.477663 0.675277C0.47929 0.67487 0.48146 0.675277 0.483088 0.675277 0.486342 0.678537 0.489417 0.678718 0.489417 0.685238 0.49231 0.688498 0.492129 0.694655 0.492129 0.697914 0.492129 0.701174 0.486975 0.701876 0.483088 0.701536 0.477366 0.700403 0.472479 0.695549 0.473142 0.689765 0.473201 0.683703 0.471526 0.678577 0.477663 0.675277ZM0.502979 0.678899C0.507505 0.67672 0.51331 0.679673 0.515637 0.685238 0.515637 0.688498 0.515637 0.698276 0.515637 0.701536 0.512382 0.704796 0.502075 0.704796 0.502075 0.701536 0.497266 0.694009 0.498452 0.681078 0.502979 0.678899ZM0.414219 0.684969C0.415554 0.689845 0.414373 0.691938 0.414373 0.695198 0.414373 0.698457 0.410756 0.697914 0.410756 0.697914 0.406769 0.694724 0.406236 0.687501 0.40714 0.684332 0.408044 0.681163 0.412494 0.681514 0.414219 0.684969ZM0.606955 0.685238C0.609667 0.686462 0.61021 0.695017 0.606955 0.701536 0.606955 0.704796 0.604242 0.701536 0.604242 0.701536 0.600987 0.695017 0.600287 0.691621 0.600626 0.687954 0.600965 0.684287 0.604242 0.684013 0.606955 0.685238ZM0.427031 0.692481C0.428349 0.693246 0.430647 0.695669 0.430647 0.701536 0.430647 0.711315 0.430647 0.710953 0.430647 0.714213 0.42381 0.715166 0.422152 0.710354 0.420702 0.704253 0.420702 0.700993 0.419647 0.69728 0.420702 0.695198 0.421757 0.693115 0.425712 0.691717 0.427031 0.692481ZM0.594297 0.695198C0.595088 0.700155 0.593935 0.704977 0.59068 0.711496 0.59068 0.714756 0.59068 0.717835 0.587064 0.717835 0.584171 0.717835 0.584351 0.717473 0.584351 0.714213 0.581096 0.704434 0.583108 0.701921 0.584351 0.697914 0.585595 0.693907 0.593506 0.69024 0.594297 0.695198ZM0.446922 0.701536C0.450968 0.703687 0.453251 0.711315 0.453251 0.717835 0.453251 0.717835 0.450538 0.720551 0.450538 0.724173 0.447284 0.724173 0.44656 0.724173 0.443305 0.720551 0.440051 0.717291 0.440932 0.714371 0.440593 0.711496 0.441582 0.702997 0.445392 0.700461 0.446922 0.701536ZM0.570789 0.704253C0.57079 0.714032 0.570789 0.721276 0.570789 0.727795 0.567535 0.731417 0.560844 0.72707 0.560844 0.724173 0.557589 0.720551 0.556975 0.715524 0.558847 0.711496 0.562057 0.705039 0.565741 0.704253 0.570789 0.704253ZM0.463196 0.706064C0.467399 0.707167 0.472023 0.709136 0.475854 0.711496 0.475854 0.718016 0.473142 0.724898 0.473142 0.727795 0.473142 0.727795 0.469525 0.731417 0.469525 0.731417 0.466271 0.731417 0.463196 0.72707 0.463196 0.724173 0.463196 0.718137 0.463196 0.7121 0.463196 0.706064ZM0.548186 0.714213C0.548186 0.717473 0.544569 0.724898 0.544569 0.731417 0.544569 0.734314 0.541857 0.734133 0.541857 0.734133 0.538602 0.734134 0.536206 0.736035 0.535528 0.731417 0.53485 0.726799 0.533113 0.712209 0.536432 0.70878 0.539751 0.70535 0.545555 0.709791 0.548186 0.714213ZM0.514733 0.711496C0.515953 0.711089 0.517626 0.711496 0.519253 0.711496 0.522508 0.711496 0.525582 0.714575 0.525582 0.717835 0.525582 0.724716 0.522508 0.731236 0.519253 0.734133 0.519253 0.734134 0.515275 0.734133 0.51202 0.734133 0.509528 0.726629 0.510594 0.724515 0.51202 0.714213 0.51202 0.712583 0.513512 0.711904 0.514733 0.711496ZM0.493033 0.712402C0.498233 0.715596 0.498409 0.725115 0.495746 0.731417 0.492491 0.734314 0.489417 0.737755 0.4858 0.734133 0.485496 0.728628 0.482621 0.708431 0.493033 0.712402ZM0.374591 0.740472C0.374591 0.743731 0.378569 0.747172 0.381824 0.750432 0.381824 0.756951 0.384536 0.763471 0.384536 0.766731L0.279656 0.806571C0.266636 0.813091 0.254159 0.819067 0.244394 0.825587 0.237884 0.828846 0.231013 0.83265 0.224503 0.839169 0.224503 0.839169 0.221067 0.838807 0.214558 0.835547 0.214558 0.822508 0.211122 0.809469 0.204612 0.80295 0.201357 0.792808 0.205335 0.789367 0.211845 0.789367 0.228119 0.795887 0.237884 0.789911 0.244394 0.786651L0.374591 0.740472ZM0.64312 0.750432 0.748001 0.792989C0.767531 0.799509 0.780731 0.803493 0.80677 0.796611 0.81328 0.796611 0.815992 0.79969 0.809483 0.806571 0.802973 0.813091 0.799899 0.819429 0.803154 0.829208 0.797005 0.838987 0.789772 0.841885 0.783263 0.841885 0.776753 0.838625 0.770785 0.832468 0.764276 0.829208 0.748001 0.819429 0.731726 0.812548 0.711835 0.809288 0.689051 0.799147 0.669341 0.792808 0.649449 0.783029L0.629558 0.773069C0.632813 0.76329 0.639504 0.756951 0.64312 0.750432Z"/></svg>