<svg width="772" height="772" viewBox="0 0 579 579" xmlns="http://www.w3.org/2000/svg" xmlns:xlink="http://www.w3.org/1999/xlink" overflow="hidden"><path d="M25.3012 289.672 289.33 553.7 553.403 289.628C465.35 201.676 377.472 113.549 289.374 25.643L25.3012 289.672Z" fill="#FFFFFF"/><path d="M147.659 148.012 6 289.672 147.669 431.341 289.328 573 431.016 431.312 572.704 289.624 431.063 147.984C353.166 70.0864 289.404 6.34347 289.376 6.34347 289.347 6.34347 225.576 70.0959 147.659 148.012ZM408.622 170.425 527.821 289.624 408.565 408.88 289.319 528.127 170.129 408.871 50.9394 289.615 170.139 170.416C235.696 104.859 289.347 51.2262 289.376 51.2262 289.404 51.2262 343.065 104.868 408.622 170.425Z" fill="#FF0000"/><path d="M358.688 105.688C347.645 117.639 358.653 166.81 335.844 212.906 324.019 200.293 319.277 176.638 305.875 164.813 312.945 182.944 293.249 181.37 300.344 244.438 289.637 241.761 289.306 237.349 265.656 208.969 270.06 236.491 267.263 253.911 272.781 284.656 272.781 284.656 267.081 283.455 239.656 263.344 248.557 293.326 233.008 356.455 268.438 401.094L268.313 401C271.039 441.394 299.512 474.762 337.438 484.844L268.906 484.844 268.906 513.875 460.031 513.875 460.031 484.844 385.5 484.844C419.812 475.721 446.366 447.528 453.125 412.313L453.125 412.281C462.518 397.268 504.529 348.669 472.219 270.469 472.219 270.469 462.739 287.847 445.406 292.531 445.406 292.531 467.614 255.513 449.344 225.531 449.344 225.531 443.989 247.438 425.719 248.375 425.719 248.375 434.612 201.651 410.719 171.906 402.047 191.615 415.911 199.782 387.063 216.063 383.116 155.34 370.513 145.105 358.688 105.688ZM352.375 238.125C363.39 244.904 371.314 256.562 373.719 278.438 374.776 288.059 378.373 293.573 381 303.344 374.701 302.001 368.167 301.281 361.469 301.281 353.284 301.281 345.349 302.331 337.781 304.313 336.104 272.444 352.784 279.441 352.375 238.125ZM312.188 261C312.188 261 316.596 288.779 327.844 307.531 319.919 310.595 312.524 314.726 305.813 319.719 302.118 290.92 310.485 284.408 312.188 261ZM409.938 275.188C409.938 275.188 414.067 303.003 419.688 321.656 410.781 314.539 400.538 309.022 389.406 305.531 394.098 295.931 401.315 283.288 409.938 275.188ZM268.813 305.938C268.813 305.938 277.183 314.38 299.063 325.219 291.385 332.122 284.867 340.289 279.813 349.375 276.401 338.2 271.612 321.336 268.813 305.938ZM454.094 316.188C454.828 326.468 454.841 351.477 450.156 365.063L450.187 365.531C446.048 352.912 439.296 341.483 430.562 331.875 436.196 327.373 445.774 320.193 454.094 316.188ZM360.656 327.094C397.487 327.094 427.375 357.013 427.375 393.844 427.375 430.674 397.487 460.563 360.656 460.563 323.826 460.563 293.938 430.674 293.938 393.844 293.938 357.013 323.826 327.094 360.656 327.094Z" transform="scale(0.8 0.8)"/></svg>