<svg width="500" height="500" viewBox="0 0 1 1" xmlns="http://www.w3.org/2000/svg" xmlns:xlink="http://www.w3.org/1999/xlink" id="svg23264" overflow="hidden"><defs id="defs23331"></defs><path d="M182.85 519.35 210.04 519.35 210.04 546.5 182.85 546.5 182.85 519.35Z" id="polygon23274" stroke="#000000" stroke-width="0.460514" stroke-miterlimit="10.433" fill="#FF7D00" fill-rule="evenodd" font-weight="400" transform="matrix(0.0361649 0 0 -0.036218 -6.60442 19.8015)"/><g id="g23363" transform="matrix(20.8311 0 0 20.8617 -5.97262 -4.94264)"><path d="M0.310414 0.25294 0.31038 0.252975 0.310345 0.253009 0.31031 0.253044 0.310276 0.253079 0.310224 0.253148 0.310154 0.253218 0.310102 0.25327 0.310067 0.253339 0.310033 0.253391 0.30998 0.253461 0.309963 0.253513 0.309928 0.253565 0.309894 0.253634 0.309876 0.253687 0.309859 0.253739 0.309842 0.253791 0.309842 0.253843 0.309824 0.253895 0.309824 0.253947 0.309824 0.253999 0.309824 0.254068 0.309824 0.254121 0.309824 0.254173 0.309824 0.254225 0.309842 0.254329 0.309842 0.25445 0.309859 0.254572 0.309876 0.254624 0.309876 0.254693 0.309894 0.254763 0.309894 0.254832C0.310397 0.25445 0.310519 0.253687 0.310414 0.25294Z" id="path23324" stroke-width="0" stroke-miterlimit="10.433" fill-rule="evenodd" font-weight="400"/><path d="M0.308227 0.275457C0.303332 0.276805 0.300545 0.272552 0.300137 0.268183 0.299842 0.265648 0.300987 0.264607 0.300102 0.262159 0.300849 0.262523 0.301491 0.263218 0.301821 0.263808 0.302324 0.261169 0.302637 0.258357 0.302394 0.255857 0.303505 0.256134 0.304269 0.258079 0.304737 0.258999 0.305987 0.255249 0.306317 0.251864 0.305432 0.24985 0.30656 0.249971 0.30722 0.251291 0.307984 0.252784 0.30873 0.251794 0.308609 0.249746 0.308609 0.247628 0.30873 0.246621 0.308904 0.245492 0.309529 0.244954 0.310137 0.249693 0.312463 0.249294 0.313765 0.254572 0.314234 0.25353 0.314321 0.252402 0.314199 0.250978 0.315727 0.251864 0.317064 0.25518 0.317776 0.259919 0.318453 0.259572 0.318765 0.258235 0.319026 0.256725 0.320501 0.258825 0.321022 0.261447 0.320276 0.264572 0.319894 0.265457 0.319651 0.26636 0.319772 0.267367 0.320397 0.266985 0.320605 0.266065 0.32097 0.265301 0.32123 0.26643 0.321491 0.267766 0.321265 0.268739 0.320519 0.274363 0.314338 0.276898 0.31064 0.275197 0.313262 0.27353 0.31597 0.272888 0.316647 0.267575 0.316265 0.26794 0.315588 0.26827 0.315206 0.268391 0.315779 0.266586 0.315953 0.264971 0.315276 0.264068 0.314564 0.265943 0.313574 0.267054 0.31281 0.267263 0.313713 0.26577 0.313887 0.263391 0.311265 0.25952 0.311769 0.264138 0.311265 0.266273 0.310067 0.26787 0.309321 0.266985 0.308522 0.2657 0.30814 0.263947 0.307394 0.265822 0.307324 0.268079 0.308244 0.270822 0.307307 0.270561 0.30656 0.269659 0.305571 0.264016 0.304321 0.266592 0.306019 0.269169 0.303175 0.267853 0.303921 0.27235 0.305831 0.274711 0.308227 0.275457Z" id="path23326" stroke-width="0" stroke-miterlimit="10.433" fill-rule="evenodd" font-weight="400"/><path d="M192.49 524.55 200.61 524.55 200.61 524.91 192.49 524.91 192.49 524.55Z" id="polygon23328" stroke-width="0" stroke-miterlimit="10.433" fill-rule="evenodd" font-weight="400" transform="matrix(0.0017361 0 0 -0.0017361 -0.03125 1.1875)"/></g></svg>