<svg width="772" height="772" viewBox="0 0 579 579" xmlns="http://www.w3.org/2000/svg" xmlns:xlink="http://www.w3.org/1999/xlink" overflow="hidden"><path d="M25.3012 289.672 289.33 553.7 553.403 289.628C465.35 201.676 377.472 113.549 289.374 25.643L25.3012 289.672Z" fill="#FFFFFF"/><path d="M6 289.672 289.328 573 572.704 289.624 289.376 6.34347 6 289.672ZM527.821 289.624 289.328 528.108 50.9489 289.606 289.376 51.2262 527.821 289.624Z" fill="#FF0000"/><path d="M289.175 142.825C288.302 142.834 287.59 142.856 287.25 142.875 274.891 143.725 263.96 148.093 257.1 154.925 254.917 157.098 253.534 158.984 252.325 161.45 251.475 163.179 251.044 164.48 250.675 166.2 250.439 167.324 250.4 167.571 250.4 169.725 250.4 171.813 250.423 172.162 250.65 173.4 250.896 174.78 270.151 304.83 270.425 306.975 270.614 308.468 271.127 310.436 271.675 311.825 274.538 319.053 280.86 324.113 288.4 325.2 289.817 325.408 292.908 325.408 294.325 325.2 303.651 323.858 311.081 316.314 312.3 306.95 312.64 304.333 331.829 174.585 332.075 173.3 332.292 172.072 332.3 171.721 332.3 169.775 332.3 167.498 332.235 166.681 331.8 165.075 331.063 162.373 329.603 159.569 327.675 157.15 326.144 155.222 323.644 152.951 321.225 151.25 315.782 147.433 308.213 144.556 300.625 143.45 297.223 142.959 296.006 142.863 292.075 142.825 291.088 142.816 290.048 142.816 289.175 142.825ZM291.275 343.95C290.778 343.948 290.306 343.956 289.85 343.975 282.347 344.296 275.24 347.491 269.675 353.075 267.993 354.757 266.923 356.041 265.6 358.025 262.529 362.646 260.897 367.131 260.075 373.15 259.914 374.359 259.905 379.833 260.075 381.175 260.888 387.789 263.309 393.664 267.325 398.7 268.298 399.928 270.275 401.97 271.475 403 275.103 406.109 279.481 408.429 283.875 409.525 286.747 410.243 288.241 410.425 291.35 410.425 294.411 410.425 295.963 410.23 298.675 409.55 306.064 407.707 312.712 402.949 317.125 396.325 320.375 391.43 322.249 386.01 322.75 380 322.882 378.384 322.798 374.292 322.6 372.875 322.043 368.765 321.047 365.424 319.375 361.975 314.66 352.29 305.67 345.583 295.475 344.175 294.362 344.026 292.765 343.954 291.275 343.95Z"/></svg>