<svg width="724" height="724" viewBox="0 0 919 919" xmlns="http://www.w3.org/2000/svg" xmlns:xlink="http://www.w3.org/1999/xlink" overflow="hidden"><path d="M459.5 909.3 909.3 459.5 459.5 9.7 9.7 459.5Z" fill="#FF0000"/><path d="M459.5 838 81 459.5 459.5 80.9 838 459.5Z" fill="#FFFFFF"/><path d="M461.6 170.1C408.6 170.1 365.6 216.4 365.6 273.5 365.6 310.6 379.48 362.7 406.54 394.6L403.23 428.46 330.63 454.76C331.79 460.43 336.81 464.69 342.81 464.69 343.87 464.69 344.9 464.54 345.88 464.29 347.26 469.65 352.11 473.6 357.88 473.6 358.49 473.6 359.09 473.55 359.68 473.46 361.1 478.76 365.92 482.67 371.68 482.67 373.37 482.67 374.98 482.33 376.45 481.72 376.84 485.7 380.21 488.82 384.3 488.82 385.1 488.82 385.88 488.7 386.61 488.47 387.61 494.32 392.71 498.78 398.85 498.78 403.63 498.78 407.78 496.08 409.85 492.13 411.94 493.72 414.54 494.67 417.36 494.67 419.19 494.67 420.93 494.26 422.49 493.55 424.11 496.99 427.12 499.64 430.78 500.78 430.64 501.23 430.53 501.71 430.53 502.21 430.53 504.74 432.58 506.78 435.1 506.78 437.62 506.78 439.67 504.74 439.67 502.21 439.67 501.65 439.56 501.12 439.37 500.62 444.7 498.75 448.53 493.69 448.53 487.72 448.53 484.99 447.72 482.45 446.34 480.32 448.58 480.02 450.3 478.13 450.3 475.81 450.3 473.84 449.05 472.17 447.3 471.54 449.2 469.35 450.37 466.54 450.37 463.37 450.37 462.78 450.31 462.19 450.23 461.62 454.92 459.84 458.23 455.31 458.23 450 458.23 446.68 456.91 443.68 454.79 441.45 455.18 441.56 455.58 441.64 456 441.64 458.52 441.64 460.56 439.59 460.56 437.07 460.56 434.54 458.52 432.5 456 432.5 455 432.5 454.08 432.83 453.32 433.38 452.41 431.68 450.76 430.45 448.8 430.13 450.34 427.61 451.24 424.67 451.24 421.5 451.24 419.45 450.85 417.5 450.17 415.68 454.88 413.92 458.27 409.38 458.27 404.06 458.27 400.95 457.13 398.12 455.27 395.94 458.72 394.8 461.21 391.55 461.21 387.71 461.21 384.56 459.52 381.81 457.01 380.29 458.19 378.81 458.89 376.95 458.89 374.91 458.89 374.39 458.84 373.88 458.75 373.39 460.55 373.3 462.21 372.69 463.57 371.67 463.46 372.21 463.41 372.75 463.41 373.31 463.41 376.39 465.01 379.09 467.41 380.63 466.93 381.95 466.66 383.37 466.66 384.85 466.66 389.92 469.66 394.26 474.02 396.2 473.62 397.62 473.39 399.12 473.39 400.66 473.39 405.92 475.87 410.6 479.72 413.6 476.35 415.07 473.99 418.43 473.99 422.34 473.99 426.25 476.34 429.6 479.7 431.08 479.03 432.24 478.64 433.59 478.64 435.03 478.64 438.19 480.49 440.9 483.17 442.16 482.4 444.07 481.97 446.15 481.97 448.33 481.97 450.95 482.6 453.43 483.7 455.63 483.17 456.23 482.7 456.85 482.25 457.52 481.42 456.68 480.27 456.16 479 456.16 476.48 456.16 474.43 458.2 474.43 460.73 474.43 463.25 476.48 465.29 479 465.29 479.22 465.29 479.42 465.26 479.63 465.23 479.6 465.65 479.57 466.07 479.57 466.5 479.57 469.67 480.48 472.61 482.03 475.12 480.7 477.64 479.94 480.51 479.94 483.56 479.94 488.24 481.72 492.48 484.61 495.7 483.81 497 483.34 498.52 483.34 500.16 483.34 504.83 487.12 508.62 491.8 508.62 495.96 508.62 499.41 505.62 500.12 501.66 502.41 501.41 504.56 500.74 506.51 499.73 507.51 501.9 509.71 503.42 512.26 503.42 515.77 503.42 518.61 500.58 518.61 497.07 518.61 494.42 516.97 492.15 514.66 491.2 515.3 489.82 515.76 488.33 516.04 486.79 517.41 487.16 518.84 487.37 520.33 487.37 520.51 487.37 520.7 487.35 520.89 487.35 522 490.21 524.78 492.23 528.04 492.23 530.54 492.23 532.76 491.03 534.16 489.17 534.95 492.05 537.58 494.17 540.72 494.17 543.09 494.17 545.18 492.95 546.4 491.1 547.72 491.91 549.26 492.39 550.93 492.39 555.72 492.39 559.6 488.5 559.6 483.71 559.6 482.11 559.16 480.62 558.4 479.33 559.06 479.55 559.77 479.66 560.49 479.66 564.25 479.66 567.3 476.62 567.3 472.86 567.3 472.54 567.27 472.23 567.22 471.92 568.67 474.71 571.57 476.61 574.93 476.61 579.66 476.61 583.5 472.83 583.59 468.12 585.85 466.72 587.43 464.31 587.68 461.52 588.12 461.67 588.58 461.76 589.07 461.76 591.59 461.76 593.64 459.72 593.64 457.19 593.64 456.67 593.55 456.16 593.38 455.69L586.44 453.46 513.94 430.12 513.65 399.17C524.65 387.33 533.24 372.07 539.46 355.48 551.24 324.08 557.56 290.88 557.56 273.5 557.56 228.5 514.56 170.1 461.56 170.1ZM313 462C311.75 462 310.58 462.36 309.59 462.97 292.34 469.58 278.02 475.07 272.59 477.27 260.42 482.13 251.39 495.14 251.39 508.03L251.39 549.57 318.69 617.87C319.37 618.02 320.09 618.09 320.82 618.09 324.55 618.09 327.81 616.06 329.55 613.09 330.9 613.6 332.37 613.89 333.9 613.89 340.77 613.89 346.34 608.32 346.34 601.45 346.34 600.96 346.3 600.47 346.25 600 348.09 602.28 350.91 603.74 354.08 603.74 359.64 603.74 364.18 599.23 364.18 593.64 364.18 592.13 363.84 590.71 363.25 589.43 365.25 588.72 366.99 587.39 368.19 585.67 369.47 586.98 371.25 587.79 373.19 587.79 377.08 587.79 380.29 584.63 380.29 580.79 380.29 578.76 379.43 576.94 378.06 575.65 380.64 574.4 382.6 572.08 383.37 569.26 384.99 571.04 387.24 572.24 389.76 572.5 388.76 573.73 388.13 575.3 388.13 577.02 388.13 580.91 391.29 584.02 395.23 584.02 399.17 584.02 402.33 580.86 402.33 577.02 402.33 573.83 400.21 571.14 397.33 570.27 399.57 568.42 401 565.62 401 562.49 401 561.56 400.87 560.68 400.63 559.83 400.94 559.85 401.25 559.87 401.56 559.87 402.98 559.87 404.33 559.58 405.55 559.05 405.66 561.76 407.87 563.93 410.61 563.93 413.41 563.93 415.69 561.65 415.69 558.85 415.69 556.11 413.52 553.9 410.8 553.79 411.33 552.57 411.63 551.22 411.63 549.8 411.63 548.93 411.5 548.1 411.29 547.3 413.82 547.3 415.87 545.26 415.87 542.73 415.87 540.21 413.82 538.17 411.29 538.17 411.16 538.17 411.04 538.19 410.91 538.2 410.65 534.4 408.69 531.07 405.78 528.97 405.781 528.68 405.82 528.39 405.82 528.09 405.82 521.22 400.25 515.66 393.38 515.66 390.99 515.66 388.76 516.34 386.87 517.52 387.14 516.8 387.29 516.02 387.29 515.21 387.29 511.61 384.38 508.69 380.78 508.69 380.13 508.69 379.52 508.79 378.93 508.96 379.02 508.38 379.07 507.78 379.07 507.18 379.07 500.31 373.51 494.74 366.64 494.74 364.51 494.74 362.51 495.27 360.76 496.21 359.19 493.65 356.76 491.71 353.79 490.82 354.16 490 354.38 489.08 354.38 488.12 354.38 484.52 351.46 481.6 347.86 481.6 347.01 481.6 346.21 481.77 345.47 482.06 345.42 475.23 339.88 469.71 333.04 469.71 331.93 469.71 330.87 469.87 329.85 470.14 328.86 467.81 326.55 466.17 323.85 466.17 322.26 466.17 320.81 466.74 319.68 467.69 319.24 464.51 316.53 462.06 313.23 462.06M617.53 463.52C614.47 463.76 611.98 466.01 611.39 468.96 610.46 468.48 609.41 468.21 608.29 468.21 604.53 468.21 601.49 471.25 601.49 475.01 601.49 475.38 601.52 475.74 601.58 476.09 599.51 474.55 596.95 473.63 594.17 473.63 587.3 473.63 581.73 479.19 581.73 486.06L581.73 486.12C580.47 485.82 579.16 485.63 577.8 485.63 568.7 485.63 561.39 492.98 561.39 502.05 561.39 502.9 561.47 503.73 561.6 504.55 560.63 504.12 559.56 503.88 558.44 503.88 555.85 503.88 553.56 505.14 552.12 507.06 550.63 506.57 549.05 506.3 547.4 506.3 539.31 506.3 532.73 512.69 532.4 520.7 531.88 520.59 531.35 520.54 530.8 520.54 526.45 520.54 522.92 524.07 522.92 528.42 522.92 529.75 523.25 530.99 523.82 532.09 522.57 531.38 521.12 530.97 519.58 530.97 514.79 530.97 510.9 534.86 510.9 539.65 510.9 542.15 511.97 544.4 513.66 545.98L513.66 546.06C511.66 546.26 509.98 547.61 509.34 549.45 509.08 550.02 508.94 550.65 508.94 551.31 508.94 552.91 509.77 554.31 511.02 555.14 511.89 555.81 512.96 556.22 514.14 556.22 516.32 556.22 518.14 554.85 518.9 552.93 520.08 553.57 521.43 553.93 522.87 553.93 523.52 553.93 524.15 553.85 524.76 553.71 524.71 554.23 524.68 554.76 524.68 555.3 524.68 557.28 525.07 559.17 525.77 560.91 522.97 561.57 520.88 564.07 520.88 567.07 520.88 568 521.08 568.87 521.44 569.66 522.34 571.95 524.56 573.58 527.17 573.58 529.34 573.58 531.23 572.46 532.33 570.78 532.74 570.2 533.07 569.57 533.28 568.88 535.23 569.81 537.41 570.34 539.72 570.34 540.44 570.34 541.13 570.27 541.82 570.18 541.41 571.27 541.18 572.45 541.18 573.69 541.18 575.32 541.58 576.85 542.27 578.21 541.95 578.15 541.62 578.11 541.28 578.11 538.48 578.11 536.2 580.38 536.2 583.19 536.2 585.99 538.48 588.27 541.28 588.27 543.81 588.27 545.89 586.41 546.27 583.99 547.64 589.37 552.51 593.35 558.27 593.35 560.88 593.35 563.27 592.55 565.27 591.18 565.87 596.17 570.12 600.04 575.27 600.04 577.89 600.04 580.27 599.04 582.07 597.38 582.05 597.68 582.02 597.99 582.02 598.3 582.02 605.16 587.59 610.73 594.46 610.73 596.81 610.73 599 610.07 600.88 608.93 599.94 610.21 599.38 611.79 599.38 613.5 599.38 617.79 602.85 621.26 607.13 621.26 609.72 621.26 612.01 619.98 613.42 618.04L680.72 556.05 680.72 510.65C680.72 496.88 665.9 479.67 647.98 473.55 643.98 472.18 617.42 463.55 617.42 463.55M464.02 469.55C460.51 469.55 457.67 472.39 457.67 475.9 457.67 478.32 459.04 480.4 461.04 481.47 459.13 482.02 457.73 483.76 457.73 485.84 457.73 488.37 459.78 490.41 462.3 490.41 464.82 490.41 466.87 488.37 466.87 485.84 466.87 484.32 466.12 482.98 464.97 482.15 468.02 481.69 470.36 479.08 470.36 475.9 470.36 472.39 467.52 469.55 464.02 469.55M441.32 475.44 441.29 475.71 440.97 475.54C441.09 475.51 441.21 475.47 441.32 475.44M455.1 497.05C452.57 497.05 450.53 499.1 450.53 501.62 450.53 504.14 452.57 506.19 455.1 506.19 457.62 506.19 459.67 504.14 459.67 501.62 459.67 499.1 457.62 497.05 455.1 497.05M413 501.91C409.4 501.91 406.48 504.83 406.48 508.43 406.48 512.03 409.4 514.94 413 514.94 416.6 514.94 419.52 512.03 419.52 508.43 419.52 504.83 416.6 501.91 413 501.91M486.86 513.49C484.05 513.49 481.76 515.78 481.76 518.59 481.76 521.41 484.05 523.7 486.86 523.7 487.27 523.7 487.67 523.64 488.04 523.54 488.23 527.14 491.19 530 494.83 530 495.33 530 495.81 529.94 496.28 529.84 499.44 529.48 501.9 526.84 501.9 523.57 501.9 522.41 501.57 521.34 501.03 520.4 499.96 518.04 497.59 516.4 494.83 516.4 493.71 516.4 492.66 516.67 491.73 517.15 491.1 515.05 489.17 513.5 486.86 513.5M416.01 525.17C413.48 525.17 411.44 527.22 411.44 529.74 411.44 532.27 413.48 534.31 416.01 534.31 416.97 534.31 417.87 534.01 418.61 533.49 418.78 536.85 421.52 539.49 424.92 539.49 428.43 539.49 431.27 536.65 431.27 533.14 431.27 529.64 428.43 526.8 424.92 526.8 423.17 526.8 421.59 527.51 420.44 528.65 419.96 526.65 418.16 525.14 416.01 525.14M505.01 557.65C501.25 557.65 498.21 560.69 498.21 564.45 498.21 565.31 498.37 566.13 498.66 566.89 496.2 567.23 494.29 569.33 494.29 571.89 494.29 572.61 494.45 573.29 494.72 573.89 495.43 575.68 497.17 576.96 499.22 576.96L499.35 576.96C502.17 576.96 504.45 574.68 504.45 571.88 504.45 571.65 504.41 571.43 504.38 571.21 504.59 571.23 504.8 571.24 505.01 571.24 508.77 571.24 511.81 568.2 511.81 564.44 511.81 560.68 508.77 557.64 505.01 557.64M451.71 566.22C448.2 566.22 445.36 569.07 445.36 572.57 445.36 576.08 448.2 578.92 451.71 578.92 455.21 578.92 458.05 576.08 458.05 572.57 458.05 569.07 455.21 566.22 451.71 566.22M414.71 567.15C411.91 567.15 409.63 569.42 409.63 572.23 409.63 575.03 411.91 577.3 414.71 577.3 417.51 577.3 419.78 575.03 419.78 572.23 419.78 569.42 417.51 567.15 414.71 567.15M422.15 580.93C418.26 580.93 415.05 584.09 415.05 587.93 415.05 591.47 417.66 594.39 421.05 594.9 421.03 595.16 421 595.42 421 595.69 418.84 593.91 416.08 592.83 413.06 592.83 408.54 592.83 404.59 595.26 402.41 598.83 400.57 596.8 397.92 595.52 394.96 595.52 390.26 595.52 386.32 598.74 385.21 603.1 383.59 601.99 381.64 601.35 379.53 601.35 373.97 601.35 369.43 605.85 369.43 611.45 369.43 612.23 369.52 612.98 369.69 613.71 367.02 611.28 363.48 609.78 359.59 609.78 353.38 609.78 348.06 613.54 345.76 618.9 344.14 617.8 342.19 617.15 340.08 617.15 334.52 617.15 329.98 621.65 329.98 627.25 329.98 628.06 330.08 628.85 330.26 629.6L452.46 753.7C454.06 753.03 455.18 751.45 455.18 749.61 455.18 747.87 454.16 746.38 452.7 745.65 454.43 745.04 455.68 743.42 455.68 741.48 455.68 739.65 454.57 738.08 452.99 737.4 454.56 736.37 455.59 734.6 455.59 732.59 455.59 729.84 453.67 727.59 451.1 726.97 456.21 723.44 459.57 717.55 459.57 710.87 459.57 706.74 458.29 702.92 456.11 699.77 459.63 697.57 461.97 693.67 461.97 689.22 461.97 684.22 458.99 679.87 454.7 677.91 456.39 676.62 457.48 674.6 457.48 672.31 457.48 669.92 456.29 667.81 454.48 666.53 455.51 665.31 456.12 663.74 456.12 662.02 456.12 658.13 452.96 655.02 449.02 655.02 448.43 655.02 447.87 655.1 447.32 655.23 448.11 653.6 448.57 651.77 448.57 649.83 448.57 648.02 448.17 646.3 447.47 644.75 451.13 644.49 454.01 641.45 454.01 637.75 454.01 634.75 452.09 632.14 449.4 631.15 452.03 628.87 453.71 625.51 453.71 621.75 453.71 617.45 451.53 613.66 448.21 611.43 450.13 609.24 451.31 606.37 451.31 603.23 451.31 600.48 450.41 597.95 448.89 595.89 450.85 595.19 452.26 593.33 452.26 591.13 452.26 588.33 449.99 586.05 447.18 586.05 445.47 586.05 443.96 586.91 443.04 588.21 440.77 585.4 437.29 583.6 433.39 583.6 431.56 583.6 429.84 584 428.28 584.7 427.09 582.49 424.75 580.98 422.06 580.98ZM491.25 582.96C486.58 582.96 482.79 586.75 482.79 591.42 482.79 592.86 483.16 594.22 483.79 595.4 482.57 594.4 481.01 593.79 479.31 593.79 475.41 593.79 472.21 596.94 472.21 600.79 472.21 604.14 474.55 606.94 477.69 607.65 476.77 609.39 476.24 611.36 476.24 613.46 476.24 617.46 478.17 621.07 481.15 623.34 480.01 625.46 479.36 627.88 479.36 630.45 479.36 634.44 480.92 638.06 483.46 640.75 482.63 642.62 482.16 644.68 482.16 646.85 482.16 647.69 482.25 648.51 482.38 649.31 481.36 648.61 480.15 648.15 478.84 648.06 479.7 646.89 480.22 645.45 480.22 643.89 480.22 639.99 477.06 636.89 473.12 636.89 469.22 636.89 466.02 640.04 466.02 643.89 466.02 645.76 466.74 647.45 467.93 648.71 464.98 649.55 462.81 652.27 462.81 655.49 462.81 659.38 465.97 662.49 469.91 662.49 470.13 662.49 470.34 662.45 470.56 662.43 469.26 664.65 468.5 667.24 468.5 670 468.5 675.25 471.19 679.86 475.26 682.55 469.88 684.84 466.1 690.18 466.1 696.4 466.1 700.91 468.09 704.95 471.24 707.71 467.98 709.95 465.84 713.7 465.84 717.95 465.84 719.69 466.2 721.34 466.84 722.84 465.93 724.35 465.4 726.11 465.4 728 465.4 730.18 466.11 732.2 467.29 733.85 466.27 734.66 465.6 735.9 465.6 737.31 465.6 738.83 466.37 740.18 467.54 740.98 466.32 741.77 465.54 743.13 465.54 744.69 465.54 744.97 465.57 745.25 465.62 745.52 464.62 746.33 463.94 747.56 463.94 748.97 463.94 750.81 465.06 752.38 466.65 753.06L598.35 631.46C598.61 630.72 598.76 629.93 598.76 629.1 598.76 625.2 595.6 622.1 591.76 622.1 590.55 622.1 589.41 622.41 588.42 622.94 587.2 618.75 583.33 615.69 578.75 615.69 576.77 615.69 574.94 616.27 573.38 617.25 573.4 616.99 573.42 616.74 573.42 616.48 573.42 609.61 567.85 604.04 560.98 604.04 559.37 604.04 557.84 604.36 556.43 604.92 556.25 601.18 553.18 598.2 549.43 598.2 545.53 598.2 542.43 601.36 542.43 605.3 542.43 605.6 542.45 605.9 542.49 606.19 540.72 603.31 537.54 601.38 533.91 601.38 533.33 601.38 532.77 601.44 532.22 601.53 532.14 594.73 526.61 589.24 519.79 589.24 519.09 589.24 518.42 589.31 517.75 589.42 517.42 585.84 514.4 583.04 510.75 583.04 507.71 583.04 505.13 584.96 504.13 587.65 503.82 587.63 503.51 587.61 503.19 587.61 501.77 587.61 500.4 587.82 499.1 588.18 497.89 584.99 494.81 582.71 491.19 582.71ZM463.05 610.69C460.24 610.69 457.97 612.97 457.97 615.77 457.97 617.29 458.65 618.63 459.7 619.56 458.34 620.84 457.49 622.66 457.49 624.68 457.49 628.57 460.65 631.68 464.59 631.68 468.49 631.68 471.69 628.52 471.69 624.68 471.69 621.82 469.99 619.37 467.54 618.26 467.96 617.52 468.22 616.68 468.22 615.77 468.22 612.97 465.95 610.69 463.15 610.69"/></svg>