<svg width="724" height="724" viewBox="0 0 735 735" xmlns="http://www.w3.org/2000/svg" xmlns:xlink="http://www.w3.org/1999/xlink" overflow="hidden"><path d="M367.5 727.4 727.5 367.4 367.5 7.4 7.5 367.4Z" fill="#FF0000"/><path d="M367.5 670.3 64.7 367.5 367.5 64.7 670.3 367.5Z" fill="#FFFFFF"/><g stroke="#000000" stroke-width="5"><path d="M223.7 367.2 504.9 367.2"/><path d="M462.7 418 495.68 441.79 464.32 456.89 506.52 460.68 495.16 475.78 518.46 475.78 519 492.54 224.8 490.935C224.8 490.935 274 476.355 282.1 482.3 292.92 477.43 371.9 443.9 371.9 446.1M296.18 420.12 297.8 334.72 255.08 311.52C255.08 311.52 248.59 307.19 239.4 309.9 236.15 310.98 231.83 312.06 231.83 312.06 231.83 312.06 255.13 292.59 259.41 294.22 263.74 295.84 294.02 310.44 294.02 310.44 294.02 310.44 290.77 287.73 282.66 281.24 274.55 274.75 243.19 249.88 243.19 249.88L243.19 243.93 285.91 269.89C285.91 269.89 287.53 245.02 278.91 230.42 270.26 215.82 263.81 202.84 263.81 202.84L266.51 200.68 287.61 233.12 294.61 210.92 298.94 209.84C298.94 209.84 293.53 241.2 297.32 250.94 301.11 260.67 315.16 313.67 315.16 313.67L336.26 283.37C336.26 283.37 336.8 270.93 335.72 262.27 334.64 253.62 333.02 213.6 333.02 213.6L336.81 213.6 342.76 257.4 376.86 217.93 376.86 222.26C376.86 222.26 343.35 264.46 344.97 273.66 346.59 282.85 348.21 288.26 342.27 301.24 336.33 314.22 332.54 323.44 332.54 323.44 332.54 323.44 350.38 302.34 358.5 300.73 366.61 300.19 377.41 301.27 384.98 294.78 392.55 288.29 410.94 267.78 410.94 267.78L382.28 312.08C382.28 312.08 368.77 312.62 363.37 318.57 357.96 324.52 335.79 349.93 335.79 349.93L335.79 408.33 372.55 426.71 327.68 433.2 316.86 448.88 302.26 436.44 261.64 440.175Z" stroke-width="4"/><path d="M355.2 445.1C365.49 440.81 382.2 433.74 391.96 419.68 402.06 405.14 437.92 343.98 487.16 348.88 484.46 355.37 475.8 369.43 475.8 369.43L510.9 358.61C510.9 358.61 511.44 405.11 444.93 434.81 414.11 445.63 407.63 446.17 404.93 449.91 402.23 453.7 389.83 472.62 389.83 472.62L334.69 448.32C334.69 448.32 348.75 447.805 355.2 445.105Z" fill="#FFFFFF"/></g><ellipse cx="484.3" cy="385.8" rx="5.95" ry="5.13"/></svg>