<svg width="772" height="772" viewBox="0 0 579 579" xmlns="http://www.w3.org/2000/svg" xmlns:xlink="http://www.w3.org/1999/xlink" overflow="hidden"><path d="M25.3012 289.672 289.33 553.7 553.403 289.628C465.35 201.676 377.472 113.549 289.374 25.643L25.3012 289.672Z" fill="#FFFFFF"/><path d="M147.659 148.012 6 289.672 147.669 431.341 289.328 573 431.016 431.312 572.704 289.624 431.063 147.984C353.166 70.0864 289.404 6.34347 289.376 6.34347 289.347 6.34347 225.576 70.0959 147.659 148.012ZM408.622 170.425 527.821 289.624 408.575 408.871 289.319 528.127 170.129 408.871 50.9489 289.606 170.139 170.416C235.696 104.859 289.347 51.2262 289.376 51.2262 289.404 51.2262 343.065 104.868 408.622 170.425Z" fill="#FF0000"/><path d="M437.625 288C436.656 287.997 435.677 288.044 435.063 288.156 433.87 288.381 203.796 350.15 202.969 350.469 196.449 353.032 192.073 360.139 190.75 370.344 190.478 372.411 190.351 376.184 190.469 378.594 190.658 382.503 191.168 385.833 192.125 389.719 196.023 405.546 205.871 417.982 216.406 420.344 217.635 420.615 220.522 420.693 221.75 420.469 222.789 420.292 450.779 359.158 453.094 358.438 457.499 357.067 460.817 353.992 463.25 349.031 464.608 346.279 465.428 343.616 466.125 339.719 466.68 336.648 467.158 335.328 468.469 333.344 470.063 330.922 472.826 328.858 475.625 328.031 476.086 327.901 487.465 324.852 500.906 321.25 514.347 317.636 525.634 314.54 526 314.375 531.433 311.883 533.411 303.947 530.281 297.25 528.557 293.577 525.432 290.865 522.125 290.156 521.003 289.92 519.29 289.947 518.156 290.219 517.637 290.349 506.443 293.343 493.25 296.875 480.069 300.418 468.979 303.386 468.625 303.469 468.2 303.575 467.265 303.625 465.906 303.625 463.638 303.613 462.768 303.463 460.938 302.719 458.646 301.774 457.202 300.623 454.875 297.906 451.391 293.843 448.246 291.279 444.75 289.625 443.25 288.928 441.636 288.404 440.219 288.156 439.569 288.044 438.594 288.003 437.625 288Z" transform="scale(0.8 0.8)"/></svg>