<svg width="772" height="772" viewBox="0 0 579 579" xmlns="http://www.w3.org/2000/svg" xmlns:xlink="http://www.w3.org/1999/xlink" overflow="hidden"><path d="M25.3012 289.672 289.33 553.7 553.403 289.628C465.35 201.676 377.472 113.549 289.374 25.643L25.3012 289.672Z" fill="#FFFFFF"/><path d="M147.659 148.012 6 289.672 147.669 431.341 289.328 573 431.016 431.312 572.704 289.624 431.063 147.984C353.166 70.0864 289.404 6.34347 289.376 6.34347 289.347 6.34347 225.576 70.0959 147.659 148.012ZM408.622 170.425 527.821 289.624 408.565 408.88 289.319 528.127 170.129 408.871 50.9394 289.615 170.139 170.416C235.696 104.859 289.347 51.2262 289.376 51.2262 289.404 51.2262 343.065 104.868 408.622 170.425Z" fill="#FF0000"/><path d="M393.5 171.563C393.413 171.574 393.352 171.667 393.281 171.844 393.222 172.021 381.943 204.17 368.219 243.313 354.494 282.455 343.235 314.535 343.188 314.594 343.046 314.735 342.051 314.376 342.063 314.188 342.074 314.058 371.392 222.834 371.688 222.031 371.723 221.937 370.846 221.344 369.063 220.281 366.405 218.699 366.094 218.53 366.094 218.719 366.094 218.884 341.672 314.078 341.625 314.125 341.601 314.16 340.936 314.006 340.156 313.781 338.29 313.25 335.118 312.604 333.063 312.344 330.759 312.06 325.516 312.048 323.438 312.344 313.729 313.702 305.862 317.718 299 324.781 294.181 329.742 290.344 336.175 288.313 342.719 288.064 343.498 287.828 344.172 287.781 344.219 287.734 344.266 284.004 341.538 279.469 338.125 274.933 334.712 271.18 331.933 271.156 331.969 271.133 331.992 271.589 332.929 272.156 334.063L273.188 336.125 280.313 340.906C287.198 345.524 287.403 345.693 287.344 346 287.285 346.295 287.516 346.581 289.5 348.719 290.717 350.042 292.055 351.469 292.469 351.906L293.25 352.688 295.344 352.563 297.438 352.438 301.375 355.063C303.536 356.492 305.17 357.54 304.969 357.375 304.78 357.21 303.213 356.006 301.5 354.719 299.799 353.443 298.48 352.387 298.563 352.375 298.645 352.363 301.377 352.208 304.625 352.031L310.531 351.719 319.031 356C323.732 358.339 327.621 360.25 327.656 360.25 327.692 360.25 329.827 357.704 332.438 354.563 335.048 351.433 337.261 348.782 337.344 348.688 337.474 348.534 337.131 347.64 335.313 343.188 334.12 340.27 333.164 337.867 333.188 337.844 333.211 337.832 336.186 338.141 339.813 338.531 343.439 338.921 346.422 339.223 346.469 339.188 346.504 339.14 346.98 337.337 347.5 335.188L348.469 331.25 351.406 331.219C353.024 331.207 354.796 331.234 355.375 331.281L356.438 331.375 346.375 342.375C340.824 348.411 336.192 353.491 336.063 353.656 335.614 354.188 339.614 350.18 348.969 340.719L358.188 331.375 361.625 331.313 365.031 331.25 364.438 330.375C364.095 329.891 363.449 329.043 363 328.5 362.551 327.957 362.207 327.485 362.219 327.438 362.242 327.39 363.527 326.051 365.063 324.469L367.844 321.625 368.156 322.281C368.322 322.659 368.438 323.003 368.438 323.063 368.438 323.251 368.592 323.193 373.281 321.031 375.703 319.921 377.734 319.066 377.781 319.125 377.829 319.172 378.273 320.685 378.781 322.469 379.277 324.252 379.734 325.765 379.781 325.813 379.864 325.907 394.149 314.371 394.563 313.875 394.657 313.745 396.433 310.514 398.5 306.688 400.567 302.849 402.397 299.502 402.563 299.219 402.728 298.935 402.801 298.695 402.719 298.719 402.648 298.742 399.707 301.176 396.188 304.094L389.781 309.375 385.188 309.5C382.648 309.559 380.388 309.586 380.188 309.563 379.845 309.527 382.384 306.943 423.156 265.781 446.98 241.734 466.5 222.016 466.5 221.969 466.5 221.922 465.37 220.765 464 219.406 461.661 217.068 461.501 216.955 461.313 217.156 461.206 217.263 441.388 238.837 417.281 265.094L373.469 312.844 370 315.281C368.098 316.616 366.477 317.773 366.406 317.844 366.324 317.926 366.416 318.23 366.688 318.844 367.018 319.623 367.048 319.76 366.906 319.938 366.776 320.103 362.218 325.129 361.344 326.063 361.131 326.287 361.121 326.273 360.094 325.281 358.098 323.309 356.209 321.79 353.906 320.219L352.781 319.438 374.5 282.125C391.626 252.703 396.181 244.794 396.063 244.688 395.992 244.605 394.869 243.905 393.594 243.125L391.25 241.688 390.844 242.406C390.631 242.808 381.829 260.196 371.281 281.031 360.403 302.551 352.063 318.906 351.969 318.906 351.851 318.906 351.866 318.766 352.031 318.281 352.161 317.951 363.684 285.817 377.656 246.875 391.641 207.933 403.055 176.04 403.031 175.969 402.984 175.862 394.491 171.893 393.594 171.563 393.558 171.551 393.529 171.559 393.5 171.563ZM350.406 226.094 349.188 229.125 348 232.188 345.688 231.281C344.4 230.773 343.317 230.39 343.281 230.438 343.246 230.485 342.7 233.042 342.063 236.125 341.437 239.208 340.91 241.831 340.875 241.938 340.84 242.079 341.36 242.364 343.25 243.25 344.608 243.888 345.753 244.453 345.813 244.5 345.86 244.547 346.44 246.633 347.125 249.125 347.798 251.605 348.383 253.664 348.406 253.688 348.43 253.711 349.393 252.338 350.563 250.625 352.783 247.377 352.777 247.388 359.781 239.781L360.156 239.375 358.125 232.813 356.094 226.25 355.219 226.188C354.734 226.14 353.462 226.106 352.375 226.094L350.406 226.094ZM511.469 255.25C511.422 255.25 511.348 255.39 511.313 255.531 510.946 256.748 507.203 268.328 507.156 268.375 507.133 268.41 504.602 268.546 501.531 268.688L495.938 268.938 494.344 270.125C493.47 270.798 492.742 271.363 492.719 271.375 492.683 271.41 491.195 280.933 491.219 280.969 491.266 281.004 499.933 285.969 499.969 285.969 499.992 285.969 501.567 284.293 503.469 282.25 505.382 280.207 506.965 278.519 507 278.531 507.035 278.531 510.166 280.663 513.969 283.25L520.875 287.938 520.906 286.219C520.918 285.274 520.914 281.42 520.844 277.688L520.719 270.906 516.125 263.063C513.597 258.763 511.516 255.25 511.469 255.25ZM393.938 260.031 393.719 260.313C393.601 260.466 392.893 261.488 392.125 262.563L390.75 264.5 389.875 268.875C389.403 271.284 389 273.37 389 273.5 389.012 273.665 390.003 274.599 392.094 276.406 393.795 277.871 395.21 279.063 395.281 279.063 395.34 279.063 396.408 277.851 397.625 276.375L399.844 273.656 400.344 271.219C400.615 269.884 400.898 268.484 400.969 268.094L401.094 267.375 399.75 263.75C399.018 261.766 398.379 260.11 398.344 260.063 398.296 260.015 397.798 260.511 397.219 261.125L396.188 262.25 395.063 261.125 393.938 260.031ZM466.156 266.5C466.097 266.5 440.058 284.832 408.25 307.25 376.442 329.68 350.414 348.039 350.438 348.063 350.449 348.086 376.532 331.948 408.375 312.188L466.25 276.25 466.25 271.344C466.25 268.663 466.203 266.488 466.156 266.5ZM454.719 298.375 452.375 301 450 303.594 448.875 306.625C448.249 308.29 447.738 309.664 447.75 309.688 447.797 309.735 468.39 312.203 468.438 312.156 468.461 312.144 465.373 309.018 461.594 305.25L454.719 298.375ZM549.688 300.188C549.628 300.176 503.759 312.035 447.75 326.563 391.741 341.09 345.914 353.008 345.938 353.031 345.973 353.067 552.48 306.29 552.563 306.219 552.633 306.171 549.782 300.211 549.688 300.188ZM429.688 314.188C429.628 314.199 414.365 321.388 395.75 330.188 377.135 338.987 361.813 346.242 361.719 346.313 361.589 346.407 361.631 346.415 361.844 346.344 362.257 346.202 430.269 319.961 430.281 319.937 430.293 319.937 430.204 318.645 430.063 317.062 429.921 315.326 429.77 314.187 429.688 314.187ZM577.25 321.281C577.096 321.293 526.77 329.832 465.375 340.25 403.992 350.656 353.603 359.188 353.438 359.188 353.237 359.199 352.722 358.845 351.813 358.125L350.438 357.031 350.375 361.563 350.313 366.094 346.781 368.5C344.832 369.811 343.176 370.863 343.094 370.875 343.011 370.875 341.517 369.877 339.781 368.625 335.175 365.294 335.106 365.305 339.5 368.719 341.154 370.006 342.578 371.078 342.625 371.125 342.743 371.231 337.072 375.059 336.906 375 336.824 374.976 322.886 363.101 319.438 360.125L318.656 359.437 312.188 365.031C308.632 368.114 305.672 370.656 305.625 370.656 305.566 370.656 301.906 369.701 297.5 368.531L289.5 366.406 291.75 366.469C292.99 366.504 294.863 366.527 295.938 366.562 297.792 366.61 292.507 366.214 286.188 365.812 285.018 365.73 278.68 365.3 272.125 364.875L260.188 364.094 260.156 363.75C260.085 363.348 260.133 363.364 259.094 363.719 258.35 363.967 258.241 363.954 255.938 363.812 254.638 363.741 253.292 363.66 252.938 363.625L252.281 363.531 251.719 362.5 251.156 361.5 247.125 361.281C244.905 361.163 242.8 361.094 242.469 361.094L241.875 361.094 241.344 361.937 240.844 362.812 240.25 362.75C239.919 362.738 227.557 361.949 212.781 360.969 198.005 360 185.717 359.207 185.469 359.219L185.031 359.25 186.406 360.719C187.599 362.018 187.821 362.215 188.188 362.25 188.424 362.274 200.113 362.746 214.156 363.312 228.2 363.879 239.746 364.371 239.781 364.406 239.817 364.442 239.252 365.432 238.531 366.625 237.823 367.806 237.253 368.847 237.313 368.906 237.36 368.953 239.074 370.172 241.094 371.625L244.75 374.281 248.781 374.937C250.99 375.315 252.886 375.598 252.969 375.562 253.051 375.539 253.659 374.61 254.344 373.5L255.594 371.469 258.156 371.469 260.719 371.469 260.719 371.031C260.719 370.783 260.63 369.378 260.5 367.937 260.37 366.485 260.277 365.285 260.313 365.25 260.383 365.179 285.819 366.155 286.469 366.25 286.776 366.297 286.844 366.334 286.844 366.594 286.844 367.031 287.465 369.776 287.938 371.406 288.339 372.776 288.342 372.785 288.094 372.844 287.964 372.867 256.666 376.454 218.563 380.812 180.459 385.183 149.293 388.781 149.281 388.781 149.246 388.805 148.996 391.84 149.031 391.875 149.055 391.887 180.341 387.661 218.563 382.5 256.784 377.338 288.144 373.125 288.25 373.125 288.38 373.125 288.542 373.379 288.719 373.875 288.872 374.288 289.221 375.132 289.469 375.781 289.717 376.419 289.899 376.957 289.875 376.969 289.851 376.98 266.458 382.161 237.875 388.469 209.292 394.776 185.817 400.003 185.688 400.062 185.487 400.145 185.365 400.45 185.094 401.844 184.905 402.765 184.808 403.558 184.844 403.594 184.903 403.641 289.621 377.845 290.094 377.656 290.165 377.633 290.393 377.962 290.594 378.375 290.854 378.895 290.907 379.152 290.813 379.187 290.73 379.211 282.841 381.343 273.25 383.906L255.781 388.531 255.563 390.312C255.433 391.293 255.332 392.113 255.344 392.125 255.356 392.137 263.504 389.471 273.438 386.187 291.556 380.211 291.676 380.172 291.688 380.656 291.688 380.727 278.962 387.653 263.406 396.062L235.094 411.344 235.187 412.469C235.235 413.083 235.265 413.783 235.312 414.031L235.406 414.469 263.5 397.938C278.961 388.843 291.706 381.328 291.813 381.281 291.966 381.187 292.189 381.474 292.969 382.75 293.855 384.215 295.053 385.921 296.281 387.469 296.754 388.083 296.783 388.171 296.594 388.313 296.487 388.383 281.595 400.274 263.5 414.719L230.625 441 232.938 443.281C234.225 444.533 235.374 445.597 235.469 445.656 235.61 445.739 240.007 441.73 255.125 427.875 265.85 418.036 274.633 410.019 274.656 410.031 274.68 410.055 274.513 410.411 274.313 410.813 274.112 411.202 273.969 411.566 273.969 411.625 273.969 411.708 277.213 415.377 277.969 416.156 278.17 416.357 278.275 416.328 280.531 415.313L282.875 414.25 284.063 415.438 285.25 416.594 287.594 415.188 289.969 413.75 290.875 410.719C291.383 409.042 291.769 407.594 291.781 407.5 291.781 407.394 290.889 406.76 289.625 405.969L287.5 404.625 284.063 404.563 280.656 404.5 289.063 396.781C293.681 392.553 297.476 389.094 297.5 389.094 297.512 389.094 298.46 390.003 299.594 391.125 300.728 392.247 302.194 393.605 302.844 394.125 310.722 400.432 319.674 403.49 329.313 403.219 336.884 403.006 343.618 400.869 350.031 396.688 352.677 394.963 354.341 393.612 356.75 391.25L358.25 389.813 380.719 407.906C393.097 417.875 403.226 426.012 403.25 426 403.262 425.976 402.674 424.576 401.906 422.875L400.531 419.781 379.656 404.469 358.781 389.188 359.188 388.688C359.412 388.428 360.016 387.669 360.5 387.031 360.996 386.405 361.453 385.894 361.5 385.906 361.559 385.93 374.157 395.762 389.5 407.75 404.843 419.738 417.584 429.686 417.844 429.875L418.313 430.219 419.656 428.875C420.4 428.131 421.012 427.485 421 427.438 420.976 427.402 407.833 417.86 391.781 406.25 375.742 394.64 362.513 385.075 362.406 384.969 362.217 384.792 362.252 384.7 362.938 383.625 363.398 382.905 363.718 382.496 363.813 382.531 363.895 382.567 375.82 389.837 390.313 398.719 404.793 407.589 416.683 414.805 416.719 414.781 416.742 414.746 416.116 413.399 415.313 411.781L413.844 408.844 389.031 395.219 364.219 381.594 365.063 379.938C365.535 379.028 366.119 377.871 366.344 377.375L366.75 376.469 382.125 380.438C390.582 382.623 397.515 384.453 397.563 384.5 397.657 384.595 396.478 386.25 396.313 386.25 396.253 386.25 394.164 385.855 391.719 385.406 389.262 384.946 387.188 384.594 387.094 384.594 386.964 384.594 386.444 385.421 385.594 386.969L384.281 389.375 387.375 391.656C389.076 392.92 391.223 394.502 392.156 395.188L393.844 396.438 406.406 398.594C413.304 399.775 418.976 400.711 419 400.688 419.035 400.652 419.257 397.454 419.375 395.375L419.406 394.656 417.344 392.281 415.281 389.938 412.719 388.844C411.301 388.241 410.176 387.731 410.187 387.719 410.199 387.707 418.228 389.754 428.031 392.281 437.835 394.809 445.937 396.875 446.031 396.875 446.114 396.875 446.156 396.84 446.156 396.781 446.156 396.734 446.512 394.319 446.937 391.438 447.363 388.556 447.699 386.211 447.687 386.188 447.664 386.176 429.614 383.614 407.562 380.531 385.523 377.449 367.461 374.899 367.437 374.875 367.414 374.851 367.65 374.031 367.969 373.063 368.299 372.094 368.562 371.231 368.562 371.125 368.562 370.995 367.701 370.647 365.469 369.844L362.375 368.75 361.75 367.656C361.407 367.078 361.152 366.567 361.188 366.531 361.211 366.496 378.553 367.309 399.719 368.313L438.188 370.125 438.5 370.438 438.813 370.781 445.781 371.25 452.719 371.719 453.125 371.281 453.531 370.844 502.719 373.188C529.778 374.463 551.926 375.481 551.938 375.469 551.961 375.445 551.028 374.737 549.906 373.875L547.875 372.281 501.531 370.844C476.043 370.029 455.126 369.356 455.031 369.344 454.937 369.32 456.332 367.639 458.375 365.313 460.312 363.116 461.867 361.293 461.844 361.281 461.832 361.258 456.26 358.781 449.469 355.781 442.677 352.781 437.11 350.285 437.063 350.25 437.015 350.226 435.475 351.639 433.656 353.375L430.344 356.531 425.656 358.094C423.093 358.956 420.961 359.683 420.938 359.719 420.902 359.742 421.366 361.654 421.969 363.969 422.571 366.284 423.004 368.234 422.969 368.281 422.922 368.317 409.004 367.887 392.031 367.344 375.07 366.812 361.141 366.394 361.094 366.406 361.047 366.406 360.776 365.977 360.469 365.469 359.937 364.595 359.814 364.465 356.625 361.938L353.313 359.344 353.938 359.25C354.28 359.203 404.711 352.358 466 344.031L577.438 328.906 577.5 325.094 577.5 321.281 577.25 321.281ZM262.875 339.656C262.871 339.682 262.888 339.725 262.906 339.781 262.953 339.911 263.162 340.488 263.375 341.031L263.781 342 282.25 350.906C292.396 355.796 300.726 359.762 300.75 359.75 300.762 359.726 292.524 355.319 282.438 349.969 272.363 344.618 263.823 340.095 263.469 339.906 263.035 339.658 262.886 339.58 262.875 339.656ZM246.656 350.469C246.621 350.469 245.832 351.142 244.875 351.969 243.918 352.796 243.172 353.496 243.219 353.531 243.337 353.626 298.273 362.196 298.344 362.125 298.391 362.09 246.857 350.457 246.656 350.469ZM298.719 362.156C298.589 362.144 298.515 362.183 298.563 362.219 298.598 362.254 298.699 362.254 298.781 362.219 298.876 362.183 298.849 362.156 298.719 362.156ZM253.031 364.844 253.844 364.906C254.281 364.953 254.811 364.988 255 365 255.295 365 255.259 365.057 254.656 365.281 253.428 365.754 253.486 365.754 253.25 365.281L253.031 364.844ZM434.656 366.406C434.727 366.406 435.292 366.932 435.906 367.594L437 368.813 435 368.719C433.89 368.672 431.715 368.61 430.156 368.563 428.597 368.527 427.406 368.442 427.5 368.406 427.807 368.3 434.538 366.418 434.656 366.406ZM298.344 366.656C298.316 366.668 298.32 366.701 298.344 366.719 298.379 366.754 298.48 366.754 298.563 366.719 298.657 366.683 298.599 366.656 298.469 366.656 298.404 366.65 298.372 366.644 298.344 366.656ZM208.313 370.219C208.265 370.207 206.609 371.418 204.625 372.906L201.031 375.563 201 377C200.965 378.406 200.959 378.453 201.219 378.5 201.656 378.595 220.928 380.348 221.094 380.313 221.212 380.277 208.549 370.278 208.313 370.219ZM232.281 393.25C232.281 393.356 239.507 400.313 239.625 400.313 239.696 400.313 240.899 399.836 242.281 399.281L244.781 398.281 244.781 396.094 244.781 393.906 244.469 393.906C244.055 393.906 233.933 393.352 233 393.281 232.587 393.246 232.281 393.226 232.281 393.25ZM205.75 411.625C205.715 411.625 205.649 411.71 205.625 411.781 205.59 411.864 205.029 413.756 204.344 416L203.094 420.094 203.469 420.625C205.512 423.471 210.585 430.383 210.656 430.406 210.703 430.418 210.939 429.853 211.188 429.156 211.436 428.448 211.954 426.993 212.344 425.906L213.031 423.938 213.469 423.875C213.717 423.84 214.727 423.766 215.719 423.719L217.5 423.656 218.906 422.125 220.313 420.625 221.063 418.344C221.464 417.104 221.742 416.086 221.719 416.063 221.648 415.992 215.067 413.531 214.938 413.531 214.867 413.531 214.387 414.077 213.844 414.75 213.3 415.435 212.77 415.961 212.688 415.938 212.617 415.914 211.042 414.951 209.188 413.781 207.333 412.6 205.785 411.625 205.75 411.625Z" transform="scale(0.8 0.8)"/></svg>