<svg width="500" height="500" viewBox="0 0 1 1" xmlns="http://www.w3.org/2000/svg" xmlns:xlink="http://www.w3.org/1999/xlink" id="svg24400" overflow="hidden"><defs id="defs24473"></defs><path d="M182.85 519.35 210.04 519.35 210.04 546.5 182.85 546.5 182.85 519.35Z" id="polygon24410" stroke="#000000" stroke-width="0.460351" stroke-miterlimit="10.43" fill="#FF7D00" fill-rule="evenodd" font-weight="400" transform="matrix(0.0361654 0 0 -0.0362189 -6.60452 19.802)"/><path d="M0.266413 0.0957041 0.237362 0.147873 0.19028 0.101724 0.229348 0.173957 0.244375 0.271271 0.144199 0.217096 0.244375 0.28632 0.266413 0.416741 0.136185 0.353537 0.0911056 0.401692 0.143197 0.379621 0.28144 0.472922 0.28144 0.581272 0.0249893 0.581272 0.0249893 0.596321 0.28144 0.596321 0.28144 0.756839 0.177257 0.809008 0.293461 0.793959 0.337538 0.842115 0.382618 0.789946 0.490807 0.778911 0.397644 0.704671 0.400649 0.596321 0.688154 0.596321 0.647082 0.651499 0.583971 0.633441 0.553918 0.752826 0.56093 0.763862C0.520059 0.804794 0.478986 0.827669 0.411669 0.846128L0.441721 0.857163 0.218329 0.969526 0.203303 0.954478 0.0129683 0.991597 0.986678 0.991597 0.986678 0.947455 0.893514 0.943442 0.922565 0.891273 0.800351 0.876225 0.934587 0.813021 0.856449 0.804995 0.908541 0.793959 0.8855 0.733765C0.900326 0.715306 0.938193 0.66735 0.956625 0.596321L0.982671 0.596321 0.982671 0.581272 0.960632 0.581272 0.964639 0.555188 0.867469 0.585285 0.874481 0.521078C0.856049 0.513453 0.810969 0.517868 0.77731 0.529104 0.740045 0.544353 0.706787 0.581272 0.70318 0.581272L0.400649 0.581272 0.411669 0.468909 0.475781 0.405705 0.508839 0.401692 0.621036 0.293342 0.505834 0.382631 0.471774 0.375608 0.411669 0.424767 0.411669 0.282307 0.42369 0.228132 0.493813 0.162921 0.416677 0.218099 0.40666 0.0957041 0.383619 0.279297 0.337538 0.409718 0.251387 0.165931 0.266413 0.0957041ZM0.852442 0.536126 0.840421 0.614379 0.941599 0.581272C0.933985 0.607357 0.926372 0.63304 0.911546 0.655512 0.852242 0.812418 0.617229 0.798173 0.557925 0.891273 0.527873 0.872413 0.502027 0.853752 0.464762 0.846128 0.673527 0.7755 0.662109 0.536126 0.852442 0.536126ZM0.878488 0.637454C0.878488 0.645078 0.885901 0.651499 0.893514 0.651499 0.922149 0.642872 0.887909 0.607569 0.878488 0.637454ZM0.598997 0.667551C0.598997 0.667551 0.632056 0.670962 0.636063 0.674574L0.575957 0.748813 0.572952 0.745804 0.598997 0.667551ZM0.870474 0.748813 0.878488 0.782924 0.774305 0.804995C0.807964 0.790147 0.840421 0.767674 0.870474 0.748813Z" id="path24470" stroke-width="0" stroke-miterlimit="10.433" fill-rule="evenodd" font-weight="400"/></svg>