<svg width="500.299" height="500.302" xmlns="http://www.w3.org/2000/svg" xmlns:xlink="http://www.w3.org/1999/xlink" id="svg1979" overflow="hidden"><defs id="defs2046"></defs><path d="M182.85 519.35 210.04 519.35 210.04 546.5 182.85 546.5 182.85 519.35Z" id="polygon1989" stroke="#000000" stroke-width="0.460349" stroke-miterlimit="10.433" fill="#FF7D00" fill-rule="evenodd" font-weight="400" transform="matrix(18.0936 0 0 -18.1203 -3304.24 9906.91)"/><g id="g22541" transform="matrix(4.70524 0 0 4.70463 -6.35588 7.45425)"><path d="M99.5444 63.8765 99.5444 80.7849C95.0837 82.287 92.6227 82.8648 85.6241 83.1729 84.432 83.1729 81.2403 83.1729 78.8946 82.8648 78.0101 82.5952 73.1649 81.6708 71.9729 81.9789L58.1294 81.9789C55.1684 81.9789 55.0531 78.4355 58.014 78.4355L72.0882 78.4355C72.665 78.1273 72.5497 77.5496 71.9729 77.5496L51.7076 77.5496C48.439 77.5496 48.2467 73.3514 51.5153 73.0818L69.0119 73.0818C69.5887 72.7736 69.4734 72.4655 69.0119 72.1959L49.631 72.1959C46.9777 72.1959 46.7854 68.3443 49.4388 68.3443L71.0115 68.3828C71.7421 68.0747 71.6652 67.4199 70.7808 67.4199L52.9766 67.4199C49.708 67.4199 50.131 62.9906 53.3995 62.9906L58.7447 62.9906C59.0138 65.5712 62.4747 63.5683 62.1671 62.9906 62.1671 62.9906 62.3593 62.875 62.667 62.875 64.1667 66.1489 67.2046 64.2616 67.5122 63.0676L75.0877 62.9906C75.7029 62.9906 75.5106 62.3743 74.9338 62.1047 71.3576 61.1803 70.204 61.1803 68.7043 59.4086 67.8198 58.5228 68.1274 57.5598 68.7043 56.3658 69.0119 56.0577 69.3195 56.1348 71.05 56.751 71.7037 56.9436 71.9729 57.0206 72.5497 57.0206 74.6262 57.5984 75.9721 57.7524 77.1642 57.7524 83.9705 59.216 91.546 61.1803 99.5444 63.8765Z" id="path2017" stroke-width="0" stroke-miterlimit="10.433" fill-rule="evenodd" font-weight="400"/><path d="M24.3283 70.8093 24.3283 70.8093 24.3667 71.7337C24.3667 71.7337 24.5974 72.0418 24.6359 72.0033 24.6359 72.2729 24.6743 72.2729 24.982 72.581 25.2896 72.581 25.5203 72.6581 25.5203 72.581 25.5203 72.8892 25.7895 73.2358 25.828 73.1588 25.828 73.775 26.0587 73.8135 26.3663 74.0832 26.3663 74.0832 27.0201 74.1217 27.2892 74.1217 27.5969 74.4298 27.6353 74.3913 27.9429 74.3913 28.5582 74.3913 29.0197 74.0061 29.0197 73.698 29.3273 73.4284 29.4042 73.2358 29.6734 73.2358 29.6734 72.9277 30.0195 72.9277 30.6347 72.6196 30.9039 72.6196 30.8654 72.5425 31.1346 72.5425 31.4423 72.5425 32.0575 72.6196 32.0575 72.3114 32.0575 71.7337 32.2883 71.4256 32.5959 71.156 32.5959 71.156 33.0958 70.8093 32.9035 70.8093L42.0171 70.8093 42.0171 77.3185 9.48499 77.3185 9.48499 70.8093 24.3283 70.8093Z" id="path2019" stroke-width="0" stroke-miterlimit="10.433" fill-rule="evenodd" font-weight="400"/><path d="M29.0718 47.729C28.7737 48.307 28.4803 49.1332 28.1804 49.6965 27.296 51.1986 26.705 52.3746 26.705 54.1848 26.3974 57.1505 30.0551 57.335 30.3628 54.3692 30.3628 52.5975 29.956 51.1986 29.3792 49.6965L29.0718 47.8827 29.0718 47.729ZM28.6415 49.8579 28.8797 52.8591C29.0335 54.3227 28.6341 55.1608 28.2111 55.1993 27.7882 55.2378 27.5964 54.9491 27.5964 53.447 27.5964 51.9449 28.5261 50.6667 28.6415 49.8579Z" id="path2023" stroke-width="0" stroke-miterlimit="10.433" fill-rule="evenodd" font-weight="400"/><path d="M30.5472 36.9386 29.3792 45.0852 30.2398 45.2697 30.3935 44.3781 50.0042 46.3456C54.1572 46.6538 54.5953 40.2287 50.4038 39.9206L31.5308 37.7379 31.5923 37.0616 30.5472 36.9386ZM31.4386 38.5372C31.4386 38.5372 45.7316 40.105 50.5267 40.6276 52.5374 40.9452 52.5608 42.2011 52.5247 43.7018 49.4331 43.8122 37.6191 43.7666 34.3894 43.7633L30.5472 43.7633 31.4386 38.5372Z" id="path2031" stroke-width="0" stroke-miterlimit="10.433" fill-rule="evenodd" font-weight="400"/><path d="M61.6538 19.9999 60.8546 20.1843 61.039 20.9221 41.5206 25.3489C37.3675 26.2348 38.6663 32.7899 42.7808 32.1736L62.6374 27.7161 62.8526 28.6076 63.7439 28.3309 61.6538 19.9999ZM61.2849 21.7829 62.5452 27.132 57.2583 28.3309C57.2583 28.3309 44.3561 28.108 40.0452 28.0235 40.5194 27.1653 40.8306 26.5881 42.5042 26.179 47.2378 25.08 61.2849 21.7829 61.2849 21.7829Z" id="path2033" stroke-width="0" stroke-miterlimit="10.433" fill-rule="evenodd" font-weight="400"/></g><path d="M124.884 287.285C123.481 290.004 122.101 293.891 120.69 296.541 116.528 303.608 113.747 309.141 113.747 317.657 112.3 331.61 129.511 332.477 130.958 318.525 130.958 310.189 129.044 303.608 126.33 296.541L124.884 288.008 124.884 287.285ZM122.859 297.3 123.98 311.42C124.704 318.306 122.824 322.249 120.834 322.43 118.844 322.611 117.942 321.253 117.942 314.186 117.942 307.119 122.316 301.106 122.859 297.3Z" id="path2169" stroke-width="0" stroke-miterlimit="10.433" fill-rule="evenodd" font-weight="400"/><path d="M296.978 231.969C295.575 234.688 294.195 238.575 292.784 241.225 288.622 248.292 285.841 253.825 285.841 262.341 284.394 276.294 301.605 277.162 303.052 263.209 303.052 254.874 301.138 248.292 298.424 241.225L296.978 232.692 296.978 231.969ZM294.953 241.985 296.074 256.104C296.797 262.99 294.918 266.933 292.928 267.114 290.938 267.295 290.036 265.937 290.036 258.87 290.036 251.803 294.41 245.79 294.953 241.985Z" id="path2172" stroke-width="0" stroke-miterlimit="10.433" fill-rule="evenodd" font-weight="400"/><path d="M301.28 166.205C299.877 168.924 298.497 172.811 297.086 175.461 292.924 182.528 290.144 188.06 290.144 196.577 288.696 210.529 305.907 211.397 307.354 197.444 307.354 189.109 305.44 182.528 302.726 175.461L301.28 166.928 301.28 166.205ZM299.255 176.22 300.376 190.34C301.1 197.225 299.221 201.168 297.23 201.349 295.24 201.531 294.338 200.172 294.338 193.106 294.338 186.039 298.712 180.025 299.255 176.22Z" id="path2174" stroke-width="0" stroke-miterlimit="10.433" fill-rule="evenodd" font-weight="400"/></svg>