<svg width="724" height="724" viewBox="0 0 735 735" xmlns="http://www.w3.org/2000/svg" xmlns:xlink="http://www.w3.org/1999/xlink" overflow="hidden"><path d="M367.5 727.4 727.5 367.4 367.5 7.4 7.5 367.4Z" fill="#FF0000"/><path d="M367.5 670.3 64.7 367.5 367.5 64.7 670.3 367.5Z" fill="#FFFFFF"/><path d="M361.6 364.2C369.83 364.2 367.05 360.87 374.08 360.87 379.81 360.87 377.87 364.11 385.64 364.11 392.85 364.11 394.61 358.66 394.61 356.44 394.61 353.02 390.73 350.82 388.97 346.18 387.21 341.56 383.79 324.46 373.35 324.46 369.51 324.46 367.25 326.03 364.38 329.45 359.67 335 359.29 344.32 356.38 347.94 353.51 351.45 352.4 355.22 352.4 357.19 352.4 359.32 353.42 364.19 361.65 364.19M281.1 422.7 273.2 426.44C265.29 430.25 255.42 438.21 253.37 454.54 253.03 457.22 246.98 464.33 240.78 464.33 236.97 464.33 232.46 461.81 231.84 458.06 230.76 451.62 225.89 428.51 225.68 427.53 225.08 424.68 222.28 422.85 219.42 423.46 216.56 424.07 214.74 426.86 215.35 429.72 215.351 429.78 216.11 433.37 216.11 433.37 206.93 428.99 206.55 428.2 206.55 425.04 206.55 421.14 215.55 416.17 222.65 416.17 228.62 416.17 233.19 417.88 237.62 419.53 241.62 421.03 245.75 422.57 250.42 422.57 257.14 422.57 259.06 421.89 262.15 420.22L264.75 418.95C268.82 417.24 300.39 402.17 314.3 395.52 316.24 398.3 318.56 401.09 321.24 403.77M317.94 351.77C330.23 359.4 330.04 359.06 330.1 363.87 329.95 365.17 329.9 367.31 329.9 371.28 329.9 384.38 355.4 395.38 371.42 395.38 389.19 395.38 412.72 383.38 412.72 370.89L412.72 364.15C412.72 358.83 413.28 358.34 423.55 352.31L423.55 377.3C423.55 384.29 413.97 399.21 396.66 407.92L396.1 408.2C387.72 412.41 377.3 417.2 373 417.2 369.03 417.2 355.59 413.28 344.9 407.89 327.58 399.19 318.01 384.26 318.01 377.27ZM209.94 310.87C209.92 310.871 209.9 310.9 209.87 310.91 209.89 310.909 209.91 310.88 209.94 310.87M520.84 300.97C523.17 300.97 524.18 301.73 524.74 302.31 528.14 305.82 527.81 316.09 527.58 323.59L527.45 329.54C527.39 332.46 529.7 334.75 532.61 334.82 535.52 334.88 537.94 332.46 538.01 329.54L538.06 327.41C538.36 328.22 538.5 328.91 538.5 329.36L538.5 339.52C538.5 342.4 537.66 345.84 533.68 345.84 530.41 345.84 526.22 343.8 522.18 341.84 517.52 339.57 513.08 337.42 508.61 337.42L507.85 337.39C505.22 337.26 499.74 337.01 492.02 340.62L491.87 340.69 434.12 369.99 434.12 355.31C442.66 351.41 475.42 336.39 483.52 332.21 492.65 327.51 499.62 317.46 503.72 311.45L505.31 309.18C508.06 305.4 513.78 300.99 520.87 300.99ZM254.44 340.67 254.36 340.64C246.64 337.02 241.16 337.28 238.53 337.41L237.77 337.44C233.27 337.44 228.86 339.59 224.2 341.86 220.2 343.83 215.98 345.86 212.7 345.86 208.71 345.86 207.88 342.43 207.88 339.54L207.88 329.38C207.88 328.93 208.02 328.24 208.32 327.43L208.37 329.55C208.43 332.47 210.85 334.89 213.77 334.83 216.68 334.77 219 332.47 218.93 329.55L218.8 323.6C218.56 316.1 218.24 305.83 221.63 302.32 222.19 301.75 223.2 300.98 225.53 300.98 232.62 300.98 238.35 305.39 241.1 309.17L242.69 311.44C246.83 317.44 253.79 327.54 262.89 332.2 269.97 335.85 295.19 347.43 307.47 353.07L307.47 367.52ZM371.54 175.87C400.9 175.87 415.16 188.12 433.24 204.55L442.82 213.14 446.39 216.24C457.87 226.19 468.72 235.59 468.72 241.16 468.72 248.06 466.31 254.94 463.04 261.36 463.42 259.01 463.44 257.46 463.44 254.47 463.44 243.1 460.3 238.2 448.69 226.06L441.06 233.36C451.94 244.73 452.88 247.15 452.88 254.46 452.88 259.01 452.88 259.01 450.57 269.26L447.51 283 447.86 284.25C447.9 284.38 451.45 297.43 451.45 309.95 451.45 323.05 443.45 327.93 433.35 334.15L430.17 336.11 419.28 342.67C407.78 349.42 402.05 352.4 402.05 364.19L402.05 370.93C402.05 374.84 387.27 384.86 371.52 384.86 357.06 384.86 341.14 374.86 340.56 371.22 340.56 366.39 340.77 364.3 340.77 364.3 340.77 352.74 335.17 349.49 324 343.01 320.89 341.21 317.03 338.96 312.48 336.11L309.3 334.15C299.16 327.95 291.92 324.43 291.92 309.95 291.92 294.72 295.55 289.28 295.55 284.58 295.55 279.88 290.48 261.58 290.48 258.71 290.48 258.34 290.52 255.25 290.52 255.25 290.52 248.4 291.39 242.68 301.98 233.27 302.84 232.51 304.15 230.18 303.1 228.89 302.05 227.6 301.63 227.06 300.41 225.62 299.8 224.9 298.69 224.62 297.62 224.61 296.55 224.61 295.51 224.89 295.04 225.31 282.51 236.44 279.94 244.87 279.94 255.25 279.94 255.25 279.9 258.34 279.9 258.8 279.9 261.62 279.78 260.2 281.23 266.13 276.71 258.47 272.91 249.85 272.91 241.18 272.91 235.79 283.24 226.43 294.18 216.53L298.96 212.19C302.74 208.74 306.06 205.52 309.2 202.4 316.44 195.29 322.15 189.68 328.8 186.3 343.79 178.7 357.4 175.9 371.62 175.9M309.32 386.4C291 395.16 264.22 407.93 260.75 409.38L257.23 411.09C255.7 411.92 255.23 412.16 250.52 412.16 247.77 412.16 244.83 411.06 241.42 409.79 236.61 407.99 230.63 405.79 222.75 405.79 211.89 405.79 196.11 413.36 196.11 425.22 196.11 435.78 202.88 438.95 214.09 444.22L218.91 446.51C220.04 452.05 221.12 457.46 221.54 459.99 223.11 469.43 232.64 475.09 240.9 475.09 252.7 475.09 263 463.54 264 456.09 265.19 446.62 269.74 440.1 277.92 436.17L285.71 432.48 330.21 411.53C333.26 413.72 336.57 415.76 340.13 417.53 348.84 421.91 365.33 428.39 373.01 428.39 379.83 428.39 390.01 423.25 401.11 417.67 405.87 415.28 409.95 412.67 413.6 409.8L468.38 436.15C476.56 440.09 481.11 446.6 482.3 456.07 483.24 463.56 493.57 475.07 505.4 475.07 513.68 475.07 523.18 469.43 524.76 459.97 525.18 457.44 526.26 452.03 527.39 446.49L526.92 446.71 527.39 446.49 532.22 444.2C543.43 438.93 550.2 435.75 550.2 425.2 550.2 413.34 534.43 405.77 523.56 405.77 515.68 405.77 509.7 408.01 504.89 409.77 501.49 411.04 498.55 412.14 495.79 412.14 491.08 412.14 490.61 411.89 489.08 411.07L485.56 409.36C481.85 407.8 451.02 393.1 432.9 384.43 433.15 383.67 433.36 382.92 433.53 382.18 445.94 375.9 496.33 350.37 496.53 350.27 501.87 347.78 505.17 347.93 507.36 348.03L508.62 348.07C510.68 348.07 514.18 349.77 517.56 351.42 522.44 353.8 527.98 356.5 533.66 356.5 542.76 356.5 549.04 349.56 549.04 339.62L549.04 329.46C549.04 323.94 545.23 316.25 538.14 311.95 537.75 305.39 536.37 299.24 532.32 295.06 529.39 292.06 525.53 290.51 520.84 290.51 509.74 290.51 501.15 296.99 496.74 303.05L495 305.54C491.65 310.39 485.43 319.42 478.66 322.9 473.79 325.41 459.45 332.08 447.21 337.72 455.16 331.92 461.96 324.13 461.96 310.02 461.96 301.2 460.45 292.42 459.29 287.02L461.19 284.2C468.8 273.21 479.19 258.2 479.19 241.27 479.19 230.88 468.29 221.44 453.21 208.37L449.66 205.29 440.26 196.86C422.06 180.32 404.96 164.66 371.48 164.66 355.76 164.66 340.18 168.66 323.89 176.94 315.78 181.05 309.24 187.48 301.69 194.92 298.58 197.97 295.37 201.13 291.73 204.45L286.98 208.77C272.62 221.77 262.24 231.17 262.24 241.25 262.24 258.14 272.66 273.19 280.24 284.18L281.59 286.18C280.51 293.91 279.39 304.12 279.39 311.28 279.39 321.13 283.93 328.07 289.86 333.48 280.37 329.07 271.28 324.8 267.58 322.9 260.81 319.42 254.59 310.39 251.24 305.54L249.5 303.05C245.09 296.95 236.4 290.51 225.4 290.51 220.71 290.51 216.84 292.04 213.92 295.06 209.87 299.24 208.48 305.39 208.1 311.96 208.12 311.959 208.14 311.94 208.17 311.92 208.15 311.921 208.13 311.94 208.1 311.96 201.01 316.26 197.19 323.95 197.19 329.47L197.19 339.63C197.19 349.57 203.52 356.51 212.58 356.51 218.29 356.51 223.82 353.81 228.68 351.43 232.06 349.78 235.55 348.08 237.62 348.08L238.88 348.04C241.07 347.94 244.37 347.78 249.71 350.28 249.9 350.37 289.91 370.66 307.44 379.48M428.24 393.88C439.01 399.03 477.03 417.2 481.44 419.08L484.04 420.35C487.12 422.02 489.04 422.7 495.77 422.7 500.43 422.7 504.57 421.15 508.57 419.66 512.99 418.01 517.57 416.3 523.54 416.3 530.64 416.3 539.64 421.27 539.64 425.17 539.64 428.33 539.26 429.12 530.08 433.5 530.54 431.32 530.83 429.91 530.85 429.86 531.45 427.01 529.63 424.21 526.77 423.6 523.92 423 521.12 424.82 520.52 427.67 520.31 428.65 515.44 451.77 514.36 458.2 513.73 461.95 509.23 464.46 505.42 464.46 499.22 464.46 493.17 457.35 492.83 454.67 490.78 438.31 480.92 430.35 473.01 426.57L422.01 402.04C424.46 399.38 426.56 396.64 428.3 393.94M414.5 320.84C432.1 320.84 439.5 298.74 439.5 293.05 439.5 287.36 435 284.95 432.35 284.95L398.87 284.95C395.3 284.95 386.7 287.86 386.7 293.42 386.7 295.5 388.26 300.08 391.62 304.52 397.42 312.2 402.45 320.8 414.49 320.8M327 320.84C339 320.84 344.1 312.24 349.87 304.56 353.23 300.11 354.79 295.56 354.79 293.46 354.79 287.9 346.19 284.99 342.62 284.99L309.14 284.99C306.49 284.99 302 287.37 302 293.09 302 298.78 309.41 320.88 327 320.88M317.9 342.64 310.06 342.64C313.82 344.37 316.67 345.64 317.9 346.23L317.9 342.64M307.5 379.34C307.75 381.48 308.36 383.8 309.31 386.22Z"/></svg>