<svg width="772" height="772" viewBox="0 0 579 579" xmlns="http://www.w3.org/2000/svg" xmlns:xlink="http://www.w3.org/1999/xlink" overflow="hidden"><path d="M25.3012 289.672 289.33 553.7 553.403 289.628C465.35 201.676 377.472 113.549 289.374 25.643L25.3012 289.672Z" fill="#FFFFFF"/><path d="M147.659 148.012 6 289.672 147.669 431.341 289.328 573 431.016 431.312 572.704 289.624 431.063 147.984C353.166 70.0864 289.404 6.34347 289.376 6.34347 289.347 6.34347 225.576 70.0959 147.659 148.012ZM408.622 170.425 527.821 289.624 408.575 408.871 289.319 528.127 170.129 408.871 50.9394 289.615 170.139 170.416C235.696 104.859 289.347 51.2262 289.376 51.2262 289.404 51.2262 343.065 104.868 408.622 170.425Z" fill="#FF0000"/><path d="M361.906 151.719C339.93 193.693 366.707 217.387 337.188 279.219 321.525 266.705 330.605 219.94 299.5 219.156 304.287 233.517 300.704 239.095 299.906 244.281 296.812 264.393 289.632 282.367 303.594 309.094 282.146 298.673 281.79 279.553 263.656 267.563 267.246 287.907 258.601 329.161 282.688 368.688 261.224 366.576 254.106 358.325 230.875 336.063 255.12 461.658 273.157 465.186 362.063 472.313 355.364 471.527 310.568 464.373 294.344 412.75 293.423 399.967 292.917 423.983 336 424.781 308.721 381.578 316.152 389.757 319.344 364.625 330.636 381.824 320.743 383.329 352.656 396.094 342.538 363.947 368.272 341.95 362.688 305.25 369.739 321.368 394.822 318.829 393.625 396.219 414.393 373.048 416.871 389.086 426.844 363.156 427.421 377.592 433.757 395.566 405.531 425.156 412.712 427.151 424.734 428.695 444.281 415.531 425.249 437.101 442.45 437.61 394.313 472.906 454.947 473.704 494.772 435.535 493.344 351.656 491.748 358.837 489.961 373.174 457.25 377.563 477.74 357.202 488.418 316.665 472.063 283.156 466.304 288.512 457.354 313.413 435.813 320.594 446.739 302.668 444.281 279.469 444.281 279.469 444.281 279.469 447.069 248.136 428.563 223.938 423.377 261.834 423.81 280.891 399.875 286.875 403.727 264.509 404.436 254.093 392.469 228.563 379.969 201.897 365.496 175.654 361.906 151.719ZM261.781 493.969 261.781 504.938 261.781 515.938 368.5 515.938 475.219 515.938 475.188 504.969 475.156 494.031 368.5 494 261.781 493.969Z" transform="scale(0.8 0.8)"/></svg>