<svg width="724" height="724" viewBox="0 0 735 735" xmlns="http://www.w3.org/2000/svg" xmlns:xlink="http://www.w3.org/1999/xlink" overflow="hidden"><path d="M367.5 727.4 727.5 367.4 367.5 7.4 7.5 367.4Z" fill="#FF0000"/><path d="M367.5 670.3 64.7 367.5 367.5 64.7 670.3 367.5Z" fill="#FFFFFF"/><path d="M233.3 384.1C222.2 384.1 215.4 380.25 212.2 373.97L132.22 373.97 132.22 410.53 331.52 410.53 331.52 373.97 259.02 373.97C254.09 380.29 244.48 384.1 233.26 384.1"/><path d="M251.7 370.5C254.95 370.5 259.61 368.93 263.37 361.4 264.23 359.69 264.4 357.51 264.59 355.2 264.69 354 264.85 352.07 265.13 351.33 265.49 351.08 266.32 350.72 266.91 350.46 269.12 349.49 272.15 348.17 273.74 344.99 274.63 343.21 274.89 341.45 274.89 339.77 274.89 338.51 274.74 337.3 274.6 336.15 274.45 334.94 274.32 333.78 274.32 332.58 274.32 332.17 274.321 331.76 274.37 331.34 274.55 329.24 278.24 324.69 281.56 321.76L276.49 315.99C274.95 317.34 267.26 324.39 266.71 330.68 266.5 333.15 266.75 335.24 266.97 337.08 267.23 339.27 267.36 340.56 266.86 341.56 266.51 342.25 265.09 342.88 263.82 343.43 261.86 344.29 259.65 345.25 258.42 347.5 257.34 349.49 257.13 352.08 256.92 354.59 256.83 355.74 256.69 357.49 256.47 358.01 255.81 359.32 255.12 360.38 254.41 361.17 253.93 362.49 253.1 364.38 251.68 366.42L251.68 370.5"/><path d="M241.7 365.7 246.09 372C248.6 370.25 250.4 368.27 251.7 366.41 253.12 364.38 253.94 362.49 254.43 361.16 254.61 360.66 254.75 360.24 254.85 359.93 255.54 357.78 255.03 355.74 254.58 353.95 254.11 352.07 253.84 350.86 254.36 349.72 254.96 348.38 255.98 347.58 257.27 346.57 258.74 345.42 260.57 343.98 261.71 341.57 263.13 338.59 262.3 335.3 261.5 332.13 260.94 329.9 260.36 327.59 260.67 325.83L253.11 324.49C252.96 325.31 252.9 326.12 252.9 326.93 252.9 329.44 253.5 331.84 254.06 334.02 254.37 335.25 254.82 337.02 254.82 337.92 254.82 338.08 254.819 338.21 254.78 338.31 254.44 339.03 253.74 339.6 252.54 340.55 250.85 341.88 248.75 343.53 247.38 346.55 246.67 348.13 246.43 349.66 246.43 351.06 246.43 352.9 246.84 354.53 247.16 355.8 247.31 356.4 247.53 357.28 247.54 357.64 246.75 360.06 245.37 363.14 241.73 365.64"/><path d="M208 350C208.51 350.95 208.84 351.84 209.06 352.68 209.82 353.17 210.94 353.9 211.16 354.26 211.5 355.16 211.18 357.69 210.96 359.37 210.89 359.92 210.82 360.45 210.77 360.97 212.6 362.8 215.48 364.92 217.03 365.7L214.14 371.49C215.57 373.53 217.24 375.57 218.76 377.24L224.44 372.07C221.17 368.47 218.87 364.97 218.32 363.43 218.319 363.36 218.319 363.29 218.319 363.19 218.319 362.52 218.479 361.24 218.599 360.35 218.789 358.84 218.999 357.23 218.999 355.64 218.999 354.2 218.829 352.77 218.329 351.46 217.319 348.82 214.949 347.31 213.059 346.1 211.939 345.39 210.409 344.41 210.329 343.79 210.309 343.63 210.299 343.48 210.299 343.32 210.299 342.55 210.539 341.76 210.969 340.42 211.599 338.47 212.429 335.89 212.429 332.12 212.429 331.61 212.409 331.08 212.379 330.53L204.709 330.99C204.899 334.19 204.289 336.07 203.649 338.09 203.049 339.96 202.359 342.09 202.689 344.76 202.709 344.89 202.729 345.01 202.749 345.14 204.529 346.08 206.609 347.43 207.999 350.01"/><path d="M191.8 334.1C191.93 335.6 191.69 336.66 191.42 337.9 190.95 340.01 190.37 342.63 192.11 346.09 193.66 349.18 196.32 350.51 198.26 351.47 199.83 352.25 200.74 352.74 201.25 353.66 201.88 354.82 201.81 355.62 201.69 356.95 201.55 358.57 201.35 360.8 202.76 363.2 205.06 367.12 211.05 371.31 213.6 372.58L214.14 371.5 217.03 365.71C215.47 364.93 212.59 362.82 210.77 360.98 210.16 360.37 209.67 359.79 209.38 359.3 209.24 359.07 209.23 358.78 209.34 357.63 209.45 356.39 209.59 354.69 209.06 352.69 208.84 351.85 208.51 350.95 208 350.01 206.6 347.43 204.53 346.08 202.74 345.14 202.37 344.95 202.01 344.76 201.67 344.59 200.03 343.78 199.33 343.38 198.97 342.65 198.47 341.65 198.53 341.26 198.91 339.55 199.23 338.09 199.68 336.1 199.45 333.43 199.01 328.36 195.09 324.11 191.93 320.7L189.6 318.09 183.66 322.95 186.29 325.91C188.65 328.46 191.58 331.64 191.8 334.09"/><path d="M225.8 339.3C225.8 345.2 227.22 353.13 234.14 353.13 241.05 353.13 242.88 344.19 242.88 340.53 242.88 337.3 237.97 323.62 236.78 311.23 235.25 311.21 233.97 310.77 232.9 310.07 231.83 323.97 225.75 333.93 225.75 339.27"/><path d="M334.1 227.5C319 229.9 250 242.3 243.4 243.6 233.59 245.48 231.3 236.6 226.84 234.48 226.84 234.48 233.45 273.31 233.84 276.2 235.22 286.58 228.12 291.92 228.12 299.68 228.12 302.49 229.34 307.68 232.91 310.03 233.98 310.73 235.26 311.16 236.79 311.19 236.84 311.19 236.88 311.19 236.93 311.19 243.65 311.19 245.09 304.47 245.09 299.35 245.09 291.43 241.25 286.87 241.25 284.95 241.25 283.03 242.85 280.79 248.93 279.83 255.01 278.87 331.03 265.67 343.03 263.73 355.03 261.79 363.91 251.97 361.99 241.89 360.07 231.79 349.27 225.09 334.15 227.49M339.35 255.81C329.11 256.45 239.65 265.09 239.65 265.09L237.73 252.45C237.73 252.45 326.23 237.09 336.63 235.35 347.03 233.59 354.39 237.75 354.39 244.31 354.39 250.87 349.59 255.19 339.39 255.83"/><path d="M498.8 306.2C496.73 316.88 492.28 327.13 492.28 329.94 492.28 333.6 493.37 342.74 500.28 342.74 507.19 342.74 509.38 334.61 509.38 328.74 509.38 324.08 505.3 316.54 503.59 305.64 502.59 306.08 501.45 306.34 500.14 306.34 499.67 306.34 499.24 306.29 498.82 306.21"/><path d="M387.7 261.5C399.7 263.42 483.8 277.43 489.9 278.4 493.37 278.95 496.21 281.24 496.21 282.19 496.21 283.14 492.5 286.69 492.5 292.92 492.5 297.68 493.24 305.18 498.76 306.21 499.17 306.29 499.61 306.34 500.08 306.34 501.39 306.34 502.53 306.09 503.53 305.64 507.67 303.81 509.31 298.65 509.31 293.95 509.31 282.98 503.61 285.14 504.98 274.75 505.36 271.87 510.9 234.21 510.9 234.21 506.42 236.29 505.23 244.03 495.42 242.15 488.75 240.87 411.62 226.64 396.52 224.24 381.42 221.84 371.16 229.7 369.22 239.78 367.28 249.86 375.7 259.57 387.7 261.49M396.7 231.74C407.11 233.45 500.8 249.84 500.8 249.84L498.88 262.48C498.88 262.48 401.98 254 391.78 253.36 381.54 252.72 376.9 249.2 376.9 242.64 376.9 236.08 385.06 229.84 396.74 231.76"/><path d="M532.7 318.2C532.75 319.28 532.78 319.87 532.19 321.2 531.07 323.68 529.12 326.77 526.19 327.47L527.94 334.95C531.27 334.17 535.93 331.7 539.24 324.35 540.6 321.35 540.49 319.25 540.42 317.81 540.36 316.61 540.33 316.11 541.35 314.5 542.08 313.36 542.28 313.31 543.15 313.08 545.12 312.56 547.38 311.71 549.33 308.08 551.55 303.94 550.83 300.5 550.31 297.98 550.03 296.6 549.8 295.52 549.98 294.39 550.25 292.67 551.46 291.35 553.77 288.98 555.02 287.69 556.44 286.23 557.88 284.4L551.88 279.65C550.7 281.16 549.48 282.41 548.3 283.62 545.74 286.25 543.1 288.97 542.43 293.18 542.03 295.69 542.47 297.82 542.83 299.53 543.29 301.77 543.46 302.82 542.6 304.43 542.08 305.41 542.06 305.41 541.24 305.63 539.31 306.14 537.06 306.96 534.9 310.37 532.75 313.76 532.67 316 532.78 318.18"/><path d="M519.6 331.2C523.28 327.96 524.42 326.79 526.1 321.39 527.19 317.88 526.94 315.56 526.74 313.7 526.58 312.22 526.47 311.15 526.97 309.24 527.23 308.26 527.32 308.22 528.39 307.64 530.03 306.76 532.77 305.29 533.98 300.53 535.09 296.16 533.83 293.41 532.91 291.4 532.19 289.84 531.76 288.89 532.14 286.84L524.58 285.46C523.78 289.89 525.02 292.61 525.93 294.59 526.65 296.16 526.98 296.88 526.54 298.59 526.16 300.08 525.89 300.22 524.76 300.83 523.23 301.65 520.66 303.03 519.54 307.22 518.66 310.51 518.9 312.71 519.09 314.48 519.26 316.04 519.37 317.08 518.75 319.06 517.64 322.63 517.52 322.74 514.51 325.38L512.72 326.97 517.86 332.68 519.58 331.15"/><path d="M462.7 305.6C463.57 309.45 466.31 311.14 468.31 312.38 470.13 313.51 470.75 313.97 471 315.18 471.4 317.06 471.22 317.6 470.95 318.4 470.41 320 470 321.68 470.82 324.58 472.26 329.68 473.8 331.34 478.92 336.45L484.35 331.02C479.5 326.17 479.1 325.61 478.2 322.47 477.96 321.63 477.98 321.57 478.22 320.84 478.78 319.16 479.27 317.21 478.5 313.58 477.54 309.06 474.4 307.13 472.33 305.85 470.76 304.88 470.33 304.53 470.18 303.92 469.91 302.7 470.2 301.77 470.85 299.94 471.63 297.72 472.61 294.96 472.15 291.01L464.52 291.91C464.78 294.08 464.26 295.54 463.61 297.38 462.86 299.51 461.92 302.18 462.69 305.61"/><path d="M457.5 303.6C457.5 302.23 457.29 300.64 456.65 298.74 454.87 293.51 453.02 291.49 450.88 289.16L448.73 286.72 442.82 291.62 445.23 294.35C447.16 296.45 448.13 297.51 449.39 301.21 450.05 303.16 449.85 304.18 449.56 305.72 449.18 307.7 448.65 310.41 450.35 314.24 452.23 318.46 455.04 319.5 456.91 320.19 458.15 320.65 458.37 320.73 458.81 321.66 459.55 323.26 459.46 323.72 459.28 324.55 459.05 325.65 458.66 327.49 459.73 329.9 461.1 333.02 464.97 340.38 471.24 341.3L472.36 333.7C470.82 333.47 468.36 330.45 466.76 326.81L466.7 326.63 466.8 326.12C466.96 325.36 467.1 324.55 467.1 323.63 467.1 322.24 466.79 320.59 465.79 318.42 464.02 314.61 461.35 313.62 459.58 312.97 458.26 312.48 457.95 312.37 457.39 311.11 457.01 310.25 456.87 309.64 456.87 309.02 456.87 308.47 456.98 307.92 457.12 307.17 457.31 306.18 457.54 305.01 457.54 303.59"/><path d="M507.7 348.4C500.17 354.49 483.31 354.96 474.4 346.84L472.52 345.13 470.21 346.2C466.78 347.79 462.21 347.92 458.54 348.02 453.87 348.15 450.18 348.26 448.29 351.21 446.92 353.35 447.05 356.31 448.66 359.2 448.92 359.68 449.23 360.16 449.57 360.64L466.32 360.64C460.09 360.64 456.82 357.7 455.61 355.84 456.59 355.77 457.76 355.72 458.76 355.7 462.44 355.59 466.87 355.39 471.07 354.01 475.65 357.5 481.24 359.5 486.94 360.26 491.07 355.4 498.04 353.62 502.12 353.62L502.12 359.37C505.3 358.54 508.23 357.31 510.68 355.72 514.76 357.48 520.48 360.95 524.46 363.36 527.92 365.46 529.63 366.49 530.77 366.92 534.25 368.26 548.77 369.45 557.76 369.45L557.76 361.77C547.6 361.77 535.44 360.43 533.56 359.75 532.95 359.5 530.47 358 528.49 356.79 523.32 353.65 516.24 349.35 511.39 347.69L509.4 347.03 507.77 348.35"/><path d="M466.3 360.6 437.65 360.6C424.75 360.6 423.37 368.5 423.37 371.27 423.37 372.04 423.46 373.02 423.73 374.07L435.37 374.07C431.95 374.07 430.86 372.73 430.86 371.3 430.86 369.87 432.17 368.3 437.65 368.3L483.64 368.3C483.89 365.18 485 362.64 486.6 360.62L466.3 360.62"/><path d="M491.4 368.3 492.5 368.3 515.46 362.94 502.36 360.62 502.12 360.62 502.12 361.28C502.02 361.28 492.51 361.71 491.39 368.28"/><path d="M419.3 374.1C411.9 374.1 406.92 379.91 406.92 385.34 406.92 390.52 411.52 396.77 419.68 396.77L422.07 396.77C422.62 393.82 424.97 389.62 433.72 389.14L433.72 389.09 419.72 389.09C416.84 389.09 414.72 386.27 414.64 385.33 414.64 384.33 416.04 381.78 419.34 381.78L469.23 381.78 469.23 374.1 419.34 374.1"/><path d="M422 396.7C421.88 397.33 421.85 397.89 421.85 398.36 421.85 404.66 427.4 409.79 436.85 409.79L437.03 409.79C438.47 405.53 443.72 402.53 450.7 402.15L450.7 402.1 436.85 402.1C432.09 402.1 429.49 399.62 429.49 398.35 429.49 397.26 432.43 396.69 435.33 396.69L469.1 396.69 469.1 389.01 435.33 389.01C434.73 389.01 434.17 389.03 433.62 389.06 424.87 389.54 422.52 393.74 421.97 396.69"/><path d="M437.1 409.8C436.84 410.57 436.69 411.38 436.69 412.22 436.69 417.04 441.01 422.22 450.65 423.07 457.63 423.65 487.75 424.6 493.27 424.6 497.77 424.6 516.63 423.99 526.79 421.03 529.79 420.15 532.34 418.97 534.79 417.83 540.07 415.37 545.53 412.83 557.39 412.83L557.39 405.15C543.82 405.15 537.29 408.19 531.55 410.86 529.26 411.92 527.1 412.93 524.64 413.65 516.11 416.14 498.66 416.91 493.27 416.91 488.17 416.91 458.07 415.97 451.28 415.41 446.4 415 444.37 413.13 444.37 412.22 444.54 411.75 446.89 409.8 452.29 409.8L483.21 409.8 475.81 402.12 452.29 402.12C451.78 402.12 451.27 402.14 450.77 402.17 443.78 402.55 438.54 405.54 437.1 409.8"/><path d="M486.9 360.2C486.79 360.33 486.68 360.45 486.58 360.58 484.98 362.6 483.87 365.14 483.62 368.26 483.59 368.69 483.56 369.12 483.56 369.57 483.56 376.71 487.32 389.17 512.52 392.36L513.48 384.74C505.17 383.69 491.28 380.32 491.28 369.57 491.28 369.11 491.32 368.67 491.39 368.26 492.52 361.67 502.02 361.26 502.12 361.26L502.12 353.58C498.05 353.58 491.02 355.36 486.94 360.21"/></svg>